<?xml version="1.0" encoding="UTF-8"?>
<svg width="30" height="30" version="1.1" xmlns="http://www.w3.org/2000/svg">
 <path d="m15 0c0.40124 0 0.79355 0 1.1868 0.032679l1.2896 1.6386c0.71861 0.13268 1.4016 0.3056 2.0757 0.54645l1.8765-0.73431c0.71108 0.33986 1.4003 0.74348 2.044 1.1868l0.3767 1.951c0.54531 0.46538 1.064 0.98425 1.5295 1.5295l1.951 0.34366c0.44282 0.6433 0.84727 1.3664 1.1868 2.0769l-0.77076 1.8766c0.2409 0.67416 0.45017 1.3572 0.58268 2.0756l1.6386 1.2896c0.030952 0.39312 0.032967 0.7858 0.032967 1.1868 0 0.39236-0.003375 0.7692-0.032967 1.154l-1.6386 1.2861c-0.1302 0.70635-0.31131 1.4125-0.54626 2.0756l0.73431 1.9131c-0.34064 0.71423-0.74196 1.3978-1.1868 2.044l-1.951 0.34034c-0.46556 0.54527-0.98422 1.0638-1.5295 1.5294l-0.3767 1.9875c-0.6441 0.44379-1.3325 0.84677-2.044 1.1867l-1.9129-0.77065c-0.66446 0.23565-1.3319 0.45212-2.0394 0.58279l-1.2895 1.6056c-0.39329 0.030643-0.7856 0.065466-1.1868 0.065466-0.40124 0-0.82652-0.033751-1.2198-0.065466l-1.2202-1.6056c-0.69825-0.12877-1.4193-0.35176-2.0757-0.58279l-1.9129 0.77065c-0.71513-0.34104-1.3969-0.74112-2.044-1.1867l-0.37671-2.0237c-0.53343-0.45828-1.0365-0.95833-1.4931-1.4932l-1.9874-0.34034c-0.44488-0.64619-0.8462-1.3298-1.1868-2.044l0.77076-1.9131c-0.23121-0.6564-0.45393-1.3772-0.58268-2.0756l-1.6056-1.2532c-0.030948-0.39312-0.065935-0.78548-0.065935-1.1868 0-0.40104 0.034988-0.79373 0.065935-1.1868l1.6056-1.2896c0.13045-0.70742 0.3471-1.3747 0.58268-2.0392l-0.77076-1.9131c0.33956-0.71048 0.74403-1.4336 1.1868-2.0769l1.9874-0.34366c0.45663-0.53497 0.95968-1.0349 1.4931-1.4932l0.37671-1.9874c0.64673-0.4454 1.3293-0.84591 2.044-1.1868l1.9129 0.73431c0.6633-0.23494 1.3696-0.41602 2.0757-0.54645l1.2861-1.6386c0.38475-0.029572 0.76154-0.032679 1.1538-0.032679z" fill="#808080" stroke-width="1.0715"/>
</svg>
