<?xml version="1.0" encoding="UTF-8"?>
<svg width="30" height="30" version="1.1" xmlns="http://www.w3.org/2000/svg">
 <path d="m1.5363 7.8c0.45473-0.8615 0.99168-1.6795 1.604-2.4413 0.6124-0.762 1.3-1.4678 2.0565-2.1047 0.75635-0.637 1.5814-1.205 2.4685-1.6913m-7.2115 17.937c-0.31025-1.0041-0.51094-2.0162-0.61025-3.0228-0.098748-1.0068-0.095194-2.0085 0.0038691-2.9925 0.09924-0.9837 0.29401-1.9497 0.57773-2.8851m7.4672 17.8c-0.86139-0.4546-1.6795-0.9916-2.4414-1.6039-0.76194-0.6123-1.4677-1.3-2.1046-2.0564-0.63679-0.7564-1.2048-1.5815-1.6912-2.4686m17.839 7.2289c-1.0042 0.3103-2.0163 0.511-3.0229 0.6103-1.0068 0.0988-2.0084 0.0953-2.9923-0.0078-0.98388-0.099-1.9498-0.2939-2.8853-0.5776m17.87-7.4249c-0.45473 0.8613-0.99165 1.6795-1.604 2.4414-0.61227 0.7619-1.3002 1.4677-2.0565 2.1046-0.75635 0.6369-1.5814 1.2049-2.4685 1.6912m7.211-17.837c0.31029 1.0042 0.51094 2.0162 0.61029 3.0229 0.098869 1.0068 0.095195 2.0086-0.003946 2.9923-0.099204 0.9839-0.29397 1.9499-0.5777 2.8853m-7.4666-17.9c0.86139 0.4547 1.6795 0.9917 2.4414 1.6039 0.76194 0.6124 1.4677 1.3002 2.1046 2.0565 0.63683 0.7565 1.2049 1.5815 1.6913 2.4687m-17.84-7.2291c1.0042-0.3103 2.0161-0.5109 3.0228-0.6103 1.0069-0.0987 2.0084-0.0952 2.9923 0 0.98392 0.0992 1.9499 0.294 2.8854 0.5777" fill="none" stroke="#a9a9a9" stroke-width="2"/>
</svg>
