<?xml version="1.0" encoding="UTF-8"?>
<svg width="30" height="30" version="1.1" xmlns="http://www.w3.org/2000/svg">
 <g stroke-width="2.2164">
  <path d="m17.123 5.8594v4.3242c0 0.51768 0.38271 0.89844 0.90039 0.89844h4.1055z"/>
  <path d="m12.084 18.254c1.1014 0 1.998 0.89472 1.998 1.9961 0 1.1014-0.89667 1.998-1.998 1.998-1.1014 0-1.998-0.89667-1.998-1.998 0-1.1014 0.89667-1.9961 1.998-1.9961zm5.6992-0.015625c1.1014 0 1.998 0.89667 1.998 1.998s-0.89667 1.998-1.998 1.998-1.998-0.89667-1.998-1.998 0.89667-1.998 1.998-1.998zm-2.8418-4.5586c1.1014 0 1.998 0.89667 1.998 1.998 0 1.1014-0.89667 1.998-1.998 1.998s-1.998-0.89667-1.998-1.998c0-1.1014 0.89667-1.998 1.998-1.998zm-4.0586-8.4746c-1.7073 0-3.1172 1.4099-3.1172 3.1172v12.244c0 1.7073 1.4099 3.1152 3.1172 3.1152h8.7656c1.7073 0 3.1172-1.408 3.1172-3.1152v-7.2676h-4.7422c-1.7073 0-3.1172-1.408-3.1172-3.1152v-4.9785z"/>
 </g>
</svg>
