<?xml version="1.0" encoding="UTF-8"?>
<svg width="30" height="30" version="1.1" xmlns="http://www.w3.org/2000/svg">
 <path d="m4.4028 13 0.53067-1.6734c1.2229 0.4401 2.1112 0.8211 2.6649 1.1432-0.14613-1.4222-0.22304-2.4002-0.23073-2.9346h1.6728c-0.023076 0.7779-0.11153 1.7521-0.26534 2.9229 0.79216-0.4086 1.6997-0.7858 2.7226-1.1315l0.53067 1.6734c-0.97675 0.3302-1.9343 0.5502-2.8726 0.6601 0.46914 0.4165 1.1306 1.1589 1.9843 2.2276l-1.3844 1.0017c-0.44608-0.6207-0.97291-1.4653-1.5805-2.534-0.56913 1.1079-1.069 1.9526-1.4997 2.534l-1.3613-1.0017c0.89214-1.1235 1.5305-1.8661 1.915-2.2276-0.99213-0.1964-1.9343-0.4164-2.8264-0.6601z"/>
 <path d="m11.656 8.2 0.34375 0.5 4.3125 6.0937-4.6562 6.625-0.375 0.5h3.4688l0.09375-0.1563 3.1562-4.75 0.46875 0.6876 2.6875 4.0624 0.09375 0.1563h3.5l-0.34375-0.5-4.75-6.75 4.4062-5.9687 0.34375-0.5h-3.4062l-0.09375 0.125-2.2188 3.0937c-0.22474 0.3098-0.46392 0.6875-0.71875 1.0625-0.19804-0.3265-0.38173-0.6388-0.65625-1.0625l-2.0312-3.0625-0.09375-0.1562h-3.5312z" color="#000000" stroke-width=".63047"/>
</svg>
