<?xml version="1.0" encoding="UTF-8"?>
<svg width="30" height="30" version="1.1" xmlns="http://www.w3.org/2000/svg">
 <path d="m11.656 8.2 0.34375 0.5 4.3125 6.0937-4.6562 6.625-0.375 0.5h3.4688l0.09375-0.1563 3.1562-4.75 0.46875 0.6876 2.6875 4.0624 0.09375 0.1563h3.5l-0.34375-0.5-4.75-6.75 4.4062-5.9687 0.34375-0.5h-3.4062l-0.09375 0.125-2.2188 3.0937c-0.22474 0.3098-0.46392 0.6875-0.71875 1.0625-0.19804-0.3265-0.38173-0.6388-0.65625-1.0625l-2.0312-3.0625-0.09375-0.1562h-3.5312z" color="#000000" stroke-width=".63047"/>
 <path d="m9.4157 11.456-2.8916 1.7528 2.9119 1.7651" fill="none" stroke="currentColor"/>
 <g fill-rule="evenodd" stroke-width=".36244">
  <circle cx="10.215" cy="10.983" r="1.2703"/>
  <circle cx="10.241" cy="15.442" r="1.2703"/>
  <circle cx="6.1899" cy="13.236" r="1.2703"/>
 </g>
</svg>
