<?xml version="1.0" encoding="UTF-8"?>
<svg width="30" height="30" version="1.1" xmlns="http://www.w3.org/2000/svg">
 <path d="m11.656 8.2 0.34375 0.5 4.3125 6.0937-4.6562 6.625-0.375 0.5h3.4688l0.09375-0.1563 3.1562-4.75 0.46875 0.6876 2.6875 4.0624 0.09375 0.1563h3.5l-0.34375-0.5-4.75-6.75 4.4062-5.9687 0.34375-0.5h-3.4062l-0.09375 0.125-2.2188 3.0937c-0.22474 0.3098-0.46392 0.6875-0.71875 1.0625-0.19804-0.3265-0.38173-0.6388-0.65625-1.0625l-2.0312-3.0625-0.09375-0.1562h-3.5312z" color="#000000" stroke-width=".63047"/>
 <path d="m7.8593 10.494 1.0361-0.84263 4.1235 5.0704-1.0303 0.83793" fill="none" stroke="currentColor" stroke-width="1.2496"/>
 <path d="m5.1002 16.975 2.5875-2.1043" fill="none" stroke="currentColor" stroke-width="1.2496"/>
 <path d="m8.8501 16.342-2.3654-2.9085 3.7016-0.5942-0.6681 1.7514z" stroke-width=".95282"/>
</svg>
