<?xml version="1.0" encoding="UTF-8"?>
<svg width="30" height="30" version="1.1" xmlns="http://www.w3.org/2000/svg">
 <path d="m11.656 8.2 0.34375 0.5 4.3125 6.0937-4.6562 6.625-0.375 0.5h3.4688l0.09375-0.1563 3.1562-4.75 0.46875 0.6876 2.6875 4.0624 0.09375 0.1563h3.5l-0.34375-0.5-4.75-6.75 4.4062-5.9687 0.34375-0.5h-3.4062l-0.09375 0.125-2.2188 3.0937c-0.22474 0.3098-0.46392 0.6875-0.71875 1.0625-0.19804-0.3265-0.38173-0.6388-0.65625-1.0625l-2.0312-3.0625-0.09375-0.1562h-3.5312z" color="#000000" stroke-width=".63047"/>
 <path d="m11.351 13.1c0.07344 1.9467-2.043 3.5165-3.8842 2.8895-1.884-0.48977-2.7834-2.967-1.6509-4.5508 0.52982-0.81489 1.4705-1.3365 2.4421-1.3545" fill="none" stroke="currentColor" stroke-linejoin="round" stroke-width="1.293"/>
 <path d="m8.0275 12.161v-3.8792l3.3595 1.9396-1.6798 0.96984z" stroke-width=".9859"/>
</svg>
