<?xml version="1.0" encoding="UTF-8"?>
<svg width="30" height="30" version="1.1" xmlns="http://www.w3.org/2000/svg">
 <path d="m11.656 8.2 0.34375 0.5 4.3125 6.0937-4.6562 6.625-0.375 0.5h3.4688l0.09375-0.1563 3.1562-4.75 0.46875 0.6876 2.6875 4.0624 0.09375 0.1563h3.5l-0.34375-0.5-4.75-6.75 4.4062-5.9687 0.34375-0.5h-3.4062l-0.09375 0.125-2.2188 3.0937c-0.22474 0.3098-0.46392 0.6875-0.71875 1.0625-0.19804-0.3265-0.38173-0.6388-0.65625-1.0625l-2.0312-3.0625-0.09375-0.1562h-3.5312z" color="#000000" stroke-width=".63047"/>
 <path d="m6.1087 10.559h4.4228c0.16519 0 0.29818 0.13299 0.29818 0.29818s-0.13299 0.29818-0.29818 0.29818h-4.4228c-0.16519 0-0.29818-0.13299-0.29818-0.29818s0.13299-0.29818 0.29818-0.29818zm0.038533 2.2683h4.4228c0.16519 0 0.29818 0.13299 0.29818 0.29818s-0.13299 0.29818-0.29818 0.29818h-4.4228c-0.16519 0-0.29818-0.13299-0.29818-0.29818s0.13299-0.29818 0.29818-0.29818zm0 2.2683h4.4228c0.16519 0 0.29818 0.13299 0.29818 0.29818s-0.13299 0.29818-0.29818 0.29818h-4.4228c-0.16519 0-0.29818-0.13299-0.29818-0.29818s0.13299-0.29818 0.29818-0.29818z" stroke="currentColor" stroke-width=".86707"/>
</svg>
