<?xml version="1.0" encoding="UTF-8" standalone="no"?>
<!-- Created with Inkscape (http://www.inkscape.org/) -->

<svg
   xmlns:dc="http://purl.org/dc/elements/1.1/"
   xmlns:cc="http://creativecommons.org/ns#"
   xmlns:rdf="http://www.w3.org/1999/02/22-rdf-syntax-ns#"
   xmlns:svg="http://www.w3.org/2000/svg"
   xmlns="http://www.w3.org/2000/svg"
   xmlns:xlink="http://www.w3.org/1999/xlink"
   xmlns:sodipodi="http://sodipodi.sourceforge.net/DTD/sodipodi-0.dtd"
   xmlns:inkscape="http://www.inkscape.org/namespaces/inkscape"
   width="1600"
   height="1600"
   id="svg2"
   version="1.1"
   inkscape:version="0.92.1 r15371"
   sodipodi:docname="BonsaiGallery.svg"
   inkscape:export-filename="C:\Users\gonca\Documents\Projects\bitbucket\bonsai\Bonsai2.3\Resources\BonsaiGallery.png"
   inkscape:export-xdpi="1.4082111"
   inkscape:export-ydpi="1.4082111">
  <defs
     id="defs4">
    <linearGradient
       id="linearGradient3817">
      <stop
         style="stop-color:#4c2710;stop-opacity:1;"
         offset="0"
         id="stop3819" />
      <stop
         style="stop-color:#2e170a;stop-opacity:1;"
         offset="1"
         id="stop3821" />
    </linearGradient>
    <linearGradient
       id="linearGradient3809">
      <stop
         style="stop-color:#000000;stop-opacity:1;"
         offset="0"
         id="stop3811" />
      <stop
         style="stop-color:#00b200;stop-opacity:1;"
         offset="1"
         id="stop3813" />
    </linearGradient>
    <linearGradient
       inkscape:collect="always"
       xlink:href="#linearGradient3809"
       id="linearGradient3815"
       x1="-628.78992"
       y1="1441.4624"
       x2="-1680.355"
       y2="-606.33649"
       gradientUnits="userSpaceOnUse" />
    <linearGradient
       inkscape:collect="always"
       xlink:href="#linearGradient3817"
       id="linearGradient3823"
       x1="-1231.092"
       y1="1110.484"
       x2="-1426.9924"
       y2="460.91336"
       gradientUnits="userSpaceOnUse" />
    <linearGradient
       inkscape:collect="always"
       xlink:href="#linearGradient3817"
       id="linearGradient3833"
       gradientUnits="userSpaceOnUse"
       x1="-1231.092"
       y1="1110.484"
       x2="-1426.9924"
       y2="460.91336" />
    <linearGradient
       inkscape:collect="always"
       xlink:href="#linearGradient3809"
       id="linearGradient3835"
       gradientUnits="userSpaceOnUse"
       x1="-628.78992"
       y1="1441.4624"
       x2="-1680.355"
       y2="-606.33649" />
    <linearGradient
       inkscape:collect="always"
       xlink:href="#linearGradient3809"
       id="linearGradient3838"
       gradientUnits="userSpaceOnUse"
       x1="-628.78992"
       y1="1441.4624"
       x2="-1680.355"
       y2="-606.33649" />
    <linearGradient
       inkscape:collect="always"
       xlink:href="#linearGradient3817"
       id="linearGradient3841"
       gradientUnits="userSpaceOnUse"
       x1="-1231.092"
       y1="1110.484"
       x2="-1426.9924"
       y2="460.91336" />
    <linearGradient
       inkscape:collect="always"
       xlink:href="#linearGradient3817"
       id="linearGradient3855"
       gradientUnits="userSpaceOnUse"
       x1="-1231.092"
       y1="1110.484"
       x2="-1426.9924"
       y2="460.91336" />
    <linearGradient
       inkscape:collect="always"
       xlink:href="#linearGradient3809"
       id="linearGradient3857"
       gradientUnits="userSpaceOnUse"
       x1="-628.78992"
       y1="1441.4624"
       x2="-1680.355"
       y2="-606.33649" />
    <linearGradient
       inkscape:collect="always"
       xlink:href="#linearGradient3809"
       id="linearGradient3860"
       gradientUnits="userSpaceOnUse"
       x1="-628.78992"
       y1="1441.4624"
       x2="-1680.355"
       y2="-606.33649" />
    <linearGradient
       inkscape:collect="always"
       xlink:href="#linearGradient3817"
       id="linearGradient3873"
       gradientUnits="userSpaceOnUse"
       x1="-1231.092"
       y1="1110.484"
       x2="-1426.9924"
       y2="460.91336" />
    <linearGradient
       inkscape:collect="always"
       xlink:href="#linearGradient3809"
       id="linearGradient3875"
       gradientUnits="userSpaceOnUse"
       x1="-628.78992"
       y1="1441.4624"
       x2="-1680.355"
       y2="-606.33649" />
    <linearGradient
       inkscape:collect="always"
       xlink:href="#linearGradient3809"
       id="linearGradient3878"
       gradientUnits="userSpaceOnUse"
       x1="-628.78992"
       y1="1441.4624"
       x2="-1680.355"
       y2="-606.33649" />
    <linearGradient
       inkscape:collect="always"
       xlink:href="#linearGradient3809"
       id="linearGradient3952"
       gradientUnits="userSpaceOnUse"
       x1="-628.78992"
       y1="1441.4624"
       x2="-1680.355"
       y2="-606.33649" />
    <linearGradient
       inkscape:collect="always"
       xlink:href="#linearGradient3817"
       id="linearGradient4039"
       gradientUnits="userSpaceOnUse"
       x1="-1231.092"
       y1="1110.484"
       x2="-1426.9924"
       y2="460.91336"
       gradientTransform="scale(1.0666667)" />
    <linearGradient
       inkscape:collect="always"
       xlink:href="#linearGradient3809"
       id="linearGradient4041"
       gradientUnits="userSpaceOnUse"
       x1="-628.78992"
       y1="1441.4624"
       x2="-1680.355"
       y2="-606.33649"
       gradientTransform="scale(1.0666667)" />
  </defs>
  <sodipodi:namedview
     id="base"
     pagecolor="#ffffff"
     bordercolor="#666666"
     borderopacity="1.0"
     inkscape:pageopacity="0.0"
     inkscape:pageshadow="2"
     inkscape:zoom="0.50558689"
     inkscape:cx="459.69015"
     inkscape:cy="953.50359"
     inkscape:document-units="px"
     inkscape:current-layer="layer1"
     showgrid="false"
     inkscape:window-width="3000"
     inkscape:window-height="1875"
     inkscape:window-x="-13"
     inkscape:window-y="-13"
     inkscape:window-maximized="1"
     fit-margin-top="0"
     fit-margin-left="0"
     fit-margin-right="0"
     fit-margin-bottom="0"
     units="px" />
  <metadata
     id="metadata7">
    <rdf:RDF>
      <cc:Work
         rdf:about="">
        <dc:format>image/svg+xml</dc:format>
        <dc:type
           rdf:resource="http://purl.org/dc/dcmitype/StillImage" />
        <dc:title></dc:title>
      </cc:Work>
    </rdf:RDF>
  </metadata>
  <g
     inkscape:label="Layer 1"
     inkscape:groupmode="layer"
     id="layer1"
     transform="translate(2408.2256,-78.987457)">
    <rect
       style="opacity:1;fill:#ffffff;fill-opacity:1;fill-rule:nonzero;stroke:#000000;stroke-width:100;stroke-miterlimit:4;stroke-dasharray:none;stroke-opacity:1"
       id="rect875"
       width="1200"
       height="1200"
       x="-2058.2256"
       y="128.98746" />
    <rect
       style="opacity:1;fill:#ffffff;fill-opacity:1;fill-rule:nonzero;stroke:#000000;stroke-width:100;stroke-miterlimit:4;stroke-dasharray:none;stroke-opacity:1"
       id="rect871"
       width="1200"
       height="1200"
       x="-2358.2256"
       y="428.98746" />
    <g
       id="g3956"
       transform="matrix(0.44345071,0,0,0.30413248,-1140.3003,927.53891)">
      <g
         style="stroke:#000000;stroke-width:30;stroke-miterlimit:4;stroke-dasharray:none;stroke-opacity:1"
         id="g3843">
        <path
           inkscape:connector-curvature="0"
           id="path3017"
           d="m -2193.6668,1662.5087 c 0.4963,-2.4815 -0.2643,-4.5868 -3.5646,-9.8667 -2.3075,-3.6916 -6.6297,-11.5747 -9.6048,-17.5182 -2.9751,-5.9433 -7.9336,-14.7413 -11.0189,-19.5511 -6.0557,-9.4401 -13.2157,-25.0482 -14.8281,-32.3233 -4.2672,-19.2537 3.1721,-51.5833 14.5177,-63.0914 5.5317,-5.6111 18.9179,-12.6156 28.6145,-14.973 18.2399,-4.4344 64.0875,-7.3269 93.8666,-5.922 33.0609,1.5597 70.7246,2.667 90.7164,2.667 15.5267,0 18.599,-0.2728 21.0311,-1.868 2.7343,-1.7933 3.0124,-1.7824 6.95,0.2699 3.9018,2.0338 5.7043,2.1174 36.9659,1.7165 l 32.8641,-0.4214 2.6582,-2.8669 c 1.8254,-1.9685 3.3721,-2.6959 4.9364,-2.3213 7.1207,1.7053 10.9832,1.8664 17.0955,0.7131 8.5015,-1.6042 12.6049,-4.0604 16.1408,-9.6617 3.2169,-5.0957 4.7498,-4.6107 6.7733,2.1431 1.9817,6.6147 6.9697,8.3661 11.1192,3.9043 3.3716,-3.6253 9.3961,-7.0656 12.3809,-7.0703 1.597,0 4.0801,-1.5965 6.5789,-4.2232 l 4.0136,-4.2192 1.1039,3.1666 c 2.0619,5.9145 7.0037,5.0751 10.2371,-1.7389 1.7477,-3.6831 1.7463,-5.2871 -0.011,-12.3823 -0.6082,-2.4557 0.019,-3.5377 4.4435,-7.658 5.0664,-4.7189 5.1301,-4.8584 3.8436,-8.416 -0.7194,-1.9898 -1.3081,-3.8765 -1.3081,-4.1928 0,-0.3162 2.5787,-0.8412 5.7305,-1.1665 10.024,-1.0345 17.8149,-6.5913 21.4545,-15.3024 1.7361,-4.1551 2.151,-4.2574 7.0511,-1.7379 5.6945,2.9279 15.3426,2.4862 21.2447,-0.9727 2.6336,-1.5435 5.7022,-3.816 6.8191,-5.0501 2.7103,-2.9948 6.1362,-2.8333 8.9674,0.4228 2.7924,3.2116 3.7957,3.2893 7.5901,0.5874 l 2.92,-2.0792 3.9207,2.7896 3.9208,2.7897 2.3905,-2.2064 c 2.2268,-2.0553 7.1234,-5.0779 13.6851,-8.4476 1.5186,-0.7799 4.3335,-1.7324 6.2552,-2.1168 3.2344,-0.6468 3.4389,-0.5247 2.7508,1.6434 -0.8695,2.7393 0.9753,5.4399 3.716,5.4399 2.4268,0 3.1745,-2.0628 3.2212,-8.8873 0.048,-7.0089 1.6109,-9.7575 8.5762,-15.0835 3.1609,-2.4169 6.7404,-6.3953 8.1842,-9.0959 2.1845,-4.0866 2.4875,-5.8305 2.0389,-11.7333 -0.2898,-3.8133 -0.6867,-7.8933 -0.882,-9.0667 -0.2919,-1.7537 0.3092,-2.1845 3.3783,-2.4212 6.5583,-0.5058 8.6722,-1.3325 11.597,-4.5347 1.5728,-1.7219 5.4868,-4.4614 8.6979,-6.0875 4.8911,-2.4769 6.3144,-3.8962 8.7718,-8.7478 1.6133,-3.1852 2.9407,-7.2652 2.9496,-9.0667 0.02,-4.0343 0.9581,-5.4087 3.6913,-5.4087 1.4156,0 2.4256,-1.0508 3.0759,-3.2 0.5325,-1.76 1.3671,-4.16 1.8547,-5.3334 0.4876,-1.1733 1.0235,-3.5223 1.1908,-5.22 0.2506,-2.5413 1.6237,-3.9095 7.771,-7.7431 4.1067,-2.5609 9.8667,-5.9154 12.8,-7.4542 2.9333,-1.5387 6.8522,-4.1236 8.7085,-5.744 3.316,-2.8946 5.9934,-4.0266 15.0248,-6.3531 3.3355,-0.8592 4.5334,-1.704 4.5334,-3.197 0,-1.1162 -0.4716,-2.3208 -1.0478,-2.6769 -0.6059,-0.3744 0.1422,-2.4459 1.7732,-4.9107 2.0539,-3.1034 3.2817,-4.0524 4.5145,-3.4889 3.2995,1.5079 7.4885,0.6627 10.9684,-2.2131 1.9388,-1.6023 6.405,-4.5913 9.925,-6.6423 5.8495,-3.4083 6.7318,-3.6298 10.2571,-2.5762 6.8858,2.0581 11.4198,1.4786 14.6031,-1.8663 1.5802,-1.6606 5.1482,-3.8584 7.9288,-4.8841 2.7806,-1.0256 5.3289,-2.307 5.663,-2.8475 1.1837,-1.9154 4.4228,-0.9449 5.6206,1.6841 0.6682,1.4667 1.8616,2.6667 2.652,2.6667 1.8359,0 5.3263,-3.8118 7.5889,-8.2877 0.9697,-1.9183 3.7203,-4.9055 6.1124,-6.6384 2.3921,-1.7329 5.135,-4.5628 6.0951,-6.2888 0.9601,-1.7259 3.6185,-5.9387 5.9077,-9.3617 7.8285,-11.7062 8.6315,-16.6426 4.7999,-29.5085 -1.8916,-6.3517 -2.0442,-8.1031 -0.9852,-11.3149 0.6891,-2.0901 1.0962,-5.72 0.9048,-8.0667 -0.2794,-3.4232 -0.8028,-4.3314 -2.6479,-4.5944 -5.6665,-0.8074 -2.9986,-10.7661 4.4436,-16.5874 2.1435,-1.6766 4.7667,-5.0767 5.8293,-7.5557 1.2372,-2.8862 4.8196,-7.1018 9.9606,-11.7213 8.8963,-7.9938 13.8647,-16.4654 15.1378,-25.8116 1.0759,-7.899 1.3399,-8.4128 5.2927,-10.2977 6.8039,-3.2446 19.9083,-22.3922 21.7671,-31.8052 0.8865,-4.4892 1.937,-8.3702 8.7767,-32.4267 9.2482,-32.5275 13.895,-74.34731 10.1336,-91.20001 -3.3147,-14.85141 -6.1661,-21.79274 -18.5471,-45.15114 -9.8701,-18.62123 -13.2116,-23.9855 -16.6849,-26.78454 -9.3544,-7.53856 -35.3295,-24.09909 -46.7351,-29.79626 -10.7106,-5.34998 -13.7366,-7.56459 -28.0079,-20.49835 -18.8351,-17.06955 -30.7123,-26.82165 -39.2673,-32.24149 -12.0174,-7.61323 -14.3469,-9.66059 -19.2209,-16.89334 -2.7063,-4.01589 -12.185,-14.98154 -21.0639,-24.36821 -8.879,-9.38667 -18.1992,-20.18667 -20.7117,-24 -2.5124,-3.81333 -5.5371,-7.808 -6.7214,-8.87712 -1.1842,-1.06912 -2.7071,-3.28107 -3.3841,-4.91541 -0.677,-1.63446 -2.6699,-4.03552 -4.4287,-5.3359 -2.5616,-1.89386 -2.949,-2.66378 -1.9474,-3.87072 1.8671,-2.2497 0.3543,-6.43104 -3.2572,-9.00266 -1.9742,-1.40576 -3.1974,-3.22059 -3.1974,-4.74379 0,-3.80907 -5.0373,-16.30229 -8.7854,-21.78944 -1.8528,-2.71243 -5.878,-7.57717 -8.9449,-10.81067 -8.4914,-8.95285 -14.0085,-26.16288 -12.8355,-40.03946 1.0554,-12.4848 -1.3812,-21.45462 -9.0968,-33.48832 -5.3617,-8.36235 -6.256,-10.3984 -5.2648,-11.9856 0.6568,-1.05152 1.194,-2.60534 1.194,-3.45291 0,-1.72171 -25.7191,-27.94773 -35.8903,-36.59765 -6.5362,-5.55872 -27.5914,-16.19307 -35.3634,-17.86123 -1.9361,-0.41557 -6.4961,-1.99541 -10.1334,-3.51093 -5.6582,-2.35755 -8.6148,-2.81984 -20.4795,-3.20214 -21.5158,-0.69322 -64.6552,4.70198 -88.5334,11.07243 -5.28,1.40864 -14.64,3.79797 -20.8,5.30965 -13.4351,3.29707 -22.2884,6.71478 -23.8639,9.21238 -0.85,1.34762 -0.7856,2.76341 0.2427,5.32906 0.7703,1.9216 1.4801,4.19339 1.5775,5.04843 0.2885,2.53333 -5.7067,4.77024 -12.8896,4.80917 -7.7775,0.0427 -9.1312,2.0751 -2.03,3.04843 6.3229,0.86656 14.451,3.71563 18.2138,6.38411 1.7143,1.21578 5.6994,2.56096 8.8556,2.98933 7.1259,0.96704 8.8273,2.32939 8.8273,7.06869 0,2.55168 1.1393,5.28459 3.6141,8.66934 3.6384,4.9761 7.9476,15.50069 11.1953,27.34293 1.1357,4.14112 3.3722,8.43883 6.3369,12.17675 6.9947,8.8192 7.7849,10.74997 11.962,29.23189 2.9802,13.18528 2.4547,18.3312 -3.3817,33.11029 -6.1262,15.51318 -11.053,21.49568 -23.8872,29.00608 -1.8487,1.08182 -1.8497,1.39371 -0.024,8.13675 4.0322,14.89611 0.5163,29.79648 -9.3616,39.67435 -5.3702,5.37024 -9.4151,7.65333 -22.2479,12.55765 l -8.8721,3.39072 -31.8989,0.31808 c -29.5968,0.29504 -32.2357,0.47648 -36.5687,2.51317 -4.6475,2.18464 -17.5601,5.33515 -22.0022,5.36832 -1.2817,0.0107 -6.1702,-1.88192 -10.8635,-4.20341 -4.6934,-2.32149 -12.1334,-5.26763 -16.5334,-6.54699 -14.1524,-4.11509 -25.9461,-8.89749 -32.2083,-13.06037 -5.0058,-3.32789 -6.4871,-3.85696 -8.2128,-2.93333 -3.5726,1.912 -5.318,1.29536 -9.9969,-3.53142 -2.6051,-2.68757 -6.3203,-5.21952 -8.782,-5.98506 -2.3466,-0.72971 -6.1866,-2.39371 -8.5333,-3.6976 -2.3467,-1.3039 -7.4894,-3.2192 -11.4283,-4.25632 -3.9387,-1.03712 -9.27,-3.22283 -11.8472,-4.85718 -5.764,-3.65546 -6.6343,-3.92352 -17.2578,-5.31573 -20.7922,-2.72469 -23.7183,-3.57685 -28.56,-8.3168 -4.4623,-4.36875 -10.6677,-7.70869 -14.3391,-7.71797 -1.0456,0 -6.4609,-2.16054 -12.0343,-4.7952 -7.5813,-3.5839 -11.4147,-4.79158 -15.2212,-4.7952 -6.5056,-0.0107 -16.4534,-4.03083 -23.9467,-9.68832 -3.187,-2.4063 -7.8833,-5.29888 -10.4358,-6.42806 -3.7082,-1.64021 -4.8956,-2.85397 -5.9066,-6.03733 -0.6958,-2.19147 -3.9666,-9.13408 -7.268,-15.42816 -4.3119,-8.22037 -6.7565,-11.73333 -8.6788,-12.47168 -1.4719,-0.56533 -8.6762,-1.81109 -16.0095,-2.76843 -11.1321,-1.45322 -36.8165,-6.50346 -44.0993,-8.67114 -1.5783,-0.46976 -1.8379,-1.26848 -1.3161,-4.04971 0.4835,-2.57749 -0.039,-4.69717 -2.0403,-8.27808 -2.5694,-4.59701 -2.6197,-5.01323 -1.1212,-9.26048 1.9914,-5.64437 1.0107,-8.35573 -4.6419,-12.83264 -4.1968,-3.32395 -4.5409,-3.40427 -11.6051,-2.70816 -17.6184,1.73611 -33.5724,-7.44277 -41.0217,-23.60096 -1.9766,-4.28747 -2.4197,-7.10336 -2.4203,-15.38165 -7e-4,-8.77067 0.3848,-10.95606 2.8665,-16.25152 3.4419,-7.34411 11.2884,-15.4815 18.1063,-18.7775 2.7354,-1.32245 8.2119,-3.00224 12.17,-3.73269 l 7.1964,-1.32821 1.7692,-6.46358 c 2.129,-7.77728 6.05,-14.68213 10.8667,-19.13589 5.8316,-5.39232 20.2489,-14.8784 25.8367,-16.99968 3.9013,-1.48107 6.1411,-3.27147 8.9042,-7.11744 2.0304,-2.82613 4.7248,-5.35787 5.9874,-5.62603 1.2626,-0.26805 7.8158,-0.64693 14.5625,-0.84181 10.1387,-0.29301 13.0479,-0.76363 16.7703,-2.71328 6.9546,-3.64245 11.6898,-8.35488 14.6207,-14.55019 2.4024,-5.07829 3.1514,-5.77866 7.2969,-6.8225 5.3018,-1.33494 13.5787,-6.92438 13.5787,-9.16971 0,-0.86283 -2.5507,-2.47104 -5.916,-3.73013 -10.1508,-3.79798 -13.7031,-6.09782 -17.2741,-11.18411 -3.726,-5.30688 -11.2474,-10.67979 -17.3064,-12.36309 -2.0736,-0.57611 -12.291,-1.05014 -22.7053,-1.05334 l -18.9351,-0.0107 -3.925,-5.46336 c -2.1589,-3.00491 -6.1072,-7.04694 -8.7742,-8.98251 -2.8438,-2.06368 -7.507,-7.41376 -11.2758,-12.93653 -4.6332,-6.78976 -8.039,-10.49568 -12.2056,-13.28118 -6.4702,-4.32554 -6.322,-3.97962 -11.3652,-26.53642 -3.3678,-15.06294 -2.99,-22.06336 1.708,-31.64982 4.1203,-8.40778 12.7571,-16.45888 20.941,-19.52085 3.3143,-1.24 9.7545,-2.54208 14.3116,-2.89355 l 8.2858,-0.63893 5.4593,-5.61696 c 8.1949,-8.43147 18.1319,-12.21323 32.0919,-12.21323 3.4888,0 9.1052,-0.91584 12.4809,-2.0352 3.3757,-1.11925 7.4336,-2.32245 9.0177,-2.6736 2.4572,-0.54474 3.1469,-1.58954 4.6974,-7.11552 2.0969,-7.47338 14.1111,-26.4385 20.2991,-32.0433 2.1853,-1.97952 6.6471,-6.13366 9.9151,-9.23147 3.2678,-3.09781 8.9489,-7.06069 12.6245,-8.80629 5.9986,-2.84896 6.9422,-3.74678 9.2146,-8.76758 3.7604,-8.30848 7.05,-12.10272 17.9621,-20.71776 14.9973,-11.8401 21.6716,-13.66037 42.5844,-11.61322 8.0385,0.78688 10.4726,0.58848 18.6666,-1.5216 l 9.4227,-2.42656 10.1334,4.04277 c 6.4759,2.58368 12.8564,4.30987 17.6784,4.78261 4.1497,0.40694 9.6697,1.48608 12.2666,2.3983 13.8139,4.85205 38.3558,5.96714 47.0165,2.1361 6.6326,-2.93397 12.2816,-8.20629 15.6197,-14.57834 2.3917,-4.56555 2.8442,-6.78699 2.8442,-13.96267 0,-7.16683 -0.4512,-9.38741 -2.8175,-13.86667 -6.1866,-11.71093 -14.7452,-16.54421 -30.0028,-16.94357 -8.1343,-0.2128 -10.8981,-0.76192 -16.206,-3.21963 -5.017,-2.32298 -8.1376,-2.99978 -14.4482,-3.13322 -10.0414,-0.21238 -14.4269,-2.49334 -13.326,-6.931203 1.9045,-7.6768 1.8838,-8.50112 -0.242,-9.63872 -1.2654,-0.677334 -2.3634,-2.72544 -2.767,-5.1616 -0.3679,-2.221334 -2.2321,-6.67872 -4.1425,-9.905387 -1.9104,-3.226667 -4.2013,-8.986667 -5.0908,-12.8 l -1.6174,-6.933333 -5.1238,-0.533334 -5.124,-0.533333 3.9914,-4.650453 c 3.4643,-4.036587 3.8191,-4.926294 2.6868,-6.739414 -0.8474,-1.3568 -1.0518,-3.7744 -0.5834,-6.898346 0.6488,-4.326294 0.9633,-4.748694 3.1309,-4.204587 2.3592,0.592107 2.4184,0.3856 2.8302,-9.868693 0.369,-9.185814 0.8472,-11.339627 3.8896,-17.519787 5.8099,-11.8016 21.7892,-23.79168 36.8801,-27.673067 4.0387,-1.03872 8.073,-2.493973 8.9649,-3.233813 1.0254,-0.85056 4.9671,-1.345173 10.7197,-1.345173 h 9.0979 l 1.321,-7.1152 c 0.7265,-3.91328 1.8382,-8.081707 2.4705,-9.263147 2.0241,-3.781973 1.2716,-5.646293 -4.5312,-11.22592 -7.0608,-6.78944 -17.5221,-26.401493 -15.1381,-28.380053 1.0828,-0.898667 1.1687,-2.089814 0.3614,-5.013547 -0.5943,-2.152853 -0.834,-10.43573 -0.5463,-18.88512 0.7943,-23.33152 4.8658,-31.08661 22.5341,-42.92096 4.7317,-3.16928 11.5593,-8.03488 15.1726,-10.81248 8.9912,-6.91189 21.0244,-13.58859 28.2284,-15.66272 4.1504,-1.19488 10.8242,-1.77536 21.6663,-1.88448 17.606,-0.17707 17.6691,-0.2064 17.6691,-8.20832 0,-3.42261 -0.5502,-4.67264 -2.6667,-6.05952 -1.4666,-0.96096 -2.6666,-2.63531 -2.6666,-3.72075 0,-4.93024 14.8181,-16.09034 26.8453,-20.21834 2.7384,-0.93974 6.6269,-2.96587 8.6412,-4.5023 2.1366,-1.62965 4.9529,-2.7568 6.7598,-2.70538 4.2351,0.12032 7.9045,-1.14944 11.1454,-3.85696 1.4987,-1.25206 6.4071,-3.14454 10.9074,-4.20555 l 8.1824,-1.92896 4.9433,3.55147 c 4.54,3.26176 5.6955,3.58069 14.1593,3.9088 8.4148,0.32618 22.8433,-2.16875 26.8449,-4.64182 0.5707,-0.35274 1.0376,-4.2368 1.0376,-8.63136 0,-5.01557 0.5956,-9.14165 1.5998,-11.08373 0.8799,-1.70155 2.1401,-5.63765 2.8005,-8.74699 0.6602,-3.10933 2.1174,-7.61728 3.2381,-10.01781 2.5191,-5.3952 12.0198,-16.9824 20.963,-25.56651 6.6373,-6.37066 6.7068,-6.49685 4.8,-8.70776 -2.1544,-2.49816 -23.8951,-11.26829 -28.068,-11.32263 -1.4667,-0.0191 -3.3365,0.1744 -4.155,0.43 -1.5763,0.49222 -4.0111,-2.542 -13.3893,-16.68589 -9.713,-14.64875 -10.9919,-22.46159 -6.9705,-42.58273 2.4783,-12.40079 3.4685,-15.16834 8.014,-22.4 6.0402,-9.60481 11.1674,-18.43536 11.1674,-19.22869 0,-0.42817 1.7227,-3.17625 3.8281,-6.10683 4.7007,-6.54301 5.9038,-9.87761 9.3748,-25.9829 4.2335,-19.64328 4.5414,-23.43921 2.0109,-24.79345 -1.5717,-0.84116 -2.2666,-2.67901 -2.7613,-7.30371 -0.3636,-3.39885 -1.5141,-8.76102 -2.5568,-11.91593 -1.7444,-5.27858 -2.4488,-6.06042 -8.829,-9.80008 -13.7872,-8.08117 -25.2464,-16.66183 -35.8755,-26.86372 l -10.8356,-10.4 h -29.9777 c -27.3342,0 -32.4828,0.4593 -29.035,2.59012 2.0098,1.24212 5.7944,11.08919 6.9989,18.20988 l 1.263,7.46667 5.8057,0.63194 c 3.1932,0.34756 7.722,1.24388 10.0643,1.99183 6.8565,2.1895 19.8299,9.8353 24.3218,14.33401 l 4.1515,4.15778 -0.7505,7.04222 c -0.9589,8.99761 -1.5426,9.99251 -8.4576,14.41601 -3.553,2.27279 -8.1954,6.8443 -12.2098,12.02315 -3.5624,4.59581 -8.1527,9.25835 -10.2005,10.3612 -2.864,1.54236 -4.1251,3.21451 -5.4636,7.24438 -4.6742,14.07262 -18.2078,24.74393 -33.1506,26.13931 -6.4866,0.60573 -7.498,1.05991 -12.9135,5.79895 -7.8193,6.84245 -15.558,9.7531 -25.8686,9.72953 -8.9551,-0.0205 -14.7918,-1.78817 -22.7356,-6.88561 -4.752,-3.04938 -5.9667,-3.34452 -13.3788,-3.2506 -4.4838,0.0568 -10.3123,0.60815 -12.9523,1.2252 -6.1318,1.43317 -14.286,1.43363 -19.7333,10e-4 -2.3467,-0.61711 -16.9867,-1.2919 -32.5334,-1.49954 -30.2319,-0.40376 -33.4483,-0.89429 -41.7375,-6.36532 -2.1289,-1.40515 -6.8905,-3.10242 -10.5814,-3.7717 -13.4049,-2.43072 -20.7147,-7.86616 -31.9477,-23.75579 -10.2754,-14.53502 -11.9734,-23.95363 -7.638,-42.36801 2.9282,-12.43724 3.9333,-15.09726 8.262,-21.86667 2.6744,-4.18227 3.5437,-6.90591 4.0278,-12.61972 0.5361,-6.32792 4.4568,-19.5242 9.3113,-31.3404 1.3235,-3.2216 1.2129,-3.6687 -1.8485,-7.46667 -4.7133,-5.84769 -7.0277,-6.67304 -18.7615,-6.69082 -19.1399,-0.029 -30.8695,-2.62182 -50.4198,-11.14536 -7.6267,-3.32508 -15.6075,-6.78737 -17.7351,-7.69399 -11.3693,-4.84463 -45.1021,-41.23807 -50.1613,-54.11787 -5.2644,-13.40235 -3.9377,-21.67068 7.2495,-45.18056 5.253,-11.03895 14.8496,-17.99412 30.4719,-22.08464 3.9371,-1.03087 7.6388,-2.45323 8.226,-3.1608 0.7375,-0.88859 0.1919,-3.41221 -1.7641,-8.15949 -2.6019,-6.31499 -2.8149,-7.95315 -2.6227,-20.1769 0.1151,-7.31714 0.4527,-14.07087 0.7502,-15.00829 0.2976,-0.93742 3.1124,-2.77022 6.2554,-4.07289 12.2068,-5.05943 19.6503,-14.98662 18.3856,-24.52036 -0.8884,-6.69669 1.0235,-16.58116 4.4204,-22.85358 5.6373,-10.40922 17.918,-18.94158 29.5909,-20.55889 4.6714,-0.64725 6.1578,-1.54944 11.9781,-7.27029 3.6547,-3.59225 7.2179,-7.97446 7.9182,-9.73824 1.3422,-3.38054 11.4283,-18.50215 15.2112,-22.80557 2.3486,-2.67167 14.8746,-12.9373 17.8325,-14.61463 0.957,-0.54269 5.8485,-5.3891 10.8698,-10.76982 6.927,-7.42286 9.4149,-10.89699 10.312,-14.4 0.6502,-2.53928 2.546,-8.93688 4.2128,-14.21688 4.2835,-13.56973 4.4843,-15.49524 2.6329,-25.25464 -2.1213,-11.1827 -1.4682,-41.31696 1.0709,-49.41203 0.9201,-2.93333 2.1987,-8.21336 2.8415,-11.73336 1.3264,-7.2641 5.6786,-20.3418 7.5001,-22.5366 0.668,-0.8048 2.1395,-1.4634 3.2702,-1.4634 3.4482,0 8.3498,-3.1047 8.3498,-5.2888 0,-2.1065 1.0194,-2.6013 7.6649,-3.7202 2.1624,-0.3641 6.946,-2.6749 10.6301,-5.1351 6.5244,-4.3567 7.0461,-4.5067 20.0684,-5.768 10.6635,-1.0329 15.3966,-2.0636 23.3817,-5.0915 8.3867,-3.1801 11.3734,-3.7964 18.4,-3.7964 6.966,0 8.7499,0.3617 10.5215,2.1334 3.0368,3.0367 4.8831,2.6497 6.3596,-1.3334 0.7068,-1.9066 1.7475,-4.3361 2.3128,-5.3989 0.5652,-1.0627 1.9341,-4.6627 3.0422,-8 5.4039,-16.2762 7.5359,-21.8945 9.5025,-25.0421 2.3794,-3.8084 15.6565,-16.9478 21.4496,-21.2271 6.2373,-4.6075 19.0388,-9.3985 25.1128,-9.3985 3.1086,0 7.211,-0.8564 9.6202,-2.0081 2.3102,-1.1045 5.8803,-2.3485 7.9337,-2.7644 2.0533,-0.416 6.8533,-1.618 10.6666,-2.6712 13.6299,-3.7641 26.417,-5.6894 32.2771,-4.8594 13.179,1.8665 104.7277,2.6164 109.2145,0.8947 2.0648,-0.7923 4.6418,-6.0004 4.6418,-9.3812 0,-1.5191 0.9014,-4.543 2.0032,-6.7196 1.1016,-2.1766 2.3317,-5.6375 2.7333,-7.6908 1.5953,-8.1563 2.6545,-9.6 7.0431,-9.6 3.4423,0 4.6468,-0.6841 7.9817,-4.5334 2.1601,-2.4933 4.645,-6.2133 5.5219,-8.2666 6.5426,-15.3192 9.0557,-17.6057 21.5325,-19.591 4.7513,-0.756 8.9875,-1.7233 9.4136,-2.1495 0.4261,-0.4262 0.7889,-6.3889 0.8061,-13.2505 0.028,-11.0516 0.3302,-13.0845 2.6508,-17.809 3.9638,-8.0704 13.1819,-16.7675 20.855,-19.6763 10.8725,-4.1216 17.3133,-4.0338 31.4588,0.429 6.7466,2.1285 13.9466,4.7332 16,5.7882 2.0533,1.0549 5.0244,2.2367 6.6023,2.6261 1.9981,0.493 3.7379,2.3043 5.7311,5.9664 2.4165,4.4401 3.7576,5.622 8.6165,7.5941 12.3802,5.0248 20.6895,14.1671 22.6844,24.9589 1.313,7.102 4.0207,12.0212 12.0626,21.9136 7.0361,8.6551 16.2893,13.8521 24.7353,13.8927 2.9889,0.014 7.4684,0.4954 9.9542,1.069 5.1094,1.179 23.2347,9.6322 27.0821,12.6305 1.3923,1.085 4.0915,2.773 5.9981,3.751 1.9067,0.978 3.4667,2.558 3.4667,3.5112 0,0.9531 1.3019,4.3939 2.8931,7.6461 2.3523,4.808 2.9745,7.7762 3.329,15.879 0.4191,9.5831 0.5475,10.0234 3.3457,11.4705 1.6005,0.8276 5.2625,2.0784 8.1377,2.7795 5.5445,1.3521 7.7365,2.342 21.1449,9.5492 10.2136,5.4901 27.6488,22.1766 31.2484,29.9065 3.1561,6.7776 4.7337,16.5122 4.9322,30.4344 0.1674,11.7437 0.1321,11.9249 -3.836,19.6673 -3.012,5.8767 -3.6732,8.025 -2.6667,8.664 2.1742,1.3804 11.6016,0.9817 17.2412,-0.7291 7.1389,-2.1657 12.6673,-2.0151 15.6834,0.4272 2.2828,1.8484 3.9202,1.9684 19.7372,1.4459 16.4563,-0.5435 17.3968,-0.4637 20.4918,1.7401 6.3644,4.5319 11.6475,5.6476 28.4514,6.0085 8.8,0.189 16.8077,0.3841 17.7948,0.4334 0.9871,0.049 2.1287,1.1417 2.5368,2.4274 0.4081,1.2858 2.6249,4.71993 4.9264,7.63148 5.2604,6.65499 6.53,9.72183 10.0844,24.36047 2.7731,11.42093 2.8288,12.2495 1.6997,25.27255 -0.6421,7.40547 -0.9046,15.67527 -0.5833,18.37731 0.6834,5.74912 -0.9563,14.34821 -3.8018,19.93794 -8.2464,16.19934 -10.127,19.42168 -13.2337,22.67576 -4.1454,4.34208 -17.7145,15.68497 -21.5406,18.00653 -1.4755,0.89525 -2.6827,1.9941 -2.6827,2.44188 0,0.44778 2.28,1.85959 5.0667,3.13737 3.1475,1.44322 8.501,5.81463 14.1333,11.54065 4.9867,5.06959 11.2839,10.86053 13.9939,12.86874 4.6352,3.43492 10.8756,10.97456 18.7143,22.61026 2.1782,3.23342 4.0705,8.05542 5.2321,13.33333 1.0009,4.54743 3.4556,13.30806 5.455,19.46806 3.5322,10.88187 3.6302,11.65446 3.4493,27.2 -0.1024,8.8 0.1678,17.32 0.6003,18.93333 0.6094,2.27332 0.4157,2.93333 -0.8611,2.93333 -0.9061,0 -3.6824,2.90097 -6.1696,6.44661 -5.1818,7.38729 -11.9319,12.68459 -19.6142,15.39273 -5.4303,1.9143 -14.4,10.12772 -14.4,13.1859 0,1.90726 7.3019,0.9831 16.9215,-2.14166 5.3378,-1.7339 8.667,-2.1064 15.5821,-1.74345 12.3961,0.65063 17.5956,3.48148 31.4964,17.14798 10.5492,10.37133 19.3488,16.63417 33.6,23.91339 2.3467,1.19864 7.7855,3.99014 12.0864,6.20334 4.3008,2.21319 10.0608,6.25613 12.8,8.98429 2.7391,2.72817 8.9338,8.68445 13.7659,13.23619 l 8.7855,8.27587 27.5751,-0.31726 27.5752,-0.31726 5.9414,-5.43205 c 3.2679,-2.98763 7.7856,-6.27998 10.0394,-7.31633 2.2538,-1.03636 5.4915,-2.55193 7.195,-3.36795 4.4442,-2.12894 40.8161,-2.10563 45.9261,0.0294 6.3139,2.63813 23.3212,4.19424 36.2006,3.31222 19.17173,-1.31292 40.29867,-1.5272 45.21675,-0.4586 20.2529,4.40064 34.06965,24.67531 30.37066,44.56589 -0.64096,3.44627 -2.16565,8.33643 -3.38826,10.86702 -2.82262,5.84202 -2.7935,6.53907 0.4897,11.74009 1.49206,2.36353 3.16022,5.474 3.70699,6.91214 0.92587,2.43533 1.52672,2.61924 8.75381,2.67937 4.26795,0.0355 18.55979,0.17839 31.75979,0.3175 36.47008,0.38434 49.72245,3.55209 60.56832,14.47778 2.76747,2.78775 6.33525,5.90915 7.92843,6.93643 2.77962,1.79229 3.01674,1.78398 5.86666,-0.20563 1.6335,-1.14038 5.30571,-2.9513 8.16054,-4.02429 2.85482,-1.07297 9.03093,-4.52136 13.7248,-7.66309 12.0448,-8.06207 14.60053,-8.9391 28.55125,-9.79784 10.13024,-0.62359 13.03157,-1.19936 16.65867,-3.306 l 4.3921,-2.55091 6.408,2.87574 c 6.06678,2.72262 7.28555,2.87575 22.88779,2.87575 14.77653,0 17.29013,0.2756 24.32011,2.66666 4.31221,1.46667 9.07626,2.67541 10.58688,2.68608 1.5105,0.0107 4.88,1.46502 7.48778,3.23188 2.60768,1.76685 5.96768,3.4558 7.46667,3.75322 8.20117,1.62728 7.91893,1.24817 8.28779,11.13537 0.30016,8.0486 0.8097,10.01282 4.56448,17.59345 6.00736,12.12844 7.10912,17.82873 5.54165,28.6699 -0.69771,4.82578 -1.26859,10.13227 -1.26859,11.79219 0,3.26018 -5.32138,19.60888 -8.80949,27.06517 -1.52075,3.25078 -3.80181,5.65115 -7.80192,8.21001 -3.10912,1.98886 -6.18208,4.60497 -6.82891,5.81359 -0.64693,1.20863 -4.4817,3.86218 -8.52181,5.89677 -4.04021,2.03459 -7.67915,4.23858 -8.08651,4.89775 -0.42901,0.69422 1.5728,3.22226 4.75766,6.00836 8.68149,7.59433 11.67136,15.07104 9.24757,23.12485 -1.32747,4.41075 -1.29771,5.1669 0.27883,7.09268 1.70154,2.07855 2.4657,2.12592 21.38485,1.32549 15.74912,-0.66631 19.78763,-1.14577 20.46901,-2.43009 0.46699,-0.88 2.03488,-4.32407 3.48427,-7.65349 1.44939,-3.32942 4.59829,-8.1831 6.99755,-10.78595 2.39925,-2.60285 4.36224,-5.23367 4.36224,-5.84624 0,-0.61258 2.24021,-1.87709 4.97824,-2.81004 2.73802,-0.93294 5.75146,-2.39604 6.69653,-3.25133 1.80235,-1.63108 14.63595,-8.99486 21.92523,-12.58041 2.34666,-1.15431 5.70666,-3.44725 7.46666,-5.09541 1.76,-1.64816 5.17536,-3.51837 7.58976,-4.15601 2.4143,-0.63764 6.20032,-2.59825 8.41334,-4.35691 4.61888,-3.67065 5.29216,-3.77309 10.49909,-1.59754 3.03531,1.26823 9.08939,1.60339 29.19691,1.61633 13.9521,0.009 25.91914,0.36898 26.59338,0.8 0.67414,0.43102 1.39414,1.97918 1.6,3.44034 0.48758,3.46151 4.65803,5.41662 13.66294,6.4051 16.05152,1.76201 28.09162,11.20855 33.80394,26.52223 1.01547,2.72213 3.584,7.82933 5.70806,11.34933 5.70378,9.4529 5.95712,9.92818 10.2305,19.2 2.1632,4.69333 5.57227,13.52693 7.57579,19.63022 3.57003,10.87515 3.63221,11.37604 3.1168,25.06667 -0.67051,17.81191 -2.34123,31.4273 -4.56213,37.1797 -1.92427,4.98378 -9.45398,15.72341 -11.024,15.72341 -0.54635,0 -3.44843,2.95019 -6.44918,6.55584 -3.7584,4.51627 -5.28618,7.2048 -4.9104,8.64149 0.3312,1.26646 -0.62325,3.69867 -2.43018,6.19307 -1.63648,2.25909 -3.60096,6.34144 -4.36544,9.07189 -0.99936,3.56939 -3.16512,6.80608 -7.7072,11.51776 -3.47446,3.60427 -8.26603,8.58347 -10.64768,11.06475 -2.38176,2.48139 -6.5424,5.56341 -9.24576,6.84896 -2.70336,1.28565 -6.8352,3.62133 -9.18187,5.1904 -2.34667,1.56917 -6.61451,3.73824 -9.48416,4.82027 -5.22347,1.96949 -12.09803,6.9985 -22.99851,16.8241 -3.19882,2.88331 -8.95882,6.80288 -12.8,8.71008 -16.67082,8.27734 -23.88234,13.17718 -26.31392,17.87926 -2.21077,4.27509 -0.77632,5.65034 7.96747,7.63914 9.84011,2.23808 29.03723,11.41568 34.56544,16.5248 2.49163,2.30283 5.95691,6.56384 7.70037,9.46891 1.74358,2.90507 4.62358,6.14891 6.4,7.20853 9.77206,5.82859 14.42006,7.77504 20.03243,8.38891 12.19872,1.33419 20.72277,6.35083 29.49749,17.36021 l 5.57014,6.988697 0.19829,11.351467 c 0.22027,12.610773 -1.31275,18.429653 -6.94741,26.3696 l -3.088,4.351467 1.09248,9.5152 c 1.72874,15.056106 4.65109,24.234986 9.57504,30.07456 14.90656,17.6785063 12.28234,43.23296 -5.85632,57.02944 -6.73323,5.12128 -12.8047,7.210773 -23.17856,7.97664 l -8.3343,0.61536 -3.53237,5.44288 c -1.94283,2.993706 -5.32469,7.122986 -7.51531,9.17632 -2.19061,2.053333 -5.06506,5.413333 -6.38784,7.466666 -4.30176,6.67808 -15.46272,12.09632 -29.62912,14.384 l -4,0.645974 v 7.75808 c 0,13.741869 -1.91797,17.884909 -17.73994,38.320639 -4.95275,6.39691 -8.82155,12.80181 -11.08918,18.35797 -3.61258,8.85195 -3.90613,11.57014 -3.11093,28.8 0.8672,18.78838 -9.93707,33.17728 -29.61963,39.44704 -4.83082,1.53888 -9.13888,3.3728 -9.57344,4.07542 -0.43456,0.70261 -0.65034,4.63754 -0.47946,8.74421 0.40768,9.80416 -3.24118,27.96192 -7.0111,34.88843 -3.90986,7.18368 -12.83402,15.12277 -20.02282,17.81237 -3.21163,1.20171 -10.77003,2.66923 -16.79648,3.26112 -6.02635,0.592 -13.59702,1.79701 -16.82368,2.67787 -3.22667,0.88085 -8.91435,1.60725 -12.63926,1.61418 -5.84778,0.0107 -7.59552,0.51808 -12.8,3.71424 -3.31509,2.03595 -9.11018,4.4848 -12.87797,5.44214 -3.76768,0.95733 -9.22731,3.37546 -12.13227,5.37376 -5.02538,3.45685 -11.73504,5.89834 -19.95541,7.26122 -6.67371,1.10646 -15.06475,7.28128 -29.29301,21.55616 -13.80342,13.84854 -14.10699,14.07467 -27.79563,20.70742 -10.64064,5.15584 -15.09419,7.97589 -19.26656,12.19968 -9.51008,9.6272 -22.46592,13.83232 -34.83989,11.30794 -3.66667,-0.74805 -7.98198,-1.60661 -9.58966,-1.90784 -2.24373,-0.42048 -3.84373,0.26059 -6.88469,2.93056 -2.17888,1.91307 -6.62357,4.72694 -9.87701,6.25291 l -5.91531,2.77451 -52.27531,0.14528 c -34.54154,0.096 -53.71978,0.54624 -56.53333,1.32736 -6.39403,1.77514 -18.4048,1.39626 -24.6997,-0.7792 -7.0667,-2.44214 -14.1194,-7.86646 -18.6478,-14.3423 -3.3938,-4.85322 -4.1642,-5.74218 -7.8809,-9.09397 -0.8596,-0.77525 -1.563,-2.56555 -1.563,-3.97845 0,-1.41291 -0.7898,-4.54283 -1.7552,-6.95542 -1.9479,-4.86858 -1.8194,-4.85152 -12.7652,-1.69333 -4.3953,1.26816 -13.5035,1.56971 -46.9333,1.55403 -28.9689,-0.0139 -43.5064,0.38272 -48.1996,1.31413 -12.2141,2.42411 -23.4183,0.15221 -32.929,-6.67723 -4.7522,-3.41248 -17.1857,-20.18133 -20.0544,-27.04704 -1.9004,-4.54837 -4.1962,-23.09376 -4.0358,-32.60074 0.066,-3.92576 1.091,-8.38816 2.9392,-12.8 1.7227,-4.11222 3.1859,-10.21664 3.7245,-15.53803 1.4872,-14.69579 5.0051,-20.35563 21.907,-35.24565 3.5027,-3.08576 9.4199,-7.06944 13.1494,-8.8527 7.5081,-3.58965 7.2031,-2.50261 3.873,-13.80341 -2.0295,-6.88672 -1.5547,-16.47072 1.1679,-23.57429 3.4537,-9.01184 21.6346,-30.33888 32.6908,-38.34795 6.8126,-4.93493 13.2564,-6.29525 30.9978,-6.54368 15.6803,-0.21952 19.1604,-1.04032 17.284,-4.07659 -1.0215,-1.65269 -24.0338,-18.58848 -33.5944,-24.72362 -8.209,-5.26774 -11.318,-6.07755 -14.8541,-3.86912 -1.6948,1.05834 -2.6495,0.78848 -5.8522,-1.6543 -2.1049,-1.60544 -3.827,-3.38069 -3.827,-3.944849 0,-1.327787 -11.664,-6.501014 -12.9148,-5.728 -0.5235,0.32352 -0.9519,3.194773 -0.9519,6.380589 0,6.86677 -2.2043,13.08608 -8.4877,23.94848 -5.9322,10.25514 -12.4565,16.54602 -21.2804,20.51914 -3.8675,1.74144 -7.7519,3.8015 -8.6319,4.57782 -1.3395,1.18154 -3.2499,0.93173 -11.7333,-1.53483 -5.5734,-1.62037 -11.703,-3.76203 -13.6215,-4.75925 -4.1403,-2.15222 -10.6872,-8.51435 -17.3119,-16.82336 -3.6737,-4.60768 -6.4416,-6.78859 -11.7959,-9.29408 -4.3299,-2.02624 -9.0044,-5.352 -12.2667,-8.72736 -2.9187,-3.01995 -7.7634,-6.57835 -10.8569,-7.9743 -3.0725,-1.386449 -7.1604,-3.721489 -9.0842,-5.188903 -2.2108,-1.686293 -5.9787,-3.06752 -10.2391,-3.753706 -3.7077,-0.59712 -8.2598,-2.055467 -10.1159,-3.240854 -1.856,-1.185386 -6.7346,-3.8304 -10.8413,-5.877866 -9.4487,-4.710827 -14.4474,-8.85152 -18.806,-15.578134 -1.898,-2.92896 -3.9331,-5.164586 -4.5224,-4.968213 -0.5893,0.19648 -1.526,1.767253 -2.0815,3.49056 -1.4863,4.61152 -2.5074,5.568533 -11.5437,10.818987 -4.5255,2.629546 -8.498,5.484053 -8.8278,6.343466 -1.6131,4.203734 3.7255,18.617283 11.227,30.311363 2.9731,4.63477 6.0143,10.71424 6.7583,13.50986 0.744,2.79563 4.4833,11.32299 8.3096,18.94966 9.5151,18.96576 15.1274,32.4208 21.1338,50.66666 6.7702,20.56672 7.8658,29.90422 7.1128,60.62326 -0.654,26.6848 -2.4392,40.72992 -6.567,51.66773 -2.4515,6.49589 -2.7264,8.73419 -2.7264,22.19723 v 14.9728 l -5.2136,5.53621 c -2.8676,3.0448 -6.1076,7.28032 -7.2,9.41227 -1.0925,2.13184 -4.0264,6.55136 -6.5197,9.82112 -3.3246,4.35989 -4.5334,6.93397 -4.5334,9.6544 0,4.87968 -1.3908,8.37568 -6.4113,16.11498 -2.2834,3.52 -5.6983,10.23392 -7.5888,14.9199 -4.8411,11.99978 -6.6482,14.69216 -13.3094,19.83136 -6.5465,5.05045 -10.2014,10.6497 -12.0931,18.52608 -1.107,4.60906 -2.4312,6.36522 -10.4555,13.86666 -8.0664,7.54091 -9.7589,9.7936 -13.8661,18.456 -4.6728,9.85547 -4.6827,9.86667 -8.6731,9.86667 -2.1972,0 -4.9076,0.66741 -6.0232,1.4832 -1.7084,1.24917 -1.8376,1.90176 -0.819,4.13739 1.0722,2.35328 0.7384,3.28128 -2.943,8.18069 -3.9179,5.2144 -6.3315,11.03115 -6.3448,15.29205 -0.013,3.92747 -7.3744,16.51627 -11.6301,19.88683 -6.2131,4.92085 -9.5337,12.49952 -10.3198,23.55317 -0.4845,6.81238 -0.2357,10.19232 1.0001,13.59392 1.5328,4.21878 1.5044,4.8367 -0.4156,9.06667 -1.1332,2.49675 -2.071,6.34955 -2.0838,8.56192 -0.024,4.25685 3.2715,17.28139 6.4058,25.31083 1.0305,2.64 2.4619,8.4 3.1809,12.8 1.562,9.5601 2.3478,11.24309 6.1732,13.22133 2.107,1.0896 3.2879,2.8848 4.2406,6.44704 1.1143,4.16597 3.0756,6.63019 12.5611,15.78112 6.1823,5.96427 13.7398,12.64096 16.7945,14.83712 3.0546,2.19616 7.9538,6.19435 10.8871,8.88501 5.6942,5.22294 41.8139,31.49504 43.3004,31.49504 1.0423,0 18.5731,14.03051 36.7337,29.39936 16.7093,14.14048 45.6275,42.19734 48.6582,47.20875 1.3056,2.15883 4.4186,6.56523 6.9178,9.79189 7.5896,9.79851 11.7438,21.24406 23.3548,64.34582 3.2911,12.21685 7.6648,26.13685 9.7193,30.93333 2.0546,4.79648 4.6256,13.04128 5.7135,18.32181 1.0879,5.28054 3.2541,12.96054 4.8138,17.06667 10.7203,28.22272 11.2185,32.04597 5.7877,44.41963 -4.5011,10.25514 -5.9363,27.77238 -4.1816,51.03698 0.6863,9.0983 1.8773,25.9025 2.6468,37.3425 0.8822,13.1127 2.0108,22.3768 3.0539,25.0666 1.3231,3.4114 1.6641,9.3328 1.7015,29.5409 l 0.047,25.2743 3.8037,8.3257 c 2.0922,4.5792 4.5465,11.9258 5.454,16.3258 0.9076,4.4 2.1302,8.96 2.7169,10.1333 2.6335,5.2673 10.9938,16.7932 15.8698,21.8787 5.0233,5.2393 5.2758,5.7664 4.2165,8.8051 -1.4039,4.0269 -0.1077,5.866 4.455,6.3212 2.9842,0.2979 3.5739,1.0232 6.3367,7.795 1.6755,4.1067 2.9859,8.4267 2.9121,9.6 -0.074,1.1734 -0.081,2.7441 -0.016,3.4905 0.1761,2.0244 8.6235,10.8543 13.083,13.6752 4.9921,3.158 13.6961,15.9891 13.718,20.2228 0.027,5.1156 1.4599,6.5273 5.1955,5.1172 3.4366,-1.2971 6.1891,0.1426 20.3882,10.6654 3.2267,2.3913 6.0674,4.4867 6.3128,4.6566 0.2453,0.1699 -0.1954,1.5075 -0.9794,2.9723 -1.9683,3.6777 -0.6793,4.4351 3.6132,2.1234 3.4925,-1.8808 3.8954,-1.8831 10.9397,-0.063 4.0225,1.0396 9.1275,2.2592 11.3443,2.7103 2.2169,0.4511 4.9769,1.6765 6.1334,2.7232 1.9594,1.7733 2.2355,1.7827 4.0533,0.1376 2.9893,-2.7053 6.0493,-2.1212 9.5046,1.8142 2.6532,3.0219 3.2437,4.7813 3.7895,11.2919 0.6083,7.2554 1.931,10.7286 4.0858,10.7286 1.9491,0 5.1341,-4.3172 6.2543,-8.4772 1.2971,-4.8169 1.7197,-5.0378 5.1028,-2.6682 l 2.3622,1.6545 -2.2284,3.0142 c -1.2257,1.6577 -2.0563,3.9076 -1.8461,4.9998 0.6708,3.4822 3.4674,2.6735 6.2135,-1.7968 l 2.6555,-4.3229 5.3445,0.6793 c 2.9395,0.3737 6.6451,1.6029 8.2347,2.7317 1.5895,1.1287 4.4695,2.0534 6.4,2.0549 4.35206,0 22.08891,4.6869 26.73702,7.0602 1.89173,0.9658 5.50848,3.6484 8.03723,5.9612 5.45248,4.987 10.38122,7.2368 15.90133,7.2583 4.36853,0.017 4.8768,0.2583 15.86325,7.5289 8.07627,5.3447 12.97739,7.3887 17.71648,7.3887 1.70155,0 4.38998,0.6668 5.97419,1.4817 5.42357,2.7901 19.75019,5.0932 24.72704,3.9749 5.50496,-1.2368 6.76288,-0.8265 12.45963,4.0648 4.50133,3.865 7.79125,5.6768 25.96032,14.2973 8.41856,3.9942 11.53909,4.911 18.44064,5.4177 6.94176,0.5097 9.7473,1.3412 17.06666,5.0582 4.81771,2.4466 10.78038,6.0677 13.25046,8.047 6.6913,5.3618 10.41386,6.516 25.72128,7.9753 12.55669,1.1972 13.98954,1.5438 14.48864,3.5059 0.83797,3.294 6.6273,9.1106 9.06794,9.1106 3.08331,0 4.72139,-3.7775 3.98091,-9.1801 -0.67019,-4.8895 0.0587,-6.2096 2.56768,-4.6487 1.27093,0.7906 1.30965,1.35 0.21579,3.1151 -2.09366,3.3782 -1.59136,5.8006 1.89536,9.1412 l 3.2288,3.0933 3.7056,-1.9956 c 3.17333,-1.7089 4.29792,-1.8181 7.82837,-0.7604 2.26752,0.6793 6.10699,1.2352 8.53227,1.2352 3.67221,0 4.4096,0.3505 4.4096,2.0958 0,2.8211 3.11189,4.3042 9.03082,4.3042 2.69739,0 6.68896,0.7787 8.87008,1.7304 2.77771,1.2122 8.27968,1.8683 18.36576,2.1903 10.57888,0.3377 17.3135,1.1775 25.37963,3.1648 9.84032,2.4243 11.55595,2.5711 16.53333,1.414 3.05451,-0.7101 7.86006,-2.5236 10.67883,-4.03 4.84267,-2.5879 5.46357,-2.669 11.26421,-1.4709 3.37654,0.6975 10.19019,1.2737 15.14155,1.2806 5.30592,0.011 12.50635,0.874 17.53579,2.1105 7.30976,1.7971 9.84117,1.9503 17.6545,1.0678 6.07606,-0.6863 10.34944,-0.6675 12.8,0.056 3.4255,1.0119 28.80992,5.2495 31.59702,5.2747 0.68832,0.011 2.60832,1.1402 4.26666,2.5201 2.68448,2.2336 4.14027,2.5183 13.27606,2.596 9.97792,0.085 10.52213,0.22 19.73333,4.8977 6.48949,3.2955 12.29931,5.3367 18.44928,6.4817 4.93728,0.9194 11.38443,2.3865 14.32693,3.2603 6.67499,1.9823 13.21664,1.9779 16.69622,-0.011 3.52245,-2.0136 6.99648,-1.9682 17.68021,0.2309 7.57653,1.5595 9.46656,1.6241 12.75371,0.4354 2.12256,-0.7675 4.18314,-1.0716 4.5793,-0.6758 0.39606,0.3958 0.8736,44.5998 1.06134,98.2313 l 0.34112,97.5116 h -899.78117 -899.7812 l 0.631,-3.1547 z m 534.7824,-281.6453 c 0,-0.5867 -0.48,-1.0667 -1.0666,-1.0667 -0.5867,0 -1.0667,0.48 -1.0667,1.0667 0,0.5866 0.48,1.0666 1.0667,1.0666 0.5866,0 1.0666,-0.48 1.0666,-1.0666 z m -323.7805,-892.75087 c 4.213,-4.39733 9.0726,-6.44917 15.2743,-6.44917 5.8677,0 13.4927,-2.31403 16.4533,-4.99339 1.0558,-0.95552 1.9196,-3.04725 1.9196,-4.64842 0,-4.0351 -7.9944,-19.62486 -12.1803,-23.75296 -1.8992,-1.87286 -8.9355,-6.48886 -15.6363,-10.25771 -16.5776,-9.32405 -22.8119,-13.64288 -35.8536,-24.8384 l -11.1555,-9.57643 -6.0539,2.23008 c -3.3296,1.22646 -9.562,2.71392 -13.8498,3.30539 -4.2879,0.59136 -9.2479,1.82603 -11.0222,2.74357 -2.5372,1.312 -3.9247,1.42486 -6.4965,0.52832 -1.7986,-0.62709 -4.1406,-1.14005 -5.2044,-1.14005 -4.1584,0 -14.2277,-4.72533 -19.8804,-9.3296 l -5.9385,-4.83691 -5.431,1.87723 c -8.2229,2.84245 -27.2703,12.01525 -31.2453,15.04715 -3.0581,2.33248 -3.519,3.31018 -3.519,7.464 0,2.62901 -0.72,6.50314 -1.6,8.60928 -0.88,2.10613 -1.6,4.48597 -1.6,5.28853 0,0.80245 3.12,2.87371 6.9334,4.60277 6.5734,2.98059 6.9333,3.33355 6.9333,6.80011 0,4.51723 3.532,9.27744 6.8837,9.27744 1.3543,0 5.606,-1.18325 9.4483,-2.62955 3.8423,-1.44618 11.4595,-3.87669 16.927,-5.40096 5.4675,-1.52437 14.0031,-4.78101 18.968,-7.23712 8.7869,-4.34698 9.3116,-4.4657 19.7333,-4.4657 9.2867,0 11.4136,0.3536 16.0397,2.66666 4.8403,2.42016 5.3098,2.976 5.0789,6.01291 -0.3206,4.21781 0.7834,5.08341 9.2145,7.22464 3.7548,0.95349 11.4348,3.82912 17.0667,6.39019 5.632,2.56106 12.2799,5.50549 14.7732,6.54304 2.4934,1.03765 4.5334,2.56821 4.5334,3.40128 0,0.83306 -1.28,3.69888 -2.8445,6.36842 -3.616,6.17024 -3.9222,16.32619 -0.4922,16.32619 0.4424,0 2.1626,-1.41781 3.8228,-3.15083 z m 377.333,-11.90773 c 2.1738,-1.10165 5.2938,-3.79285 6.9333,-5.98048 5.6755,-7.57291 22.2153,-23.38475 30.1809,-28.85227 8.2499,-5.66272 11.3299,-8.57941 19.0092,-18.0016 4.9647,-6.09152 7.6575,-11.67445 7.6575,-15.87626 0,-3.24534 1.425,-6.20288 5.1221,-10.63083 4.3908,-5.25888 9.5527,-17.17835 10.3265,-23.84491 l 0.7193,-6.19733 13.9991,-14.28693 c 7.6995,-7.85782 15.0094,-16.21835 16.2442,-18.57888 1.3976,-2.6719 4.3443,-5.66027 7.8066,-7.91712 10.796,-7.03723 18.2835,-23.36107 16.9291,-36.90816 -0.4305,-4.30614 0.063,-6.70315 2.5599,-12.44544 1.7013,-3.91168 3.0932,-8.09227 3.0932,-9.29014 0,-1.19797 1.1784,-3.27754 2.6187,-4.62122 2.057,-1.91904 3.1797,-5.09888 5.233,-14.8223 1.4379,-6.80853 3.6913,-14.48853 5.0078,-17.06666 6.6712,-13.06539 1.7891,-37.86112 -12.2642,-62.28758 -7.0984,-12.3377 -9.2356,-14.90858 -14.7402,-17.73141 l -4.0116,-2.05707 2.2954,-3.10474 c 2.6166,-3.5391 2.3163,-8.96192 -0.7558,-13.65067 -1.6644,-2.54027 -1.8529,-2.58965 -2.8795,-0.75541 -0.6041,1.07957 -1.1446,5.20128 -1.201,9.15946 l -0.1024,7.1967 -5.3334,0.73162 c -2.9333,0.40246 -7.046,1.5999 -9.1394,2.66102 -3.9969,2.02602 -11.6606,9.784 -11.6606,11.80394 0,0.64939 -2.936,4.00918 -6.5243,7.46646 -4.6541,4.48384 -9.3681,7.6416 -16.4443,11.01546 -5.4559,2.60139 -12.9392,7.16278 -16.6294,10.13643 -11.2984,9.10432 -14.1414,9.74315 -44.9479,10.10091 l -26.5145,0.30784 -4.4698,4.26069 c -5.8818,5.60661 -9.735,8.11488 -16.2014,10.54624 -9.5717,3.59904 -16.1585,7.78784 -19.2415,12.23659 -1.6462,2.37546 -6.0307,6.31616 -9.7433,8.75701 l -6.7502,4.43808 -0.1905,6.17376 c -0.1046,3.39552 -0.2248,7.25035 -0.2667,8.56619 -0.064,2.01365 0.7684,2.58858 5.2572,3.63093 2.9333,0.68117 7.4933,1.296 10.1333,1.36619 6.7555,0.17984 14.8931,3.88565 26.783,12.19722 11.4544,8.00704 15.6987,13.1008 19.6392,23.56939 2.4148,6.41589 2.5441,7.6304 1.5547,14.60736 -0.5936,4.18539 -2.0074,9.70773 -3.1417,12.27189 -3.4821,7.872 -12.859,20.4687 -18.0448,24.24128 -4.5484,3.3088 -23.9124,11.14411 -31.7576,12.85024 -1.852,0.40267 -6.172,2.4239 -9.6,4.49152 -3.4281,2.06763 -10.6439,5.89312 -16.0354,8.50112 -9.7609,4.72182 -10.5202,4.91798 -47.7438,12.33568 -2.9039,0.57878 -6.9839,1.90816 -9.0667,2.95424 -2.0828,1.04619 -5.5101,2.2143 -7.6163,2.59595 -4.7468,0.86016 -7.5093,3.7552 -10.8636,11.38507 -1.4323,3.25813 -4.1134,7.64256 -5.9578,9.74325 -7.1354,8.12683 -29.3375,22.05867 -35.3492,22.18165 -2.0175,0.0416 -15.1535,4.53686 -20.8,7.1184 -3.6978,1.69056 -8.8175,2.06795 -38.4,2.83051 -52.4417,1.35189 -48.3103,1.48256 -55.3717,-1.75029 -7.0446,-3.22518 -10.4362,-3.56747 -12.3614,-1.24768 -1.0912,1.31477 -0.6869,2.66357 2.2694,7.57248 5.1919,8.62101 9.8493,12.45941 14.1039,11.6241 1.8479,-0.36277 11.9998,-2.51306 22.5598,-4.77834 17.6401,-3.78411 31.3776,-5.60427 64.5333,-8.55051 6.7467,-0.59947 16.8267,-2.07083 22.4,-3.26976 8.7322,-1.8784 14.6739,-2.22133 42.9716,-2.48021 23.1972,-0.21227 33.2027,-0.66507 34.08,-1.5423 0.8199,-0.81994 6.0537,-1.24181 15.4069,-1.24181 16.272,0 20.4824,1.15328 27.9584,7.65813 2.5759,2.24139 5.1141,4.0752 5.6403,4.0752 0.5263,0 0.8188,1.28822 0.6498,2.86262 -0.2826,2.63584 0.3275,3.12629 7.7035,6.19232 4.4058,1.83136 11.3128,5.59082 15.349,8.35445 9.3955,6.43328 11.7307,7.03339 15.0897,3.87776 l 2.5977,-2.44043 6.1432,1.9183 c 3.3788,1.05493 7.8935,2.62485 10.0326,3.48864 9.4327,3.80896 16.2301,3.85354 23.5298,0.15445 z m 205.3809,-1114.51271 c 4.5783,-2.0782 5.8749,-4.61896 2.9333,-5.7478 -0.88,-0.33769 -1.6,-1.32183 -1.6,-2.18697 0,-2.59072 4.4356,-4.89396 9.4248,-4.89396 2.576,0 8.5893,-0.92753 13.3627,-2.06117 4.7736,-1.13365 14.1992,-2.39344 20.9458,-2.79956 6.7467,-0.40611 13.0635,-1.15233 14.0373,-1.65826 0.9921,-0.51541 2.1034,-2.91922 2.5277,-5.4671 1.0958,-6.58019 3.5476,-12.38933 7.607,-18.02349 1.9587,-2.71859 3.5614,-5.14246 3.5614,-5.38637 0,-0.24391 -4.44,-0.43482 -9.8667,-0.42426 -13.7379,0.0268 -20.3145,-2.65049 -29.531,-12.0216 l -6.8643,-6.97947 -28.1779,-0.2138 c -34.2586,-0.25995 -32.2268,-1.12774 -32.2268,13.76454 0,11.09971 0.1711,11.46752 7.822,16.81971 8.7377,6.11253 14.6571,16.05733 16.165,27.15742 1.0064,7.40878 2.6248,12.23087 4.0958,12.20332 0.6878,-0.0129 3.2905,-0.94942 5.7839,-2.08118 z m -39.7958,-54.42873 c -0.1002,-12.81845 -0.4346,-13.44029 -8.5937,-15.96034 -7.439,-2.29771 -12.7092,-2.78044 -13.6546,-1.25072 -0.3135,0.50725 -0.8876,3.6243 -1.2757,6.92677 -0.6243,5.31178 -0.3923,6.47808 2.0109,10.10954 3.0994,4.68355 11.5534,8.63884 17.8422,8.34762 l 3.7333,-0.17287 -0.062,-8 z m -236.8329,-5.97767 c 0.9235,-0.35439 3.864,-3.93086 6.5344,-7.94773 5.1237,-7.70726 9.8753,-12.06212 17.2219,-15.78408 2.4535,-1.24302 4.7517,-2.73054 5.1071,-3.3056 0.3554,-0.57505 -1.0499,-2.14191 -3.123,-3.48191 -2.073,-1.33999 -4.072,-3.39634 -4.4421,-4.56968 -2.1208,-6.72345 -9.0411,-13.24693 -24.6628,-23.24902 -1.7825,-1.14129 -10.5294,7.12843 -17.5349,16.57838 -5.5446,7.47919 -11.5386,21.77953 -11.5386,27.52831 0,5.98961 6.1256,11.89733 14.4,13.88758 4.0416,0.97215 15.8157,1.19652 18.038,0.34375 z m 140.2746,-5.88903 c 8.5691,-1.46469 10.7541,-2.52384 10.7541,-5.21291 0,-2.36674 -3.328,-4.83146 -8,-5.92475 -4.606,-1.07784 -6.6822,-3.28514 -7.4686,-7.94041 -0.3799,-2.24846 -1.3054,-4.32399 -2.0567,-4.61228 -1.4883,-0.57112 -17.085,2.60244 -18.175,3.69819 -0.369,0.37097 1.6472,3.73717 4.4805,7.48047 2.8333,3.7433 5.795,8.35979 6.5817,10.25886 1.6365,3.95091 2.8231,4.14344 13.884,2.25283 z m -97.8033,2028.71114 c -1.5426,-4.0867 -0.3473,-5.8131 2.8428,-4.1058 2.5193,1.3483 2.7519,2.4599 1.1437,5.4648 -1.5536,2.903 -2.4995,2.5806 -3.9865,-1.359 z"
           style="fill:url(#linearGradient4039);fill-opacity:1;stroke:#000000;stroke-width:32;stroke-miterlimit:4;stroke-dasharray:none;stroke-opacity:1"
           sodipodi:nodetypes="csccssssscssccscssscscsscccscsscssscccccccssscscscsscssscssssscccsssscccsssscsccsssssssssssssssscccscsssssscsssssssccsccscscccssccsscsccssccccsscsccscsccsssscccsssscsccscssccsccscssccscsssssccssccscccsssscsccscssccssccsccccccscssscscsssccssscsscscccccccscssccssscsccssssccsscssscssscsscccssscssssssssccsssssssscsscssssssssscsscccssssssssssssssccsscscssscscsssssccscscccssccccsssssssscscsscscsscsssssssscssssssssscscccsssssscccssscsssssscsssscscssssscsscccscssssssscsscccsccssscsccssssccscssscccsscsscssssccscscsscssscsccsccssssssscsscsssscscssssscssscscsscsccscssscccscsssscscccscssssssscccsssscsscsccscsscccsssssscssssscssssscsccccssccccccssccscscscsscccccccsscsscssccssscsscsscscccsssscssssccssscscccscccsscccccssssscscscsscccccssccssssssscccssccscssscccssssscsssscscccsccssccccsscssscsssccccscscccscscccsccccsscscsssssscscsscccsccsssssscssssscsssscscssssscccsscsscsssssssssscscscscc" />
      </g>
      <path
         style="fill:url(#linearGradient4041);fill-opacity:1;stroke:#000000;stroke-width:32;stroke-miterlimit:4;stroke-dasharray:none;stroke-opacity:1"
         d="m -2193.4977,1664.3834 c 2.1539,-2.154 1.4516,-5.4945 -2.5471,-12.1161 -2.105,-3.4855 -6.3627,-11.3773 -9.4615,-17.5373 -3.0989,-6.16 -8.3772,-15.6919 -11.7294,-21.1822 -13.6105,-22.2904 -17.0422,-36.0785 -14.1167,-56.7189 1.7765,-12.5335 6.504,-26.0372 11.4881,-32.8145 7.3364,-9.9759 23.4457,-17.1377 44.7133,-19.8782 26.8378,-3.4583 41.484,-4.1102 73.0666,-3.2519 17.0134,0.4623 36.6934,0.9155 43.7334,1.0072 7.04,0.092 25.1034,0.5718 40.141,1.0666 24.2772,0.7989 27.9535,0.6994 32.8068,-0.8881 4.9494,-1.6189 5.7645,-1.6332 8.6292,-0.1518 3.813,1.9717 8.6507,2.1277 43.6376,1.4062 26.3398,-0.5432 27.1298,-0.6227 28.8528,-2.9069 1.6457,-2.1819 2.3368,-2.2973 9.739,-1.6266 5.8604,0.5311 9.7956,0.2597 14.8805,-1.0264 8.1496,-2.0614 11.6606,-4.3284 13.8464,-8.941 1.8986,-4.0064 3.2359,-3.898 4.6024,0.3732 2.495,7.7984 9.2991,10.363 13.7902,5.1978 3.3314,-3.8315 8.5582,-6.8645 11.8295,-6.8645 1.5641,0 4.3755,-1.4094 6.4571,-3.237 3.5192,-3.0899 3.7181,-3.1385 4.3749,-1.0692 0.9955,3.1364 5.4527,3.9563 8.1648,1.5019 4.9515,-4.4812 6.003,-9.5782 3.5562,-17.2404 -0.6474,-2.0275 0.1003,-3.2532 4.3804,-7.183 5.1427,-4.7215 5.1569,-4.7534 4.0176,-9.022 l -1.1433,-4.2836 h 3.4509 c 4.34,0 11.4266,-2.4666 15.5764,-5.4214 1.7506,-1.2466 4.6248,-4.8216 6.3873,-7.9445 l 3.2046,-5.6781 4.4755,2.0319 c 8.4794,3.8496 18.3561,2.0694 26.7703,-4.8255 5.4589,-4.4731 6.6007,-4.6068 9.3625,-1.0957 2.3473,2.9841 6.3288,3.4932 8.3427,1.0666 1.7828,-2.1481 3.4512,-2.0151 6.6911,0.5334 3.5061,2.7579 4.8664,2.6882 8.1839,-0.4192 3.4413,-3.2235 14.6509,-9.1808 17.2752,-9.1808 1.2643,0 1.9831,0.7643 1.9831,2.1087 0,1.1598 1.2123,2.9031 2.694,3.8739 2.5228,1.653 2.8279,1.644 4.8,-0.1407 1.6329,-1.4778 2.106,-3.2872 2.106,-8.0541 0,-7.5004 2.0849,-11.4987 7.6732,-14.7148 8.6622,-4.9854 13.9794,-16.9748 11.6431,-26.2532 -1.7172,-6.8196 -1.6478,-6.9532 3.614,-6.9532 3.9872,0 5.4969,-0.6324 8.9441,-3.7466 2.2809,-2.0607 6.7104,-5.1164 9.8433,-6.7903 6.4674,-3.4557 9.6915,-8.1097 11.7285,-16.9297 0.9724,-4.2106 1.7712,-5.6 3.2194,-5.6 2.2764,0 4.1344,-3.0561 4.1344,-6.8003 0,-1.4706 0.48,-2.9705 1.0667,-3.3331 0.5867,-0.3625 1.0667,-2.3227 1.0667,-4.356 0,-2.9779 0.5271,-3.8972 2.7113,-4.7276 1.4912,-0.5669 5.4781,-2.9098 8.8598,-5.2062 3.3816,-2.2964 7.8014,-4.871 9.8219,-5.7214 2.0205,-0.8504 5.7591,-3.2958 8.3079,-5.4341 2.5488,-2.1385 5.4289,-3.9037 6.4,-3.9228 0.9712,-0.019 4.4057,-0.9606 7.6324,-2.0921 5.4149,-1.8988 7.0479,-1.9685 21.2064,-0.9049 20.0276,1.5045 29.8515,0.079 67.5861,-9.8059 3.956,-1.0363 9.236,-3.0507 11.7334,-4.4767 2.4975,-1.4258 6.2208,-3.2572 8.2741,-4.0698 2.0533,-0.8127 8.8785,-4.7878 15.167,-8.8335 l 11.4337,-7.3559 10.9663,-0.2329 c 11.7341,-0.2493 16.7767,-1.7899 24.2044,-7.3952 l 3.6381,-2.7455 8.4243,9.0042 c 11.5871,12.3845 18.6234,15.897 32.2902,16.119 10.17,0.1653 12.5384,0.9148 21.3427,6.7536 6.2082,4.1171 9.3181,5.2594 17.9106,6.5783 4.2291,0.6493 11.1339,2.3306 15.3441,3.7363 13.6789,4.5672 25.8919,2.9643 36.7706,-4.8256 7.499,-5.37 13.1577,-13.6158 15.3956,-22.4348 1.9071,-7.5155 3.9009,-11.2442 6.5576,-12.2636 1.9086,-0.7325 15.5843,5.8479 24.8215,11.9432 3.2266,2.1292 7.5466,4.9633 9.6,6.2979 2.0533,1.3346 6.5023,4.768 9.8866,7.6297 3.3843,2.8618 7.2243,5.715 8.5333,6.3406 10.9887,5.2518 21.0904,9.3042 30.1134,12.0807 9.9664,3.0667 11.6469,3.2692 25.6,3.0842 42.1527,-0.5586 38.9607,-0.7672 43.958,2.8727 4.1095,2.9934 4.3617,3.4424 2.9672,5.2844 -3.5941,4.7474 -0.2765,7.2335 4.815,3.6083 3.5833,-2.5517 3.4121,-2.5642 17.5931,1.2889 4.6934,1.2752 9.2911,2.948 10.2173,3.7172 2.226,1.8488 4.6795,1.7706 6.3161,-0.2013 1.9731,-2.3775 3.4806,-1.9792 7.2573,1.9174 3.0533,3.1501 3.4109,4.1806 3.425,9.8667 0.027,10.6586 3.9202,14.9027 9.1581,9.9818 1.421,-1.3348 3.0945,-4.3248 3.7191,-6.6441 1.017,-3.7769 1.3052,-4.0476 2.76,-2.5928 1.4549,1.4549 1.4342,1.915 -0.1985,4.4066 -1.1601,1.7706 -1.5789,3.7546 -1.1517,5.4566 1.0244,4.081 4.4088,3.4058 7.5038,-1.497 2.5225,-3.9958 2.8263,-4.1486 7.2135,-3.6285 2.519,0.2987 5.9618,1.5159 7.6505,2.7048 1.6888,1.189 4.3288,2.121 5.8667,2.0711 4.5056,-0.146 21.58123,4.1909 26.79616,6.8057 2.64,1.3237 6.84096,4.356 9.33547,6.7385 4.61792,4.4105 12.46517,7.6132 18.65397,7.6132 1.77845,0 4.72469,1.3075 7.0064,3.1093 6.24715,4.9333 18.17376,10.7573 22.02912,10.7573 1.93301,0 5.16213,0.6885 7.17579,1.5298 7.69333,3.2144 18.28544,5.0321 25.17141,4.3194 6.59584,-0.6826 6.77483,-0.6313 10.94837,3.1393 2.33366,2.1083 11.55616,7.3785 20.49451,11.7115 15.07125,7.306 16.91019,7.9318 25.31829,8.616 8.02176,0.6527 10.11158,1.3015 18.13334,5.6302 4.98666,2.6909 10.68,6.281 12.65184,7.978 1.97184,1.6969 4.85184,3.5891 6.4,4.2047 4.28682,1.7045 18.15509,4.0265 24.1889,4.0501 5.0576,0.019 5.61163,0.3051 9.40534,4.8435 2.21706,2.6525 5.16213,5.5637 6.54453,6.4695 2.25472,1.4773 2.8368,1.4797 5.65344,0.023 2.72715,-1.4102 3.40384,-1.4237 5.14795,-0.1034 2.64021,1.999 5.78026,1.9757 8.69344,-0.065 1.89418,-1.3268 3.15178,-1.4333 6.37066,-0.5393 2.20576,0.6126 5.5824,1.1165 7.50368,1.1197 2.68768,0 3.71403,0.5872 4.45152,2.5271 1.15552,3.0392 3.07446,3.8745 8.94262,3.8926 2.44533,0.011 7.56608,1.0256 11.37941,2.2622 5.52683,1.7924 9.51029,2.2371 19.63627,2.1926 11.05952,-0.049 13.61237,0.29 19.73333,2.6173 9.95595,3.7855 19.35413,3.2876 29.17141,-1.5454 6.59126,-3.2449 7.45867,-3.4176 11.58443,-2.3066 2.4528,0.6604 9.54805,1.3541 15.76715,1.5414 6.21909,0.1873 14.42741,1.1025 18.24074,2.0336 7.91104,1.9316 17.74208,2.226 21.87446,0.6548 2.1024,-0.7992 4.8832,-0.5495 11.00277,0.9882 4.50421,1.1318 11.06944,2.3811 14.58944,2.7762 10.31776,1.1582 15.39616,2.5227 18.82869,5.059 2.77803,2.0527 4.56342,2.3806 12.99584,2.3869 9.34528,0.011 10.18944,0.2093 19.1824,4.5988 5.43147,2.6511 12.73728,5.2287 17.28704,6.0993 4.33408,0.8292 11.59136,2.4797 16.12726,3.6678 10.28885,2.6949 11.68992,2.6892 16.83552,-0.068 4.3793,-2.3472 4.53546,-2.3422 17.53706,0.5573 6.39126,1.4253 8.58443,1.5171 11.73334,0.491 2.13013,-0.6941 4.15424,-1.6935 4.49813,-2.221 0.82688,-1.2683 2.04139,86.2125 2.04139,147.0433 v 48.3582 H -1294.831 c -699.9585,0 -899.6622,-0.2845 -898.6667,-1.28 z m 535.1162,-281.7658 c 2.231,-1.6315 1.5837,-4.9542 -0.9652,-4.9542 -1.866,0 -4.1978,3.8337 -3.2574,5.3554 0.8717,1.4104 1.8752,1.3152 4.2226,-0.4012 z m 8.8964,-11.6332 c 0.2465,-1.28 -0.3279,-1.8544 -1.8544,-1.8544 -1.5265,0 -2.2115,0.685 -2.2115,2.2115 0,2.7336 3.5304,2.4235 4.0659,-0.3571 z m 16.8574,-47.251 c -0.843,-2.1969 0.036,-3.4037 1.45,-1.99 0.5525,0.5525 0.6113,1.6407 0.1307,2.4183 -0.6867,1.111 -1.0252,1.0193 -1.5807,-0.4283 z m -377.2612,-545.4838 c -1.5057,-0.45675 -4.6257,-2.04288 -6.9333,-3.5248 -2.3075,-1.48192 -8.5155,-3.97707 -13.7955,-5.54485 -17.7282,-5.264 -27.6922,-9.25291 -34.0488,-13.63072 -5.5332,-3.81088 -6.6716,-4.21494 -9.1928,-3.26336 -3.4718,1.3105 -5.5779,0.37173 -10.2636,-4.57472 -1.8546,-1.95776 -4.7346,-3.87776 -6.4,-4.26667 -1.6655,-0.38891 -5.7896,-2.08224 -9.1648,-3.76299 -3.3751,-1.68064 -8.4151,-3.61781 -11.2,-4.30474 -2.7848,-0.68694 -8.6633,-3.10923 -13.0633,-5.38272 -6.0705,-3.13675 -10.0582,-4.38688 -16.5334,-5.18315 -20.0433,-2.46485 -23.3958,-3.47328 -29.3534,-8.82965 -4.849,-4.35968 -13.0118,-8.18454 -17.4671,-8.18454 -0.6049,0 -5.0652,-1.96437 -9.912,-4.36533 -6.416,-3.17835 -10.6323,-4.52523 -15.5064,-4.9536 -7.9833,-0.70155 -15.6814,-3.88533 -23.4172,-9.68501 -3.1224,-2.34091 -7.3762,-4.95595 -9.4528,-5.81131 -2.8306,-1.16587 -4.0679,-2.50795 -4.9441,-5.36267 -1.9376,-6.31317 -13.1199,-26.29024 -15.6162,-27.89824 -1.2819,-0.82581 -8.0908,-2.26624 -15.1308,-3.20106 -14.6803,-1.94944 -44.1757,-7.96854 -46.0855,-9.4047 -0.9998,-0.75178 -1.0015,-1.42154 -0.011,-3.01269 0.9984,-1.59872 0.9865,-2.45344 -0.054,-3.90912 -4.2116,-5.88981 -4.9267,-8.59563 -3.4524,-13.06293 1.2336,-3.73771 1.203,-4.80939 -0.2225,-7.79872 -0.9089,-1.90603 -3.5107,-4.73856 -5.7816,-6.29462 -3.7875,-2.59488 -4.9676,-2.82133 -14.2625,-2.73589 -8.0629,0.0736 -11.3759,-0.38827 -16.2151,-2.26283 -8.4455,-3.27168 -15.9974,-10.37781 -20.2856,-19.08842 -3.1247,-6.3471 -3.4993,-8.08096 -3.4993,-16.19712 0,-7.61312 0.4609,-10.07211 2.8378,-15.14251 5.8414,-12.46101 15.7306,-19.84864 30.0837,-22.47403 l 7.3215,-1.3392 2.3169,-8.04096 c 3.2934,-11.4305 7.5796,-16.80224 20.3152,-25.46048 5.8987,-4.01024 13.2104,-8.35712 16.2483,-9.65994 3.8537,-1.6527 6.3657,-3.64171 8.3102,-6.57995 1.5328,-2.31616 3.9985,-4.67189 5.4794,-5.23499 1.4809,-0.56298 7.8213,-1.03424 14.0897,-1.04714 9.0348,-0.0181 12.3596,-0.46006 16.0395,-2.12992 7.3513,-3.33579 12.348,-7.92672 15.9187,-14.62624 2.9631,-5.55926 3.8056,-6.34262 8.0385,-7.47478 5.3438,-1.42922 13.8807,-7.46144 14.4038,-10.17781 0.2285,-1.18645 -0.8579,-2.32149 -3.1951,-3.33813 -16.4552,-7.15744 -17.7131,-7.91339 -20.9162,-12.56886 -1.7817,-2.58976 -5.0814,-5.98069 -7.3324,-7.53536 -8.2473,-5.696 -10.5008,-6.12544 -32.1456,-6.12544 h -20.1212 l -3.535,-5.45525 c -1.9794,-3.05472 -5.661,-6.80363 -8.3664,-8.51936 -3.4416,-2.18261 -6.6702,-5.86901 -11.2232,-12.81472 -4.5165,-6.89003 -7.7901,-10.63755 -11.158,-12.77333 -2.6214,-1.66251 -5.1787,-3.16096 -5.6828,-3.33003 -1.2002,-0.40235 -4.7774,-13.41941 -7.4567,-27.13461 -1.7273,-8.84086 -1.9289,-12.0303 -1.0584,-16.73942 2.3296,-12.60181 9.7905,-22.50101 21.1462,-28.05674 4.7303,-2.31435 8.1364,-3.09515 15.4404,-3.53963 l 9.3713,-0.57024 6.2557,-6.57461 c 5.4139,-5.68992 7.2457,-6.88086 13.6149,-8.85088 4.0476,-1.25206 11.1993,-2.536 15.8926,-2.85334 4.6933,-0.31744 11.4133,-1.45205 14.9333,-2.5216 3.52,-1.06954 7.7029,-2.23178 9.2952,-2.58282 2.3255,-0.51264 3.1223,-1.528 4.0499,-5.16086 2.0172,-7.90005 3.4205,-10.67733 10.9085,-21.58922 8.7684,-12.77782 22.2044,-25.4335 32.4844,-30.59787 6.0655,-3.04715 7.2739,-4.14955 8.7499,-7.98208 3.033,-7.87509 8.1947,-13.80341 19.1536,-21.99787 14.6482,-10.95328 17.6369,-11.83669 36.8029,-10.87861 13.7131,0.68555 15.9739,0.53589 23.4041,-1.54901 l 8.2247,-2.30784 10.3968,4.15733 c 6.9712,2.78763 12.923,4.38827 18.0641,4.85803 4.2171,0.38528 9.0171,1.23456 10.6667,1.88736 13.2224,5.232 40.3616,6.39744 49.4536,2.12373 7.5461,-3.54709 12.3212,-8.13035 15.8701,-15.23221 7.9934,-15.99627 1.5726,-35.09003 -14.4358,-42.92864 -5.2124,-2.55222 -7.6854,-3.04811 -16.6194,-3.33216 -9.1438,-0.29067 -11.3206,-0.74571 -16.896,-3.53184 -5.4156,-2.70624 -7.2592,-3.11392 -11.9866,-2.65099 -3.3541,0.32843 -7.2916,-0.0331 -9.8533,-0.90315 -4.6798,-1.59072 -5.067,-2.96938 -2.558,-9.108477 1.304,-3.190613 1.209,-3.65632 -1.3056,-6.4 -1.4916,-1.62752 -3.2626,-4.901866 -3.9357,-7.27648 -0.6729,-2.374613 -2.6249,-6.454613 -4.3376,-9.066666 -1.7126,-2.612054 -3.6945,-7.629227 -4.4041,-11.149227 -1.5564,-7.720427 -2.7467,-9.409813 -6.0465,-8.581547 -3.0084,0.754987 -3.0952,-0.17024 -0.3459,-3.68512 2.3072,-2.94944 2.7374,-6.435946 1.0077,-8.16576 -0.6266,-0.626666 -0.8082,-2.390613 -0.4095,-3.9792 0.5386,-2.146026 1.1983,-2.70048 2.6607,-2.236373 2.9658,0.941333 4.0744,-2.3552 3.4417,-10.2352 -1.0549,-13.143467 4.687,-25.9821867 15.1661,-33.9105067 8.4398,-6.3852803 18.6778,-11.6515203 25.9501,-13.3479463 3.6871,-0.86016 7.3019,-2.06016 8.0325,-2.66656 0.7307,-0.6064 5.6209,-1.242667 10.8673,-1.413867 l 9.5387,-0.311253 1.1867,-6.647147 c 0.6527,-3.655893 2.0371,-8.874027 3.0765,-11.59584 l 1.8901,-4.948693 -4.9518,-4.23264 c -5.4083,-4.622934 -10.1163,-11.014507 -12.4056,-16.842347 -0.8066,-2.053333 -2.4085,-5.03328 -3.5597,-6.62208 -1.7284,-2.38496 -1.8558,-3.174827 -0.7315,-4.5296 1.0822,-1.304 1.1016,-2.674773 0.094,-6.675947 -1.5838,-6.289493 -0.4226,-31.975683 1.7256,-38.172373 2.934,-8.46389 8.6699,-15.19072 18.3733,-21.54741 5.0493,-3.30784 11.4416,-8.02923 14.2051,-10.49195 2.7636,-2.46272 6.8436,-5.32448 9.0667,-6.35947 2.2231,-1.03488 6.7885,-3.5584 10.1453,-5.60778 8.4989,-5.1888 15.7552,-6.62379 33.5925,-6.64342 16.9952,-0.0181 16.4709,0.22688 17.7774,-8.32576 0.642,-4.20362 0.4192,-4.83125 -2.7407,-7.71733 l -3.4396,-3.14155 2.1859,-2.94933 c 3.8209,-5.1552 15.9896,-13.31904 23.7783,-15.95285 2.6819,-0.90688 6.215,-2.59819 7.8514,-3.7584 1.6362,-1.16022 6.1565,-2.77515 10.045,-3.5887 4.0901,-0.85578 8.0876,-2.43541 9.4846,-3.74784 1.3282,-1.24768 5.8355,-3.18602 10.0163,-4.3073 l 7.6015,-2.03872 4.8548,3.48885 c 4.5546,3.27317 5.4911,3.51093 15.1388,3.84384 7.8847,0.272 12.2632,-0.16448 18.7682,-1.87115 4.6665,-1.22421 8.821,-2.58389 9.2322,-3.02144 0.4113,-0.43765 0.9875,-4.63562 1.2804,-9.32896 0.7159,-11.4688 5.8627,-27.99882 11.0733,-35.56458 2.2238,-3.2288 8.5674,-10.42411 14.0967,-15.98955 9.7396,-9.8032 10.0063,-10.20032 8.5432,-12.72588 -1.0429,-1.80026 -4.1505,-3.58244 -10.0435,-5.75976 -4.6933,-1.73409 -11.2277,-4.26031 -14.521,-5.61384 -4.2251,-1.73656 -6.5178,-2.16418 -7.7892,-1.45274 -2.3313,1.30469 -4.196,-0.24967 -7.8481,-6.54195 -1.5594,-2.68677 -4.8868,-7.6912 -7.3943,-11.12096 -7.5476,-10.32369 -9.4717,-21.10465 -6.2725,-35.14485 0.8296,-3.64057 2.0399,-9.2206 2.6896,-12.40006 1.1637,-5.69407 10.9641,-23.84926 21.134,-39.15049 4.7672,-7.17237 7.3234,-14.79782 10.3452,-30.8604 0.9873,-5.24789 2.1993,-11.64576 2.6934,-14.21753 0.8039,-4.18349 0.628,-4.92654 -1.6693,-7.05565 -1.7394,-1.61183 -2.568,-3.54603 -2.568,-5.99413 0,-6.00114 -3.901,-17.89804 -6.6043,-20.14133 -1.3543,-1.12383 -5.2615,-3.55252 -8.6828,-5.39707 -9.947,-5.36305 -21.7754,-14.32243 -33.1514,-25.11046 l -10.5718,-10.02543 -29.1616,-0.16 c -16.0388,-0.088 -29.7548,-0.208 -30.4802,-0.26667 -2.2497,-0.18197 -2.143,3.463 0.1975,6.75003 2.991,4.20041 5.0413,10.26422 5.9619,17.63216 0.4178,3.3443 1.2996,6.2226 1.9595,6.39621 0.6599,0.17362 4.7784,0.87088 9.1523,1.54947 6.4743,1.0045 10.0508,2.41897 19.2432,7.61067 12.9699,7.32524 15.6548,10.47959 14.325,16.82983 -0.4521,2.15873 -0.8591,5.31265 -0.9046,7.00871 -0.048,1.80515 -0.9055,3.57422 -2.0672,4.26666 -7.4953,4.46783 -11.6551,7.6938 -13.6883,10.61545 -4.2008,6.03636 -10.5112,12.91138 -14.3501,15.63414 -2.5687,1.8218 -4.5283,4.58569 -6.185,8.72364 -1.3339,3.33133 -3.9342,7.96221 -5.7785,10.29085 -6.3053,7.96113 -18.8564,14.05218 -28.9555,14.05218 -2.9567,0 -4.8758,0.96622 -8.5674,4.31326 -7.3775,6.68886 -15.0804,9.99733 -24.3733,10.46859 -9.4231,0.47785 -14.5433,-0.85026 -22.9379,-5.94981 -5.5904,-3.39602 -7.1272,-3.82823 -13.8667,-3.89963 -4.1687,-0.0442 -11.5844,0.60173 -16.4792,1.43536 -7.9277,1.35013 -9.9082,1.32536 -18.1333,-0.22672 -6.7725,-1.27797 -15.9789,-1.77011 -34.5405,-1.84637 -27.1788,-0.11167 -30.3231,-0.60231 -38.5146,-6.00963 -2.3251,-1.53483 -6.9224,-3.15509 -10.6603,-3.75705 -13.2022,-2.12615 -19.6254,-6.72825 -30.7373,-22.02229 -11.2591,-15.49671 -12.6586,-23.60069 -7.7405,-44.82549 2.1909,-9.45547 3.6872,-13.39247 6.9428,-18.26783 2.8457,-4.2613 4.1501,-7.38675 4.1501,-9.94345 0,-5.19532 4.5425,-22.48474 7.8824,-30.00167 1.5313,-3.44633 2.783,-7.28633 2.7814,-8.53333 0,-1.247 -1.8016,-4.32813 -4,-6.84695 -3.448,-3.95058 -4.7985,-4.70303 -9.831,-5.47766 -3.2085,-0.49388 -8.4885,-0.67751 -11.7333,-0.40806 -8.7371,0.72556 -29.1224,-3.09306 -37.9763,-7.11376 -4.0644,-1.84576 -10.0299,-4.49546 -13.2565,-5.88821 -3.2267,-1.39275 -8.5067,-3.6858 -11.7334,-5.09564 -5.949,-2.59933 -18.0234,-12.11509 -23.9511,-18.87564 -1.7869,-2.03792 -4.9832,-5.39792 -7.103,-7.46667 -2.1196,-2.06874 -5.9596,-6.58176 -8.5333,-10.02891 -2.5735,-3.44716 -5.8048,-7.76716 -7.1806,-9.6 -5.7182,-7.61819 -8.3649,-18.61951 -6.6766,-27.7525 1.4023,-7.58519 8.695,-24.49944 13.1225,-30.43534 4.5646,-6.11969 12.3728,-11.40319 19.9155,-13.47606 9.8085,-2.69559 15.1963,-4.88122 15.7796,-6.40135 0.3017,-0.7862 -0.6938,-4.53481 -2.2122,-8.33024 -2.4522,-6.12949 -2.759,-8.37075 -2.7445,-20.05221 0.011,-7.23327 0.369,-13.68325 0.8,-14.33326 0.4311,-0.65003 3.0557,-2.1795 5.8326,-3.39883 7.2863,-3.1994 12.2489,-7.3259 15.5374,-12.91956 2.5093,-4.26861 2.9558,-6.41115 3.4662,-16.63309 0.5172,-10.35931 0.9543,-12.41034 3.7333,-17.51454 6.2858,-11.5454 15.6829,-18.31205 28.5872,-20.58511 5.8871,-1.03697 7.0262,-1.71437 13.1035,-7.79165 3.6608,-3.66076 7.397,-8.42946 8.3026,-10.59707 3.3502,-8.01807 16.3555,-24.36914 23.7912,-29.91163 3.9353,-2.93333 12.0609,-10.21428 18.0569,-16.17988 8.6983,-8.65417 11.1567,-11.78041 12.1626,-15.46667 0.6934,-2.54107 2.5815,-8.94012 4.1958,-14.22012 4.3012,-14.06883 4.5408,-16.48126 2.6938,-27.12694 -2.2223,-12.80821 -1.4529,-38.5078 1.4995,-50.09165 1.1375,-4.46311 2.8114,-11.2888 3.7198,-15.1683 0.9084,-3.8795 2.5721,-9.2011 3.6973,-11.8259 1.8082,-4.2184 2.7088,-5.0103 7.7582,-6.8219 4.3258,-1.552 5.7952,-2.6295 6.0531,-4.439 0.2293,-1.6086 1.2751,-2.5764 3.2,-2.9615 6.306,-1.2617 10.5683,-3.0713 15.5227,-6.5903 4.9337,-3.5043 5.9053,-3.7578 19.2,-5.009 7.7018,-0.7248 15.1303,-1.9256 16.5076,-2.6684 5.7244,-3.087 14.9226,-5.4725 23.2606,-6.0327 8.6749,-0.5827 8.9448,-0.528 11.6199,2.3585 3.1711,3.4217 5.3465,2.7584 7.8549,-2.3949 0.8285,-1.7021 1.9807,-4.0438 2.5606,-5.2039 0.5798,-1.1601 1.6534,-4.2801 2.3857,-6.9333 2.6559,-9.6222 8.8266,-24.5536 11.8418,-28.6536 3.7225,-5.0618 18.7909,-18.9118 22.8713,-21.0217 6.4754,-3.3486 14.8994,-5.894 19.7945,-5.9813 2.8452,-0.051 6.958,-0.9962 9.1395,-2.1011 2.1816,-1.1048 6.7416,-2.6673 10.1334,-3.4719 3.3917,-0.8047 8.8069,-2.1857 12.0336,-3.0688 13.3434,-3.6522 26.039,-5.2639 32.6214,-4.1411 7.0092,1.1955 48.3845,1.911 83.6452,1.4466 l 22.9334,-0.3022 2.9333,-3.1813 c 1.8563,-2.0133 2.9333,-4.3696 2.9333,-6.4175 0,-1.7799 0.7155,-4.6199 1.5902,-6.3113 0.8746,-1.6912 2.447,-6.3474 3.4943,-10.3469 l 1.9042,-7.272 3.9856,-0.1134 c 2.2739,-0.065 4.9496,-0.981 6.2299,-2.1334 3.4844,-3.1363 8.3201,-10.6037 10.0599,-15.535 1.8521,-5.2493 6.0289,-11.0268 9.1981,-12.7229 1.2332,-0.66 5.5428,-1.6144 9.5769,-2.1209 11.7372,-1.4739 11.7203,-1.4535 10.9043,-13.0619 -1.1606,-16.5103 3.9422,-27.9026 16.1837,-36.1315 11.7542,-7.9014 22.2069,-8.5973 40.03,-2.6652 6.2097,2.0668 13.1626,4.7612 15.4509,5.9876 2.2882,1.2265 4.6958,2.2299 5.3501,2.2299 0.6543,0 2.6435,2.3387 4.4203,5.1969 2.7108,4.3607 4.5207,5.8175 11.2488,9.0535 11.8766,5.7125 19.9388,15.5759 19.9668,24.4279 0.011,2.9954 3.9396,10.5491 8.2758,15.9062 2.1983,2.7159 5.3012,6.6202 6.8953,8.6761 3.783,4.8786 14.6591,10.3394 20.593,10.3394 7.8801,0 15.4903,2.0149 24.9215,6.5984 14.8295,7.207 21.6199,12.0386 23.3622,16.6227 5.1228,13.4789 5.4901,15.0051 5.5233,22.9501 l 0.035,8.3046 4.5334,1.9336 c 2.4933,1.0636 7.0237,2.5272 10.0673,3.2527 3.0437,0.7254 7.7731,2.739 10.5098,4.4746 2.7368,1.7356 7.2066,4.1972 9.9327,5.4701 7.0381,3.2863 25.0491,21.0004 28.4777,28.0083 2.8461,5.8172 5.0661,20.25 5.1066,33.1987 0.022,7.0358 -2.2962,14.535 -6.363,20.5842 -3.7338,5.554 -2.0821,6.7317 8.5934,6.1266 4.7349,-0.2684 11.3516,-1.0983 14.7041,-1.8444 5.9256,-1.3187 6.2107,-1.2764 10.2477,1.5213 3.789,2.6257 4.5628,2.7831 8.8381,1.7975 2.5771,-0.5941 9.7256,-1.0941 15.8856,-1.111 10.8465,-0.03 11.448,0.095 19.0561,3.9506 l 7.8562,3.9816 17.9774,0.4122 c 17.2445,0.3954 18.0068,0.5051 18.696,2.6899 0.3952,1.2527 2.3278,4.16142 4.2946,6.46375 5.0736,5.93887 7.2952,11.17376 10.6175,25.01808 2.8488,11.87185 2.8823,12.39184 1.5303,23.76036 -0.7602,6.39259 -1.0796,14.19663 -0.7099,17.34231 1.0001,8.50972 -0.8553,15.91109 -7.0692,28.19991 -6.724,13.2979 -15.8466,23.10058 -30.4165,32.68425 -2.5121,1.65239 -4.397,3.51567 -4.1887,4.14061 0.2083,0.62495 3.1294,2.53681 6.4912,4.24858 3.3619,1.71177 8.1268,5.29209 10.5887,7.95627 7.7009,8.33349 12.86,13.15026 17.1973,16.05638 4.0255,2.69711 16.6895,18.67033 20.2291,25.51502 0.9386,1.81522 2.6487,7.34086 3.8002,12.27917 1.1514,4.93832 3.5515,13.36698 5.3334,18.73035 3.1598,9.51077 3.2334,10.19937 2.978,27.88344 -0.144,9.97253 -0.6038,18.13201 -1.0219,18.13221 -0.4182,1.8e-4 -2.7273,2.89673 -5.1312,6.43677 -5.0934,7.5003 -11.9163,12.82062 -20.4464,15.94349 -5.9216,2.16792 -10.1604,6.09867 -13.5539,12.56924 -1.0488,1.99982 -0.9757,2.52757 0.4242,3.06477 2.5197,0.96694 11.0326,-0.40675 18.1997,-2.93688 4.9552,-1.74925 8.0809,-2.13694 14.3556,-1.78054 11.9542,0.679 17.6189,3.71901 30.4038,16.31657 11.966,11.79064 18.4242,16.28309 38.375,26.69429 16.5798,8.65203 16.0932,8.29351 31.1793,22.9711 l 11.9795,11.65486 h 27.2908 c 18.3499,0 28.0541,-0.39827 29.6206,-1.21567 1.2815,-0.66862 4.6117,-3.32947 7.4005,-5.913 2.7888,-2.58353 8.0688,-6.03677 11.7333,-7.67387 6.5893,-2.9437 6.8864,-2.97473 26.9295,-2.81252 16.3311,0.13216 21.4058,0.53775 26.1333,2.08866 6.4827,2.12674 26.4104,2.66235 55.46668,1.49078 22.93504,-0.92473 31.01184,1.22292 40.57899,10.79 11.88821,11.88827 14.50208,29.14751 6.74005,44.50499 l -2.79307,5.52605 3.19904,5.19911 c 1.75947,2.85951 3.53366,6.2533 3.94262,7.54175 0.40896,1.28846 1.55104,2.73985 2.53792,3.22533 0.98698,0.48547 14.51445,0.79498 30.06112,0.6878 19.06304,-0.13142 30.69781,0.24702 35.73333,1.16229 4.10667,0.74643 9.84619,1.68075 12.75456,2.07626 7.9072,1.07531 13.83915,4.34403 22.56331,12.43322 4.32362,4.00885 8.63168,7.28882 9.57354,7.28882 0.94198,0 3.02592,-0.93516 4.63104,-2.07813 1.60523,-1.14298 5.44171,-3.0727 8.52566,-4.28826 3.08384,-1.21556 9.86976,-5.03743 15.07968,-8.49304 10.61738,-7.04216 15.78037,-8.60186 28.52469,-8.61699 6.45227,-0.007 9.33589,-0.55293 13.44363,-2.54216 l 5.22954,-2.5324 5.43712,2.53174 c 4.98966,2.3233 6.81184,2.53259 22.13504,2.54215 14.976,0.01 17.50582,0.28464 24.53334,2.66966 4.30954,1.46257 9.20618,2.66257 10.88149,2.66666 1.69227,0.004 4.46901,1.20473 6.24768,2.7014 1.76085,1.48167 6.03019,3.48037 9.48725,4.44155 6.07798,1.68981 8.70422,4.59782 4.15243,4.59782 -1.42219,0 -2.13333,0.71111 -2.13333,2.13333 0,1.369 0.71114,2.13334 1.98474,2.13334 1.58923,0 2.112,1.0744 2.62326,5.39109 0.36789,3.10578 2.41077,8.87088 4.8192,13.6 4.7616,9.34947 7.10666,18.89636 6.03893,24.5846 -0.40171,2.14003 -1.1024,7.57914 -1.55701,12.08691 -1.1391,11.29346 -7.89387,30.0861 -12.24427,34.06475 -10.84864,9.92168 -14.71008,12.8956 -20.8976,16.09426 -8.736,4.51613 -9.16885,6.40974 -2.70123,11.81598 2.64715,2.21275 6.07328,6.17361 7.61355,8.80189 2.84971,4.86266 3.00149,7.5296 0.97056,17.05119 -0.87189,4.0876 2.28619,7.27462 7.24128,7.30752 7.95168,0.0528 34.68779,-1.4471 36.21067,-2.03145 0.90922,-0.34894 2.6929,-3.3511 3.96352,-6.67146 1.27061,-3.32037 3.56864,-7.73013 5.10666,-9.79949 4.05718,-5.45876 11.82838,-12.82913 13.52672,-12.82913 0.80395,0 3.9039,-1.68 6.88896,-3.73333 2.98496,-2.05333 5.73696,-3.73333 6.11552,-3.73333 1.32075,0 20.18454,-11.0693 22.82987,-13.39661 1.46667,-1.29033 4.58667,-2.93634 6.93333,-3.65779 2.34667,-0.72146 6.05131,-2.70964 8.23254,-4.41818 l 3.96586,-3.10642 6.40054,2.15616 c 5.67146,1.9106 9.1376,2.15617 30.43413,2.15617 22.64949,0 24.0336,0.11333 24.0336,1.96801 0,4.12814 4.59403,6.38819 15.60384,7.67636 9.99755,1.16972 16.68213,4.4205 23.93941,11.64181 4.55254,4.53001 6.62144,7.69197 8.84192,13.51291 1.59435,4.1795 4.62443,10.4195 6.73355,13.86667 7.67317,12.54083 12.87328,23.9776 17.39765,38.26342 l 3.37696,10.66253 -1.18869,18.4802 c -1.85867,28.89513 -3.55861,34.6082 -13.21205,44.4002 -10.7567,10.91114 -13.49259,14.49589 -13.49259,17.67872 0,1.69824 -1.19925,4.85493 -2.66496,7.01482 -1.46571,2.15979 -3.17077,5.80544 -3.78901,8.10134 -1.3392,4.97344 -16.72544,22.17472 -23.70902,26.5057 -11.98848,7.4351 -17.77738,10.61334 -22.82325,12.53067 -5.33728,2.02795 -10.18453,5.62485 -22.65077,16.80811 -3.6287,3.25525 -10.90464,7.84864 -18.432,11.63648 -13.33696,6.71125 -20.56288,12.35061 -21.71691,16.94858 -1.04075,4.14667 0.81088,5.67435 9.18709,7.57952 8.13558,1.85035 25.75339,9.77142 32.52875,14.62507 2.38155,1.70592 6.37696,6.21515 8.87872,10.02027 5.86144,8.91541 16.7568,15.79189 26.82613,16.93109 12.9008,1.45952 21.352,6.28704 29.46571,16.83147 5.41536,7.037543 6.09493,9.637863 5.93717,22.71605 -0.0907,7.538773 -2.10261,13.6752 -6.6496,20.284053 -3.25408,4.7296 -3.28864,4.919574 -2.5744,14.121707 0.39819,5.130133 1.35083,10.869227 2.11702,12.753387 0.76618,1.884266 1.72586,5.64512 2.13258,8.357546 0.53856,3.591254 1.91104,6.283947 5.04992,9.907414 7.21003,8.3231997 9.82016,15.18015967 9.82016,25.798293 0,8.11616 -0.37461,9.850027 -3.4993,16.19712 -6.53206,13.268587 -18.46976,20.92128 -33.83403,21.689387 -4.10667,0.205333 -7.78976,0.399786 -8.18475,0.432213 -0.39498,0.032 -2.91861,3.36896 -5.6081,7.414507 -2.6895,4.045653 -5.56971,7.616533 -6.40043,7.935253 -0.83072,0.318827 -3.46048,3.219307 -5.84373,6.44544 -3.4639,4.688853 -5.888,6.629013 -12.0815,9.669547 -4.26154,2.092053 -10.14816,4.099093 -13.08149,4.459946 -2.93333,0.360854 -6.36939,1.301014 -7.63573,2.089174 -2.06038,1.282346 -2.24214,2.098026 -1.72875,7.760106 1.00075,11.036157 -2.17813,18.776857 -13.64192,33.218237 -10.57557,13.32256 -11.00715,14.01899 -15.53408,25.06667 -2.90037,7.0784 -3.05952,8.29867 -3.05952,23.46667 0,18.4112 -1.12117,22.18997 -9.17696,30.92938 -5.52459,5.9935 -11.10933,9.32651 -19.62304,11.71147 -10.74165,3.00896 -11.13269,3.47637 -10.48181,12.5312 0.6448,8.97141 -2.5664,26.77536 -6.2383,34.58709 -3.00885,6.40086 -10.27413,13.46144 -17.47936,16.98667 -4.3953,2.15029 -8.54816,3.13408 -16.20021,3.83755 -5.65941,0.52021 -13.99467,1.89173 -18.52277,3.04789 -4.52811,1.15616 -11.20064,2.10208 -14.82784,2.10208 -5.65355,0 -7.45515,0.52757 -12.6223,3.69611 -3.31509,2.03296 -8.75701,4.39872 -12.09322,5.25738 -3.33622,0.85867 -9.20192,3.4527 -13.03488,5.76448 -4.3423,2.61899 -10.33024,5.02464 -15.88683,6.3824 -12.1376,2.96608 -19.5904,8.03595 -34.00949,23.13526 -11.72054,12.27349 -11.94443,12.43936 -26.34528,19.51722 -11.11318,5.46187 -15.77696,8.41003 -19.85771,12.55243 -11.03957,11.2064 -24.59563,14.38667 -40.18837,9.42827 l -4.98827,-1.58635 -6.21173,4.71563 c -11.72566,8.90144 -9.02667,8.5552 -68.61163,8.8016 -35.3824,0.14634 -54.02923,0.61152 -56.52629,1.41034 -13.92159,4.45312 -32.02049,-2.15872 -40.77929,-14.89749 -4.1184,-5.98965 -4.9383,-6.97707 -7.71,-9.28597 -0.908,-0.75648 -1.6511,-2.42048 -1.6511,-3.69771 0,-3.36907 -3.2023,-11.23296 -4.8284,-11.85685 -0.765,-0.29355 -3.9515,0.46688 -7.0812,1.68981 -5.4041,2.11168 -7.9179,2.23499 -49.9571,2.45067 -31.1164,0.15957 -45.9894,0.62688 -50.0659,1.57269 -7.1246,1.65323 -16.6707,0.79339 -23.1848,-2.08811 -8.0066,-3.54176 -13.1378,-8.49013 -20.6974,-19.9601 -8.6522,-13.12758 -9.7243,-17.20011 -9.9166,-37.66838 -0.1239,-13.1953 0.075,-14.8016 2.3746,-19.2 1.6687,-3.19114 2.8043,-7.79584 3.3883,-13.73802 1.3426,-13.66283 5.0285,-20.21824 17.7476,-31.56416 6.1882,-5.52 12.8837,-10.38699 16.9778,-12.34091 3.718,-1.7744 7.001,-3.616 7.2954,-4.09248 0.2945,-0.47648 -0.4744,-3.4608 -1.7085,-6.632 -2.779,-7.14069 -3.0013,-19.58784 -0.4718,-26.42752 2.6195,-7.08331 10.6503,-17.69589 21.9432,-28.99787 14.4451,-14.45664 16.1609,-15.14837 39.4055,-15.88544 15.4896,-0.49109 18.7327,-0.87264 19.6364,-2.30997 0.5953,-0.94688 0.802,-2.45237 0.4593,-3.34549 -1.406,-3.6639 -41.66,-31.7328 -45.5085,-31.7328 -0.9533,0 -2.7452,0.7088 -3.982,1.57514 -2.0926,1.4656 -2.6001,1.26582 -7.3049,-2.87552 -5.3166,-4.67989 -14.9873,-9.780797 -16.6246,-8.768957 -0.5297,0.32736 -0.9631,3.430187 -0.9631,6.89504 0,8.065597 -2.1747,14.367147 -8.7029,25.218237 -6.5571,10.89899 -11.3627,15.26656 -22.7494,20.67648 l -8.9937,4.27286 -9.0132,-2.53835 c -12.6516,-3.56309 -17.6256,-6.856 -26.9936,-17.87061 -6.7656,-7.95478 -9.3067,-10.12118 -15.1342,-12.9024 -3.9959,-1.90699 -9.1186,-5.51392 -11.9286,-8.39883 -2.7088,-2.78101 -7.046,-6.12587 -9.6381,-7.43296 -2.5921,-1.306987 -7.3529,-3.94848 -10.5796,-5.869973 -3.4396,-2.048214 -8.0348,-3.761067 -11.1073,-4.140267 -2.8824,-0.355733 -6.7224,-1.604267 -8.5333,-2.774507 -1.811,-1.17024 -6.7429,-3.78304 -10.9597,-5.80608 -8.9406,-4.289386 -15.3441,-9.725333 -19.1932,-16.293333 -3.3976,-5.797547 -6.649,-5.968747 -8.23,-0.43328 -1.1065,3.874773 -6.0498,8.064427 -14.7584,12.508587 -3.3905,1.73024 -5.2694,3.45632 -5.7211,5.256 -0.7519,2.995946 0.8522,10.699946 3.4942,16.780266 1.8348,4.223257 1.4744,5.718507 -1.1372,4.716377 -0.9161,-0.35158 -1.8772,-2.74176 -2.305,-5.731843 -0.9419,-6.584427 -3.9763,-11.54752 -8.9982,-14.71776 -3.0908,-1.951147 -4.2578,-3.578667 -5.1735,-7.21568 -1.5403,-6.116694 -4.8372,-10.19136 -10.2268,-12.639254 -5.9622,-2.70784 -9.7463,-2.515306 -16.3635,0.832747 l -5.6437,2.855467 -3.9717,-3.869974 c -4.9607,-4.833706 -20.5807,-14.291946 -26.0228,-15.757333 -12.3493,-3.325333 -24.7637,9.278933 -21.4132,21.740693 1.5289,5.686934 -0.8721,10.556374 -5.61,11.377067 -2.2021,0.38144 -4.4528,2.330027 -7.8427,6.789973 -2.6149,3.44032 -6.9865,7.858667 -9.7145,9.81856 -3.3585,2.412907 -5.7818,5.317977 -7.505,8.997117 -2.368,5.05568 -2.4617,5.92022 -1.3467,12.42944 0.7033,4.10507 0.8218,7.93952 0.287,9.27968 -0.5013,1.25611 -1.5161,5.96715 -2.2553,10.46891 -1.3405,8.16373 -1.3536,8.18688 -5.0663,8.88341 -7.0285,1.31851 -11.9234,3.98432 -16.1662,8.80448 -2.3371,2.65504 -4.2492,5.42475 -4.2492,6.15488 0,2.07243 -13.0227,13.73974 -17.6823,15.84182 -10.3072,4.64992 -17.255,8.65664 -21.5186,12.4097 -5.62,4.94688 -12.7197,8.39862 -18.7107,9.09686 -2.4686,0.28768 -15.3908,0.65877 -28.716,0.82464 l -24.2276,0.30165 -4.8934,4.96352 c -2.6913,2.72992 -7.3889,6.11659 -10.439,7.52587 -20.412,9.43114 -20.9263,9.73525 -24.111,14.25333 -3.2034,4.54485 -12.3236,12.01259 -14.7305,12.06165 -2.169,0.0437 -2.9709,3.35862 -2.9709,12.27808 v 8.5184 l 5.3333,1.24587 c 2.9333,0.68533 7.3566,1.29205 9.8293,1.34837 7.1275,0.16235 13.5682,2.91328 25.443,10.86699 12.1913,8.16565 17.1882,13.72843 20.8456,23.20608 4.5496,11.78965 1.6855,25.12736 -8.3832,39.03861 -8.3669,11.56011 -13.0762,14.63723 -32.6127,21.30966 -9.1722,3.13269 -18.492,7.06304 -21.254,8.96341 -2.7055,1.86133 -5.2394,3.38432 -5.631,3.38432 -0.3917,0 -4.6251,1.90805 -9.4079,4.24011 -8.033,3.9169 -24.1569,8.01141 -46.0403,11.69141 -4.3472,0.73109 -14.018,4.15776 -20.7888,7.36608 -2.8256,1.33888 -4.5115,3.36384 -6.9333,8.32779 -1.76,3.60736 -4.4,8.29184 -5.8667,10.41002 -3.5179,5.08054 -23.732,19.20427 -30.4419,21.26976 -9.6994,2.98582 -21.2235,6.8144 -27.4969,9.13526 -5.8183,2.15242 -7.9816,2.28725 -34.6666,2.16064 -17.3244,-0.0821 -31.0776,0.34133 -35.1473,1.08234 -7.7711,1.41504 -15.4962,0.34998 -22.9813,-3.16832 -5.52,-2.59477 -11.1622,-2.46858 -12.8883,0.288 -1.4097,2.25142 1.8109,8.96342 7.4776,15.58358 4.242,4.95584 4.3408,5.56362 1.3397,8.248 -1.2495,1.11765 -3.4155,3.832 -4.8133,6.032 -2.3055,3.62826 -2.9768,4 -7.2217,4 -4.6732,0 -4.68,-0.0107 -4.68,-3.88918 0,-4.53685 -8.2884,-22.05077 -12.1273,-25.62592 -1.3673,-1.27338 -8.246,-5.5537 -15.286,-9.51178 -17.6686,-9.93398 -23.904,-14.23552 -36.4445,-25.14187 -5.9645,-5.1872 -11.5459,-9.43125 -12.4031,-9.43125 -0.8572,0 -3.3633,0.75402 -5.569,1.67562 -2.2057,0.9216 -7.8803,2.35606 -12.6101,3.18763 -4.7298,0.83168 -10.2077,2.04267 -12.173,2.69131 -2.6261,0.86666 -5.4297,0.856 -10.5774,-0.0405 -8.7484,-1.52352 -14.932,-4.39157 -21.0174,-9.74805 -2.6031,-2.29131 -5.7267,-4.16608 -6.9414,-4.16608 -4.6594,0 -30.1962,11.44501 -37.0928,16.62411 -2.7717,2.08149 -3.4416,3.41877 -3.8154,7.61696 -0.2494,2.80074 -1.1215,7.39232 -1.9378,10.20341 -1.8251,6.28416 -0.9952,7.88363 5.3047,10.22539 4.8355,1.79744 5.9581,3.04437 6.9238,7.69013 0.3155,1.51808 1.579,4.03808 2.8076,5.6 2.9742,3.78101 7.0609,3.70251 18.0427,-0.34656 4.7533,-1.75264 12.577,-4.19115 17.386,-5.41899 4.8088,-1.22784 11.6325,-3.83584 15.1636,-5.79552 8.8959,-4.93706 17.8414,-6.54901 27.1315,-4.88874 3.964,0.70837 8.7411,2.2208 10.6159,3.36096 2.9689,1.80544 3.2556,2.35904 2.2224,4.2896 -1.7729,3.31264 1.0763,5.76842 9.0021,7.75925 3.682,0.92491 10.974,3.65899 16.2046,6.07573 5.2306,2.41675 12.0303,5.34582 15.1103,6.50912 3.08,1.16331 5.6,2.2719 5.6,2.46347 0,0.19157 -1.4819,3.15712 -3.2931,6.59008 -3.0044,5.69419 -3.257,6.94315 -2.8806,14.2416 0.4753,9.22027 3.802,17.19765 8.6476,20.73685 2.5757,1.88128 4.9104,2.24726 16.2667,2.55019 12.777,0.34069 13.2601,0.43776 13.2757,2.66667 0.022,3.17269 0.8446,4.1184 6.3837,7.34325 7.7663,4.52149 18.2874,17.17995 22.0081,26.47883 1.104,2.75904 2.4957,4.38656 3.9783,4.65205 12.6691,2.26923 15.7145,3.18197 20.3973,6.11285 3.1043,1.94294 7.3644,3.57003 10.1496,3.87659 6.1239,0.67413 7.4667,1.79712 7.4667,6.24416 0,2.42144 1.2364,5.32117 3.7758,8.85589 3.5033,4.87638 12.1866,27.05622 12.2129,31.19552 0.011,0.97878 2.1457,4.28011 4.7545,7.33632 7.2445,8.48726 8.6269,12.1872 13.4325,35.95083 1.5042,7.43861 0.185,14.15968 -5.4643,27.83701 -5.0498,12.22635 -10.1799,18.90496 -17.8835,23.28246 -7.4774,4.24874 -7.6955,4.74464 -5.3716,12.2113 3.901,12.53408 1.9927,24.95552 -5.3207,34.63179 -5.8208,7.70155 -11.3108,11.304 -24.2019,15.88107 l -11.667,4.1425 -30.9334,0.1056 c -29.5106,0.10134 -31.1541,0.21323 -35.7333,2.43563 -4.3624,2.11733 -18.5896,5.73749 -21.6697,5.51392 -0.695,-0.0501 -2.4956,-0.46528 -4.0014,-0.92203 z m 611.3118,-1415.78624 c 5.2218,-2.63318 6.6233,-5.72233 3.5994,-7.93349 -3.0411,-2.22368 -0.631,-3.48304 8.7053,-4.54898 4.6501,-0.53091 9.8657,-1.50227 11.5903,-2.15858 1.7246,-0.6563 10.2494,-1.7994 18.9441,-2.54021 8.6947,-0.74081 16.2765,-1.81494 16.8485,-2.38697 0.5721,-0.57204 1.5099,-3.51698 2.084,-6.54431 1.4077,-7.42314 3.2787,-11.59901 7.8992,-17.63002 2.1387,-2.79174 3.8886,-5.61795 3.8886,-6.28046 0,-0.8462 -2.3007,-1.00401 -7.7333,-0.53045 -15.2547,1.32974 -26.6887,-3.61255 -37.0891,-16.03159 l -2.6892,-3.211 -28.5108,-0.20617 c -17.882,-0.1293 -29.2744,0.20243 -30.5588,0.88985 -3.2413,1.73469 -4.6473,7.72182 -3.8446,16.3717 0.9905,10.67265 0.9986,10.68886 7.5251,15.02224 9.8057,6.51054 14.5692,14.41858 17.0261,28.26526 0.7925,4.46592 1.7698,8.95985 2.1719,9.98651 0.9898,2.52782 4.4318,2.34685 10.1433,-0.53333 z m -40.7873,-45.81333 c 1.3788,-1.37882 1.7097,-12.51064 0.5758,-19.37428 -0.779,-4.71485 -2.9131,-5.96966 -14.8691,-8.74244 -8.6024,-1.99501 -9.3314,-1.52658 -11.0254,7.08376 -1.2539,6.37315 -1.2286,6.51302 2.1094,11.71489 1.8581,2.8956 3.4857,5.26473 3.6168,5.26473 0.1312,0 3.5612,1.18205 7.6222,2.62679 8.4451,3.00438 10.1852,3.21175 11.9703,1.42655 z m -234.7729,-14.95473 c 0.7043,-0.55296 2.7067,-3.53247 4.4498,-6.62113 3.8126,-6.75557 11.2537,-13.54318 18.3756,-16.76186 2.8751,-1.29941 5.2275,-3.07073 5.2275,-3.93628 0,-0.86553 -1.8,-3.34206 -4,-5.50338 -2.2,-2.16132 -5.68,-6.45639 -7.7333,-9.54462 -2.2896,-3.44351 -6.0021,-7.08253 -9.6,-9.40981 -3.2267,-2.08718 -7.2235,-4.91836 -8.8818,-6.29153 -1.6584,-1.37316 -3.8653,-2.49666 -4.9043,-2.49666 -4.5171,0 -22.0479,22.18664 -25.8367,32.69833 -4.9522,13.73936 -3.2814,21.49376 5.6084,26.02901 7.0309,3.58693 23.6427,4.7055 27.2948,1.83793 z m 139.3855,-5.19143 c 14.2132,-2.40167 15.4116,-9.46528 2.2547,-13.29009 -5.8342,-1.69606 -6.1026,-2.01095 -7.4593,-8.75142 -0.903,-4.4868 -3.626,-5.16997 -11.9792,-3.00544 -3.5512,0.92021 -7.3714,1.67311 -8.4894,1.67311 -4.7537,0 -4.6315,2.31087 0.4175,7.89771 2.7018,2.98959 5.8609,7.59562 7.0203,10.23562 3.0439,6.93147 3.8902,7.71342 7.6345,7.05461 1.7975,-0.31628 6.568,-1.13264 10.6009,-1.8141 z m 21.5341,-2.79289 c 1.2221,-1.22211 1.4106,-1.9552 0.5743,-2.23396 -1.9982,-0.66605 -4.3743,0.64824 -4.3743,2.41953 0,2.14738 1.5424,2.07206 3.8,-0.18557 z m -163.3254,1263.59057 c -0.7644,-1.2367 4.8196,-9.66955 6.8514,-10.34688 0.7458,-0.24854 1.2073,1.02901 1.2073,3.3424 0,2.77504 -0.7278,4.31722 -2.8105,5.95552 -3.1832,2.50389 -4.2208,2.71136 -5.2482,1.04896 z m -241.5413,-10.49963 c 0,-0.54709 1.08,-1.32288 2.4,-1.72384 1.32,-0.40096 4.0297,-1.95083 6.0216,-3.44427 3.4794,-2.60874 3.6783,-2.63776 5.0666,-0.73898 2.1514,2.94218 1.7643,4.70005 -1.2909,5.86165 -3.4845,1.32469 -12.1973,1.35723 -12.1973,0.0459 z m 8.6489,-82.26741 c -1.4031,-1.16843 -2.2804,-2.3951 -1.9497,-2.72587 0.8654,-0.86549 9.4928,-2.7088 10.0536,-2.14805 0.8486,0.84853 -2.9079,7.07029 -4.2469,7.03392 -0.7182,-0.0192 -2.4539,-0.99147 -3.857,-2.16 z"
         id="path3015"
         inkscape:connector-curvature="0"
         sodipodi:nodetypes="csscsssssscsscccssssccsccscscscsssssssscsscsssccssssssccccscccscsscscsccssccssssssccscsscccscsscccscsssccssscssccccccscccccssssscssscscccscsscscccsccssssccccccscccccscsssssccscscccssccssscscssscccssssccsscssscccssscsccscssssssscsccsssssscsscscccccccscsscsccsccccssccsccscsccccsccscssssssscccscssccscsscsscccssscccsccsssssssssssscsscssssssscccssscscsscsssscsscsssssscssscsssscsccsccssccscccccscsssscscscssssccccscssccsssssscsccssssssccssssscsscsssssscscssssssscsscsssssccscccccscsssssccscsssssscssscsssscsssssssscssscsccssscccsscssccsssscccsssssscsssscccsscsscsssccsscscscsscsssscsscssssssscscssscsscsccsccccscccscccscsssssscccscsssccscssccsccssssscsscsssscscccsscsscsssccccsssccscccssscccsssccsccsscscsscssscsssccccccsssssscsssccsccssssscsscssscscsssssssscsssssssssssssccsscsssscssccccc" />
    </g>
    <rect
       style="opacity:1;fill:#000006;fill-opacity:1;fill-rule:nonzero;stroke:#000000;stroke-width:100;stroke-miterlimit:4;stroke-dasharray:none;stroke-opacity:1"
       id="rect873"
       width="1200"
       height="200"
       x="-2358.2256"
       y="1428.9874" />
  </g>
</svg>
