<?xml version="1.0" encoding="UTF-8" standalone="no"?>
<!-- Created with Inkscape (http://www.inkscape.org/) -->

<svg
   xmlns:dc="http://purl.org/dc/elements/1.1/"
   xmlns:cc="http://creativecommons.org/ns#"
   xmlns:rdf="http://www.w3.org/1999/02/22-rdf-syntax-ns#"
   xmlns:svg="http://www.w3.org/2000/svg"
   xmlns="http://www.w3.org/2000/svg"
   xmlns:sodipodi="http://sodipodi.sourceforge.net/DTD/sodipodi-0.dtd"
   xmlns:inkscape="http://www.inkscape.org/namespaces/inkscape"
   width="640"
   height="640"
   id="svg2"
   version="1.1"
   inkscape:version="0.92.3 (2405546, 2018-03-11)"
   sodipodi:docname="BonsaiPackage.svg"
   inkscape:export-filename="BonsaiPackage.png"
   inkscape:export-xdpi="2.4000001"
   inkscape:export-ydpi="2.4000001">
  <defs
     id="defs4" />
  <sodipodi:namedview
     id="base"
     pagecolor="#ffffff"
     bordercolor="#666666"
     borderopacity="1.0"
     inkscape:pageopacity="0.0"
     inkscape:pageshadow="2"
     inkscape:zoom="1.4300157"
     inkscape:cx="267.75563"
     inkscape:cy="308.06557"
     inkscape:document-units="px"
     inkscape:current-layer="layer1"
     showgrid="false"
     inkscape:window-width="3000"
     inkscape:window-height="1875"
     inkscape:window-x="-13"
     inkscape:window-y="-13"
     inkscape:window-maximized="1"
     fit-margin-top="0"
     fit-margin-left="0"
     fit-margin-right="0"
     fit-margin-bottom="0"
     units="px" />
  <metadata
     id="metadata7">
    <rdf:RDF>
      <cc:Work
         rdf:about="">
        <dc:format>image/svg+xml</dc:format>
        <dc:type
           rdf:resource="http://purl.org/dc/dcmitype/StillImage" />
        <dc:title />
      </cc:Work>
    </rdf:RDF>
  </metadata>
  <g
     inkscape:label="Layer 1"
     inkscape:groupmode="layer"
     id="layer1"
     transform="translate(2257.7115,-934.0507)">
    <path
       style="fill:#ffffff;stroke-width:40"
       d="M -2188.6057,1044.0509 V 1147.217 1464.0508 H -1685.5919 L -1685.5917,1147.217 V 1044.051 Z"
       id="rect3007-8"
       inkscape:connector-curvature="0"
       sodipodi:nodetypes="ccccccc" />
    <g
       id="g1025"
       transform="matrix(1.04097,0,0,0.9999589,140.00091,36.535822)">
      <path
         sodipodi:nodetypes="cccccc"
         inkscape:connector-curvature="0"
         id="rect3007-2"
         d="M -2284.1317,958.06714 V 1477.0627 H -1707.7459 L -1707.7462,1081.951 V 958.06714 Z"
         style="fill:#ffffff;stroke:#ffffff;stroke-width:1.20099998" />
    </g>
    <rect
       style="fill:#444444;fill-rule:evenodd;stroke-width:0.5669291"
       id="rect895"
       width="543.01398"
       height="120"
       x="-2208.6057"
       y="1024.0509" />
    <path
       inkscape:connector-curvature="0"
       style="fill:none;stroke:#3a8f35;stroke-width:21.36881065"
       d="M -1846.1112,1240.3408 H -1729.4911 M -1837.286,1196.9045 H -1720.1317 M -1774.1572,1275.8353 -1746.0156,1162.2924 M -1818.0273,1274.2647 -1790.5235,1161.662 M -1864.8795,1257.1868 C -1889.6897,1273.9581 -1927.3382,1260.1063 -1935.5022,1231.3605 -1945.678,1203.2169 -1923.1306,1170.0376 -1893.1951,1169.1936 -1883.3954,1168.5422 -1873.4227,1171.0302 -1865.0781,1176.2089"
       id="path2-9" />
    <path
       style="fill:none;stroke:#444444;stroke-width:40"
       d="M -2188.6057,1044.0509 V 1147.217 1464.0508 H -1685.5919 L -1685.5917,1147.217 V 1044.051 Z"
       id="rect3007"
       inkscape:connector-curvature="0"
       sodipodi:nodetypes="ccccccc" />
    <g
       id="g848"
       transform="matrix(6.6666667,0,0,6.6666667,13300.767,-8019.7165)">
      <circle
         r="15"
         cy="1401.9735"
         cx="-2302.7087"
         id="path1206"
         style="fill:#ec2227;stroke-width:2" />
      <path
         inkscape:connector-curvature="0"
         id="path1082"
         d="M -2305.4471,1390.3426 C -2307.0791,1390.3426 -2308.4405,1391.5041 -2308.7479,1393.0457 -2308.9988,1392.9071 -2309.2881,1392.8315 -2309.5975,1392.8426 -2310.4332,1392.8732 -2311.1241,1393.5506 -2311.1697,1394.3856 -2311.2212,1395.3303 -2310.4704,1396.1121 -2309.5369,1396.1121 -2309.0315,1396.1121 -2308.5791,1395.8826 -2308.2791,1395.5223 -2307.9049,1396.1048 -2307.3565,1396.5661 -2306.7068,1396.8289 -2306.7079,1396.8507 -2306.7088,1396.8714 -2306.7088,1396.8934 -2307.1645,1396.6063 -2307.7047,1396.4402 -2308.283,1396.4402 -2309.9157,1396.4402 -2311.2381,1397.7628 -2311.2381,1399.3953 -2311.2381,1399.4252 -2311.237,1399.4558 -2311.2361,1399.4852 -2311.5214,1399.407 -2311.8294,1399.381 -2312.1483,1399.4246 -2313.2183,1399.5712 -2314.0436,1400.4766 -2314.0955,1401.5555 -2314.1188,1402.0419 -2313.9894,1402.4971 -2313.7498,1402.8758 -2314.1127,1403.1127 -2314.3432,1403.5334 -2314.3084,1404.0067 -2314.263,1404.6214 -2313.7542,1405.1175 -2313.1385,1405.1492 -2312.4302,1405.1856 -2311.8434,1404.6283 -2311.8338,1403.9305 -2311.5335,1403.9303 -2311.2482,1403.8708 -2310.9861,1403.7645 -2310.3848,1403.6019 -2308.9841,1403.3115 -2307.6736,1403.6961 -2306.547,1404.0268 -2305.6761,1405.1654 -2305.66,1405.1863 -2305.1803,1406.1903 -2303.6745,1406.8557 -2303.6131,1407.5027 -2303.4241,1409.4976 -2307.8937,1410.1814 -2310.4217,1410.866 -2305.9606,1414.6093 -2299.457,1414.5312 -2294.9959,1410.7879 -2294.9959,1410.7879 -2300.002,1410.1285 -2301.0135,1407.3113 -2301.775,1405.1904 -2303.6394,1404.9687 -2303.6463,1404.2039 -2303.6571,1403.0114 -2301.6512,1402.9833 -2301.615,1401.5164 -2301.6102,1401.322 -2301.6333,1401.1479 -2301.6736,1400.993 -2301.0319,1400.9381 -2300.4446,1400.6943 -2299.9666,1400.3172 -2299.9611,1400.3284 -2299.9545,1400.3392 -2299.949,1400.3504 -2300.3306,1400.6397 -2300.5556,1401.1247 -2300.4705,1401.657 -2300.3774,1402.2394 -2299.9025,1402.701 -2299.3182,1402.7801 -2298.7411,1402.8581 -2298.2246,1402.573 -2297.9588,1402.1219 -2297.5712,1402.2635 -2297.1513,1402.3406 -2296.7147,1402.3406 -2294.9514,1402.3406 -2293.4836,1401.0819 -2293.16,1399.4129 -2292.3491,1399.2844 -2291.74,1398.5458 -2291.8182,1397.6824 -2291.8861,1396.9329 -2292.488,1396.3221 -2293.2361,1396.241 -2293.5027,1396.2122 -2293.7567,1396.2505 -2293.9861,1396.3387 -2294.6502,1395.5781 -2295.6256,1395.0965 -2296.7147,1395.0965 -2297.69,1395.0965 -2298.5752,1395.4834 -2299.2264,1396.1102 -2299.6502,1395.4295 -2300.3215,1394.9192 -2301.115,1394.7059 -2300.6559,1394.474 -2300.3396,1393.9991 -2300.3377,1393.45 -2300.3351,1392.7067 -2300.8898,1392.0995 -2301.6307,1392.0379 -2301.9236,1392.0134 -2302.1984,1392.0795 -2302.4334,1392.2098 -2302.9845,1391.1026 -2304.1263,1390.3426 -2305.4471,1390.3426 Z M -2303.2733,1400.993 C -2303.2484,1401.0938 -2303.2322,1401.2012 -2303.2322,1401.3172 -2303.2322,1401.9263 -2304.8086,1402.4859 -2305.492,1403.5789 -2305.9257,1403.2272 -2306.4437,1402.8902 -2306.9764,1402.7293 -2307.908,1402.4476 -2309.1197,1402.5516 -2309.7947,1402.6453 -2309.7045,1402.457 -2309.6387,1402.2527 -2309.6033,1402.0399 -2309.2054,1402.2393 -2308.7583,1402.3524 -2308.283,1402.3524 -2307.3238,1402.3524 -2306.4715,1401.8964 -2305.9315,1401.1883 -2305.5857,1401.4138 -2305.1738,1401.5438 -2304.7303,1401.5438 -2304.1717,1401.5438 -2303.6615,1401.3356 -2303.2733,1400.993 Z"
         style="fill:#ffffff;stroke-width:0.17150483" />
    </g>
  </g>
</svg>
