<?xml version="1.0" encoding="UTF-8" standalone="no"?>
<!-- Created with Inkscape (http://www.inkscape.org/) -->

<svg
   xmlns:dc="http://purl.org/dc/elements/1.1/"
   xmlns:cc="http://creativecommons.org/ns#"
   xmlns:rdf="http://www.w3.org/1999/02/22-rdf-syntax-ns#"
   xmlns:svg="http://www.w3.org/2000/svg"
   xmlns="http://www.w3.org/2000/svg"
   xmlns:sodipodi="http://sodipodi.sourceforge.net/DTD/sodipodi-0.dtd"
   xmlns:inkscape="http://www.inkscape.org/namespaces/inkscape"
   width="30"
   height="30"
   id="svg2985"
   version="1.1"
   inkscape:version="0.92.3 (2405546, 2018-03-11)"
   sodipodi:docname="Bonsai.svg"
   inkscape:export-filename="Bonsai.png"
   inkscape:export-xdpi="1034.1727"
   inkscape:export-ydpi="1034.1727">
  <defs
     id="defs2987" />
  <sodipodi:namedview
     id="base"
     pagecolor="#474747"
     bordercolor="#666666"
     borderopacity="1.0"
     inkscape:pageopacity="0"
     inkscape:pageshadow="2"
     inkscape:zoom="8"
     inkscape:cx="18.855694"
     inkscape:cy="-8.763234"
     inkscape:document-units="mm"
     inkscape:current-layer="layer2"
     showgrid="false"
     inkscape:window-width="1735"
     inkscape:window-height="1252"
     inkscape:window-x="264"
     inkscape:window-y="141"
     inkscape:window-maximized="0"
     units="px"
     showguides="true"
     inkscape:guide-bbox="true">
    <sodipodi:guide
       orientation="0,1"
       position="-63.769531,15"
       id="guide4444"
       inkscape:locked="false"
       inkscape:label=""
       inkscape:color="rgb(0,0,255)" />
    <sodipodi:guide
       orientation="1,0"
       position="15,45.727539"
       id="guide4446"
       inkscape:locked="false"
       inkscape:label=""
       inkscape:color="rgb(0,0,255)" />
  </sodipodi:namedview>
  <metadata
     id="metadata2990">
    <rdf:RDF>
      <cc:Work
         rdf:about="">
        <dc:format>image/svg+xml</dc:format>
        <dc:type
           rdf:resource="http://purl.org/dc/dcmitype/StillImage" />
        <dc:title />
      </cc:Work>
    </rdf:RDF>
  </metadata>
  <g
     inkscape:groupmode="layer"
     id="layer2"
     inkscape:label="Layer 1">
    <circle
       style="fill:#ec2227;stroke-width:2"
       id="path1206"
       cx="15"
       cy="14.999983"
       r="15" />
    <path
       style="fill:#ffffff;stroke-width:0.17150483"
       d="M 12.261719,3.3691406 C 10.629678,3.3691406 9.2682741,4.5306656 8.9609375,6.0722656 8.710026,5.9336656 8.4207229,5.8580406 8.1113281,5.8691406 7.2755851,5.8997406 6.5846829,6.5771094 6.5390625,7.4121094 6.4876112,8.356809 7.2383742,9.138672 8.171875,9.138672 8.6772998,9.138672 9.1297256,8.909128 9.4296875,8.548828 9.8039131,9.131328 10.352292,9.592669 11.001953,9.855469 11.000923,9.877269 11,9.897922 11,9.919922 10.544312,9.632822 10.004099,9.466797 9.4257812,9.466797 7.7930554,9.466797 6.4707031,10.789375 6.4707031,12.421875 6.4707031,12.451775 6.4717987,12.482319 6.4726562,12.511719 6.1874437,12.433519 5.8793744,12.407572 5.5605469,12.451172 4.4905282,12.597772 3.6652473,13.503131 3.6132812,14.582031 3.5899566,15.068431 3.7193922,15.523644 3.9589844,15.902344 3.5960802,16.139244 3.3655752,16.559903 3.4003906,17.033203 3.4458394,17.647903 3.9546102,18.144081 4.5703125,18.175781 5.2786274,18.212181 5.8653957,17.654831 5.875,16.957031 6.1753049,16.956831 6.460597,16.897316 6.7226562,16.791016 7.3239521,16.628416 8.724685,16.338056 10.035156,16.722656 11.161771,17.053356 12.032706,18.191991 12.048828,18.212891 12.528528,19.216891 14.034304,19.882297 14.095703,20.529297 14.284701,22.524197 9.8150922,23.207978 7.2871094,23.892578 11.748187,27.635878 18.251813,27.557753 22.712891,23.814453 22.712891,23.814453 17.706849,23.155091 16.695312,20.337891 15.933831,18.216991 14.06936,17.995269 14.0625,17.230469 14.051696,16.037969 16.057563,16.009869 16.09375,14.542969 16.098553,14.348569 16.075459,14.174431 16.035156,14.019531 16.676927,13.964631 17.264204,13.72085 17.742188,13.34375 17.747675,13.35495 17.754278,13.365753 17.759766,13.376953 17.378168,13.666253 17.153215,14.151294 17.238281,14.683594 17.331409,15.265994 17.806308,15.727541 18.390625,15.806641 18.967738,15.884641 19.484167,15.599537 19.75,15.148438 20.137601,15.290038 20.55749,15.367188 20.994141,15.367188 22.757382,15.367188 24.225199,14.108453 24.548828,12.439453 25.359703,12.310953 25.968831,11.572384 25.890625,10.708984 25.822709,9.959484 25.22076,9.348678 24.472656,9.267578 24.206138,9.238778 23.952129,9.277034 23.722656,9.365234 23.058589,8.604634 22.083197,8.123047 20.994141,8.123047 20.018794,8.123047 19.133626,8.509919 18.482422,9.136719 18.058634,8.456019 17.387303,7.9457219 16.59375,7.7324219 17.052869,7.5005219 17.369207,7.0256625 17.371094,6.4765625 17.373666,5.7332625 16.819025,5.1260531 16.078125,5.0644531 15.785194,5.0399531 15.510353,5.1060281 15.275391,5.2363281 14.724346,4.1291281 13.582477,3.3691406 12.261719,3.3691406 Z M 14.435547,14.019531 C 14.460414,14.120331 14.476563,14.22775 14.476562,14.34375 14.476562,14.95285 12.900243,15.512469 12.216797,16.605469 11.783061,16.253769 11.265116,15.916759 10.732422,15.755859 9.800807,15.474159 8.5891055,15.578175 7.9140625,15.671875 8.004274,15.483575 8.0701388,15.279206 8.1054688,15.066406 8.5033599,15.265806 8.9505415,15.378906 9.4257812,15.378906 10.38501,15.378906 11.237274,14.922944 11.777344,14.214844 12.123097,14.440344 12.535004,14.570312 12.978516,14.570312 13.537107,14.570312 14.047259,14.362131 14.435547,14.019531 Z"
       id="path1082"
       inkscape:connector-curvature="0" />
    <g
       id="g1052">
      <path
         inkscape:connector-curvature="0"
         d="M -12.93559,50.696686 -13.752742,48.718777 H -14.041369 L -13.05304,51.031543 H -12.824387 L -11.837307,48.718777 H -12.115938 Z M -12.93559,50.696686"
         id="path1342"
         style="fill:#ffffff;stroke-width:0.07996598" />
      <path
         inkscape:connector-curvature="0"
         d="M -11.358467,48.718777 V 51.0153 H -11.098577 V 48.718777 Z M -11.358467,48.718777"
         id="path1330"
         style="fill:#ffffff;stroke-width:0.07996598" />
      <path
         inkscape:connector-curvature="0"
         d="M -10.223394,49.293532 C -10.223394,49.083622 -10.033475,48.919941 -9.7348521,48.919941 -9.4987026,48.919941 -9.2850435,48.99491 -9.0726338,49.168586 L -8.9214481,48.968671 C -9.1538493,48.78125 -9.3937472,48.686291 -9.7286048,48.686291 -10.164669,48.686291 -10.482034,48.948679 -10.482034,49.316023 -10.482034,49.697111 -10.239637,49.867039 -9.7111122,49.98199 -9.2300668,50.083197 -9.1151158,50.205644 -9.1151158,50.421802 -9.1151158,50.654204 -9.3175296,50.815385 -9.6261483,50.815385 -9.9447628,50.815385 -10.174665,50.706681 -10.413313,50.490523 L -10.574495,50.680442 C -10.298362,50.926588 -9.9997394,51.047786 -9.6361441,51.047786 -9.1800881,51.047786 -8.8527274,50.791645 -8.8527274,50.395564 -8.8527274,50.040715 -9.0888769,49.854544 -9.5999095,49.742092 -10.104695,49.634637 -10.223394,49.513439 -10.223394,49.293532 Z M -10.223394,49.293532"
         id="path1350"
         style="fill:#ffffff;stroke-width:0.07996598" />
      <path
         inkscape:connector-curvature="0"
         d="M -6.4456208,48.718777 H -6.7042607 V 50.054459 C -6.7042607,50.555496 -6.9728965,50.811637 -7.3964663,50.811637 -7.8362792,50.811637 -8.0986675,50.533005 -8.0986675,50.038216 V 48.718777 H -8.3573075 V 50.054459 C -8.3573075,50.704182 -7.9699723,51.051535 -7.4027136,51.051535 -6.8292076,51.051535 -6.4456208,50.704182 -6.4456208,50.034467 Z M -6.4456208,48.718777"
         id="path1354"
         style="fill:#ffffff;stroke-width:0.07996598" />
      <path
         inkscape:connector-curvature="0"
         d="M -4.8188421,48.702534 H -5.061239 L -6.1082935,51.0153 H -5.8421567 L -5.5697726,50.408058 H -4.3203042 L -4.0516685,51.0153 H -3.773037 Z M -4.4215111,50.175657 H -5.4685657 L -4.9437889,49.004905 Z M -4.4215111,50.175657"
         id="path1314"
         style="fill:#ffffff;stroke-width:0.07996598" />
      <path
         inkscape:connector-curvature="0"
         d="M -3.3166979,51.0153 H -1.7648581 V 50.775402 H -3.0580579 V 48.718777 H -3.3166979 Z M -3.3166979,51.0153"
         id="path1326"
         style="fill:#ffffff;stroke-width:0.07996598" />
      <path
         inkscape:connector-curvature="0"
         d="M 1.603025,51.0153 0.89707538,50.076949 C 1.2581718,50.011977 1.5205601,49.788322 1.5205601,49.404735 1.5205601,48.991161 1.1956983,48.718777 0.69091309,48.718777 H -0.29616698 V 51.0153 H -0.03752701 V 50.12318 H 0.61844392 L 1.2844106,51.0153 Z M 1.2581718,49.414731 C 1.2581718,49.713354 1.0120265,49.890778 0.66842266,49.890778 H -0.03752701 V 48.958675 H 0.67092159 C 1.0420137,48.958675 1.2581718,49.129852 1.2581718,49.414731 Z M 1.2581718,49.414731"
         id="path1406"
         style="fill:#ffffff;stroke-width:0.07996598" />
      <path
         inkscape:connector-curvature="0"
         d="M 3.7375714,48.718777 H 2.0782773 V 51.0153 H 3.7538145 V 50.77915 H 2.3369173 V 49.975742 H 3.5901341 V 49.739593 H 2.3369173 V 48.954927 H 3.7375714 Z M 3.7375714,48.718777"
         id="path1398"
         style="fill:#ffffff;stroke-width:0.07996598" />
      <path
         inkscape:connector-curvature="0"
         d="M 5.3709389,48.702534 H 5.128542 L 4.0814875,51.0153 H 4.3476243 L 4.6200084,50.408058 H 5.8694768 L 6.1381125,51.0153 H 6.416744 Z M 5.7682699,50.175657 H 4.7212153 L 5.2459921,49.004905 Z M 5.7682699,50.175657"
         id="path1318"
         style="fill:#ffffff;stroke-width:0.07996598" />
      <path
         inkscape:connector-curvature="0"
         d="M 8.7065314,50.651705 8.5353542,50.484276 C 8.3166972,50.694187 8.1092855,50.815385 7.7944194,50.815385 7.2896342,50.815385 6.9060474,50.398063 6.9060474,49.86454 6.9060474,49.329767 7.2858858,48.919941 7.7944194,48.919941 8.1067865,48.919941 8.3229446,49.051136 8.5166122,49.234807 L 8.6927872,49.043639 C 8.4641345,48.827481 8.2142408,48.680043 7.7981678,48.680043 7.1222054,48.680043 6.6374117,49.214816 6.6374117,49.870787 6.6374117,50.533005 7.1259538,51.055283 7.7881721,51.055283 8.2042451,51.055283 8.4666334,50.894102 8.7065314,50.651705 Z M 8.7065314,50.651705"
         id="path1418"
         style="fill:#ffffff;stroke-width:0.07996598" />
      <path
         inkscape:connector-curvature="0"
         d="M 10.031886,48.958675 H 10.801558 V 48.718777 H 8.9985751 V 48.958675 H 9.7694972 V 51.0153 H 10.031886 Z M 10.031886,48.958675"
         id="path1386"
         style="fill:#ffffff;stroke-width:0.07996598" />
      <path
         inkscape:connector-curvature="0"
         d="M 11.31322,48.718777 V 51.0153 H 11.57311 V 48.718777 Z M 11.31322,48.718777"
         id="path1334"
         style="fill:#ffffff;stroke-width:0.07996598" />
      <path
         inkscape:connector-curvature="0"
         d="M 13.156743,50.696686 12.339591,48.718777 H 12.050964 L 13.039293,51.031543 H 13.267946 L 14.255026,48.718777 H 13.976395 Z M 13.156743,50.696686"
         id="path1346"
         style="fill:#ffffff;stroke-width:0.07996598" />
      <path
         inkscape:connector-curvature="0"
         d="M 16.370668,48.718777 H 14.711374 V 51.0153 H 16.386911 V 50.77915 H 14.970014 V 49.975742 H 16.223231 V 49.739593 H 14.970014 V 48.954927 H 16.370668 Z M 16.370668,48.718777"
         id="path1402"
         style="fill:#ffffff;stroke-width:0.07996598" />
      <path
         inkscape:connector-curvature="0"
         d="M 19.617187,49.450966 C 19.617187,48.99491 19.276082,48.718777 18.758802,48.718777 H 17.899168 V 51.0153 H 18.157808 V 50.205644 H 18.71632 C 19.204862,50.205644 19.617187,49.949503 19.617187,49.450966 Z M 19.354799,49.460961 C 19.354799,49.765832 19.106154,49.969495 18.725066,49.969495 H 18.157808 V 48.958675 H 18.738811 C 19.109903,48.958675 19.354799,49.129852 19.354799,49.460961 Z M 19.354799,49.460961"
         id="path1370"
         style="fill:#ffffff;stroke-width:0.07996598" />
      <path
         inkscape:connector-curvature="0"
         d="M 21.992424,51.0153 21.286474,50.076949 C 21.647571,50.011977 21.909959,49.788322 21.909959,49.404735 21.909959,48.991161 21.585097,48.718777 21.080312,48.718777 H 20.093232 V 51.0153 H 20.351872 V 50.12318 H 21.007843 L 21.673809,51.0153 Z M 21.647571,49.414731 C 21.647571,49.713354 21.401425,49.890778 21.057821,49.890778 H 20.351872 V 48.958675 H 21.06032 C 21.431412,48.958675 21.647571,49.129852 21.647571,49.414731 Z M 21.647571,49.414731"
         id="path1410"
         style="fill:#ffffff;stroke-width:0.07996598" />
      <path
         inkscape:connector-curvature="0"
         d="M 24.707975,49.86454 C 24.707975,49.227311 24.238175,48.680043 23.539722,48.680043 22.841269,48.680043 22.366471,49.234807 22.366471,49.870787 22.366471,50.506766 22.835022,51.055283 23.533474,51.055283 24.231927,51.055283 24.707975,50.500519 24.707975,49.86454 Z M 24.439339,49.870787 C 24.439339,50.395564 24.064498,50.815385 23.539722,50.815385 23.014945,50.815385 22.635107,50.389316 22.635107,49.86454 22.635107,49.339763 23.008698,48.919941 23.533474,48.919941 24.058251,48.919941 24.439339,49.34601 24.439339,49.870787 Z M 24.439339,49.870787"
         id="path1366"
         style="fill:#ffffff;stroke-width:0.07996598" />
      <path
         inkscape:connector-curvature="0"
         d="M 27.246546,50.704182 V 49.788322 H 26.2982 V 50.021973 H 26.996652 V 50.59173 C 26.839219,50.720425 26.596822,50.821632 26.334434,50.821632 25.777171,50.821632 25.426071,50.415555 25.426071,49.86454 25.426071,49.348509 25.789666,48.919941 26.2982,48.919941 26.623061,48.919941 26.819228,49.027396 26.996652,49.18233 L 27.164081,48.984914 C 26.934179,48.791246 26.69553,48.680043 26.308195,48.680043 25.619738,48.680043 25.157435,49.237306 25.157435,49.870787 25.157435,50.529257 25.603495,51.055283 26.324438,51.055283 26.711774,51.055283 27.032887,50.894102 27.246546,50.704182 Z M 27.246546,50.704182"
         id="path1374"
         style="fill:#ffffff;stroke-width:0.07996598" />
      <path
         inkscape:connector-curvature="0"
         d="M 29.732331,51.0153 29.026381,50.076949 C 29.387478,50.011977 29.649866,49.788322 29.649866,49.404735 29.649866,48.991161 29.325004,48.718777 28.820219,48.718777 H 27.833139 V 51.0153 H 28.091779 V 50.12318 H 28.74775 L 29.413716,51.0153 Z M 29.387478,49.414731 C 29.387478,49.713354 29.141332,49.890778 28.797728,49.890778 H 28.091779 V 48.958675 H 28.800227 C 29.171319,48.958675 29.387478,49.129852 29.387478,49.414731 Z M 29.387478,49.414731"
         id="path1414"
         style="fill:#ffffff;stroke-width:0.07996598" />
      <path
         inkscape:connector-curvature="0"
         d="M 31.299612,48.702534 H 31.057215 L 30.010161,51.0153 H 30.276298 L 30.548682,50.408058 H 31.79815 L 32.066786,51.0153 H 32.345417 Z M 31.696943,50.175657 H 30.649889 L 31.174665,49.004905 Z M 31.696943,50.175657"
         id="path1322"
         style="fill:#ffffff;stroke-width:0.07996598" />
      <path
         inkscape:connector-curvature="0"
         d="M 34.739686,49.156091 V 51.0153 H 34.999576 V 48.718777 H 34.737187 L 33.900044,49.971994 33.064149,48.718777 H 32.801761 V 51.0153 H 33.054153 V 49.15859 L 33.890048,50.385568 H 33.903792 Z M 34.739686,49.156091"
         id="path1358"
         style="fill:#ffffff;stroke-width:0.07996598" />
      <path
         inkscape:connector-curvature="0"
         d="M 37.589682,49.156091 V 51.0153 H 37.849572 V 48.718777 H 37.587183 L 36.75004,49.971994 35.914145,48.718777 H 35.651757 V 51.0153 H 35.904149 V 49.15859 L 36.740044,50.385568 H 36.753788 Z M 37.589682,49.156091"
         id="path1362"
         style="fill:#ffffff;stroke-width:0.07996598" />
      <path
         inkscape:connector-curvature="0"
         d="M 38.524234,48.718777 V 51.0153 H 38.784124 V 48.718777 Z M 38.524234,48.718777"
         id="path1338"
         style="fill:#ffffff;stroke-width:0.07996598" />
      <path
         inkscape:connector-curvature="0"
         d="M 41.148674,50.559244 39.70179,48.718777 H 39.459393 V 51.0153 H 39.711785 V 49.132351 L 41.194904,51.0153 H 41.401067 V 48.718777 H 41.148674 Z M 41.148674,50.559244"
         id="path1382"
         style="fill:#ffffff;stroke-width:0.07996598" />
      <path
         inkscape:connector-curvature="0"
         d="M 44.041481,50.704182 V 49.788322 H 43.093135 V 50.021973 H 43.791587 V 50.59173 C 43.634154,50.720425 43.391757,50.821632 43.129369,50.821632 42.572106,50.821632 42.221006,50.415555 42.221006,49.86454 42.221006,49.348509 42.584601,48.919941 43.093135,48.919941 43.417996,48.919941 43.614163,49.027396 43.791587,49.18233 L 43.959016,48.984914 C 43.729114,48.791246 43.490465,48.680043 43.10313,48.680043 42.414673,48.680043 41.95237,49.237306 41.95237,49.870787 41.95237,50.529257 42.39843,51.055283 43.119373,51.055283 43.506709,51.055283 43.827822,50.894102 44.041481,50.704182 Z M 44.041481,50.704182"
         id="path1378"
         style="fill:#ffffff;stroke-width:0.07996598" />
      <path
         id="path1261-6"
         d="M -8.2744834,43.9508 C -7.8124921,43.9508 -7.3748661,43.863 -6.9616031,43.6875 -6.5483424,43.512 -6.1878699,43.2696 -5.8795644,42.9603 -5.5712589,42.6514 -5.3301104,42.2897 -5.1548723,41.8751 -4.979947,41.4606 -4.8921716,41.0214 -4.8921716,40.5579 -4.8921716,40.0943 -4.979947,39.6552 -5.1548723,39.2406 -5.3301104,38.8268 -5.5712589,38.4647 -5.8795644,38.1555 -6.1878699,37.8465 -6.5483424,37.6041 -6.9616031,37.4283 -7.3748661,37.2527 -7.8124921,37.165 -8.2744834,37.165 -8.7367875,37.165 -9.1747241,37.2527 -9.5876742,37.4283 -10.000937,37.6041 -10.36172,37.8465 -10.669715,38.1555 -10.978021,38.4647 -11.222916,38.823 -11.405027,39.2303 -11.587136,39.638 -11.678035,40.0734 -11.678035,40.5367 V 40.5579 C -11.678035,41.0214 -11.587136,41.4606 -11.405027,41.8751 -11.222916,42.2897 -10.978021,42.6514 -10.669715,42.9603 -10.36172,43.2696 -10.000937,43.512 -9.5876742,43.6875 -9.1747241,43.863 -8.7367875,43.9508 -8.2744834,43.9508 M -8.2851031,34.9943 C -7.5126211,34.9943 -6.7888653,35.1386 -6.1144634,35.4263 -5.4400638,35.7146 -4.8500032,36.1113 -4.3442794,36.6171 -3.8385579,37.1228 -3.4415385,37.7129 -3.1535363,38.3873 -2.8655341,39.0617 -2.7215341,39.7854 -2.7215341,40.5579 -2.7215341,41.3307 -2.8655341,42.0541 -3.1535363,42.7285 -3.4415385,43.4029 -3.8385579,43.993 -4.3442794,44.4987 -4.8500032,45.0044 -5.4400638,45.4015 -6.1144634,45.6891 -6.7888653,45.9775 -7.5126211,46.1215 -8.2851031,46.1215 -9.0579002,46.1215 -9.7813432,45.9775 -10.455743,45.6891 -11.129832,45.4015 -11.720205,45.0044 -12.225927,44.4987 -12.731651,43.993 -13.128668,43.4029 -13.416672,42.7285 -13.704674,42.0541 -13.848674,41.3307 -13.848674,40.5579 V 27.7574 C -13.848674,27.6459 -13.758088,27.5553 -13.646573,27.5553 H -11.880449 C -11.768621,27.5553 -11.678035,27.6462 -11.678347,27.758 L -11.698027,35.7606 C -11.698651,35.9208 -11.519979,36.0192 -11.386285,35.9305 -10.994264,35.6703 -10.571631,35.4601 -10.118699,35.2998 -9.542695,35.0965 -8.9313927,34.9943 -8.2851031,34.9943"
         style="fill:#ffffff;stroke-width:0.07996599"
         inkscape:connector-curvature="0" />
      <path
         id="path1263-6"
         d="M 3.6748079,43.9299 C 4.1367992,43.9299 4.5744252,43.8421 4.9876882,43.6663 5.4009489,43.4907 5.7614214,43.2483 6.0697269,42.9391 6.3780324,42.6304 6.6191809,42.2684 6.794419,41.8539 6.9693442,41.4397 7.0571197,41.0005 7.0571197,40.5367 7.0571197,40.0731 6.9693442,39.6342 6.794419,39.2197 6.6191809,38.8055 6.3780324,38.4438 6.0697269,38.1345 5.7614214,37.8253 5.4009489,37.5832 4.9876882,37.4074 4.5744252,37.2315 4.1367992,37.144 3.6748079,37.144 3.212506,37.144 2.7745672,37.2315 2.3616171,37.4074 1.9483564,37.5832 1.5875711,37.8253 1.2795784,38.1345 0.97127058,38.4438 0.72637519,38.8055 0.54426658,39.2197 0.3621557,39.6342 0.27125666,40.0731 0.27125666,40.5367 0.27125666,41.0005 0.3621557,41.4397 0.54426658,41.8539 0.72637519,42.2684 0.97127058,42.6304 1.2795784,42.9391 1.5875711,43.2483 1.9483564,43.4907 2.3616171,43.6663 2.7745672,43.8421 3.212506,43.9299 3.6748079,43.9299 M 3.6641882,34.9734 C 4.4366724,34.9734 5.160426,35.1177 5.8348279,35.4051 6.5092275,35.6934 7.0992881,36.0901 7.6050119,36.5958 8.1110462,37.1019 8.5077528,37.6916 8.795755,38.3663 9.0837572,39.0404 9.2277594,39.7645 9.2277594,40.5367 9.2277594,41.3094 9.0837572,42.0332 8.795755,42.7076 8.5077528,43.3817 8.1110462,43.9718 7.6050119,44.4778 7.0992881,44.9835 6.5092275,45.3805 5.8348279,45.6682 5.160426,45.9565 4.4366724,46.1002 3.6641882,46.1002 2.8913911,46.1002 2.1679503,45.9565 1.4938613,45.6682 0.81945937,45.3805 0.229086,44.9835 -0.2766355,44.4778 -0.78235927,43.9718 -1.1793764,43.3817 -1.4673786,42.7076 -1.7553808,42.0332 -1.8993831,41.3094 -1.8993831,40.5367 -1.8993831,39.7645 -1.7553808,39.0404 -1.4673786,38.3663 -1.1793764,37.6916 -0.78235927,37.1019 -0.2766355,36.5958 0.229086,36.0901 0.81945937,35.6934 1.4938613,35.4051 2.1679503,35.1177 2.8913911,34.9734 3.6641882,34.9734"
         style="fill:#ffffff;stroke-width:0.07996599"
         inkscape:connector-curvature="0" />
      <path
         id="path1265-3"
         d="M 17.674479,35.7109 C 18.342316,36.1607 18.870843,36.7401 19.260679,37.4492 19.6502,38.1592 19.845118,38.9351 19.845118,39.7782 V 45.9191 C 19.845118,46.0309 19.754845,46.1215 19.643019,46.1215 H 17.87658 C 17.765065,46.1215 17.674479,46.0309 17.674479,45.9191 V 39.7782 C 17.674479,39.4128 17.603572,39.0654 17.462694,38.7349 17.321815,38.4051 17.127835,38.1171 16.880755,37.8712 16.633983,37.6254 16.348481,37.432 16.023929,37.2915 15.699693,37.1512 15.354528,37.0809 14.987498,37.0809 14.620778,37.0809 14.271238,37.1512 13.940129,37.2915 13.608707,37.432 13.322892,37.6254 13.083308,37.8712 12.843721,38.1171 12.652865,38.4051 12.511987,38.7349 12.37111,39.0654 12.300514,39.4128 12.300514,39.7782 V 45.9191 C 12.300514,46.0309 12.210241,46.1215 12.098413,46.1215 H 10.331978 C 10.220461,46.1215 10.129875,46.0309 10.129875,45.9191 V 35.1121 C 10.129875,35.0003 10.220461,34.91 10.331978,34.91 H 12.102473 C 12.212739,34.91 12.302389,34.9981 12.304887,35.108 L 12.309885,35.3592 C 12.313009,35.5113 12.477002,35.6059 12.609446,35.5316 12.90838,35.3629 13.229182,35.2261 13.57185,35.1208 14.029153,34.9806 14.503639,34.91 14.995617,34.91 15.487595,34.91 15.962707,34.9806 16.4197,35.1208 16.876693,35.2614 17.294641,35.4579 17.674479,35.7109"
         style="fill:#ffffff;stroke-width:0.07996599"
         inkscape:connector-curvature="0" />
      <path
         id="path1267-8"
         d="M 27.214799,40.9505 C 27.218852,40.9555 27.222914,40.9612 27.226353,40.9662 27.420335,41.2454 27.573078,41.5481 27.6846,41.8751 27.796736,42.2053 27.845779,42.553 27.832031,42.9181 27.817975,43.3817 27.712707,43.8106 27.515919,44.2035 27.319122,44.5971 27.059232,44.9413 26.736249,45.2362 26.412947,45.5314 26.033422,45.7597 25.597982,45.9212 25.162543,46.083 24.705867,46.1564 24.228253,46.1424 23.554164,46.114 22.946303,45.939 22.40559,45.6157 21.921418,45.3268 21.541581,44.9535 21.265762,44.4953 21.210785,44.4044 21.236399,44.2857 21.323553,44.2248 L 22.782308,43.2071 C 22.881331,43.138 23.014705,43.1762 23.070929,43.2827 23.15527,43.4435 23.281472,43.5854 23.448586,43.7084 23.687547,43.8843 23.968053,43.9718 24.291355,43.9718 24.656824,43.9858 24.976375,43.8843 25.250323,43.6666 25.524262,43.4485 25.661396,43.1783 25.661396,42.855 25.661396,42.757 25.654206,42.6864 25.64047,42.6442 V 42.602 C 25.626098,42.5739 25.619221,42.5492 25.619221,42.5283 25.619221,42.5074 25.61204,42.4827 25.597982,42.4546 25.499584,42.2156 25.317165,42.0191 25.050407,41.8645 25.008234,41.8364 24.944821,41.8083 24.8608,41.7802 L 24.881726,41.7589 C 24.684619,41.6468 24.467217,41.5378 24.228253,41.4325 23.98929,41.3269 23.746897,41.2148 23.501379,41.0952 23.255227,40.9762 23.012834,40.8493 22.774184,40.716 22.535221,40.5826 22.310629,40.4245 22.099782,40.2418 V 40.2205 L 22.036689,40.1574 C 21.741495,39.8766 21.509722,39.5499 21.341354,39.1775 21.17268,38.8055 21.09521,38.4082 21.109268,37.9868 21.123326,37.5654 21.221717,37.1721 21.404454,36.8067 21.586882,36.4415 21.829275,36.1254 22.131648,35.8583 22.433704,35.5916 22.788242,35.381 23.195564,35.2261 23.603208,35.0718 24.038646,35.0015 24.502202,35.0153 25.106321,35.0437 25.650777,35.1911 26.135569,35.4579 26.557262,35.6903 26.901491,35.9914 27.169185,36.3619 27.235413,36.4534 27.212607,36.5821 27.119528,36.6464 L 25.678571,37.6413 C 25.59236,37.7007 25.477098,37.6832 25.408687,37.6038 25.329657,37.5117 25.227517,37.4286 25.102882,37.3546 24.913273,37.2424 24.698677,37.1859 24.460027,37.1859 24.136733,37.1721 23.859659,37.2493 23.627884,37.4177 23.395791,37.5863 23.280216,37.7903 23.280216,38.029 23.280216,38.0996 23.287093,38.1483 23.301152,38.1767 23.328949,38.3313 23.39923,38.4647 23.511998,38.5769 23.621952,38.6874 23.7597,38.7777 23.924318,38.8471 23.930253,38.8499 23.935881,38.8524 23.941502,38.8558 24.206391,39.0089 24.50907,39.1654 24.850173,39.325 25.192532,39.4858 25.538321,39.6639 25.887858,39.8594 25.89161,39.8616 25.895359,39.8632 25.899101,39.8651 26.147125,39.9763 26.395459,40.1343 26.643473,40.3402 26.649095,40.3449 26.654406,40.3495 26.659724,40.3549 L 26.757178,40.4526 C 26.89587,40.5773 27.048615,40.7434 27.214799,40.9505"
         style="fill:#ffffff;stroke-width:0.07996599"
         inkscape:connector-curvature="0" />
      <path
         id="path1269-3"
         d="M 34.385804,44.0561 C 34.863418,44.0561 35.309476,43.9643 35.723988,43.7806 36.138187,43.5969 36.500217,43.3495 36.809461,43.0384 37.118394,42.7276 37.364226,42.3634 37.546965,41.9464 37.729381,41.5297 37.820911,41.0877 37.820911,40.6213 37.820911,40.1406 37.729381,39.692 37.546965,39.275 37.364226,38.858 37.118394,38.4938 36.809461,38.183 36.500217,37.8718 36.138187,37.6245 35.723988,37.4405 35.309476,37.2568 34.863418,37.165 34.385804,37.165 33.907889,37.165 33.46183,37.2568 33.047629,37.4405 32.633117,37.6245 32.271391,37.8718 31.962467,38.183 31.653223,38.4938 31.407384,38.858 31.224652,39.275 31.042226,39.692 30.950706,40.1406 30.950706,40.6213 30.950706,41.0877 31.042226,41.5297 31.224652,41.9464 31.407384,42.3634 31.653223,42.7276 31.962467,43.0384 32.271391,43.3495 32.633117,43.5969 33.047629,43.7806 33.46183,43.9643 33.907889,44.0561 34.385804,44.0561 M 34.375184,34.9943 C 35.146737,34.9943 35.872052,35.1418 36.552386,35.4369 37.232722,35.7318 37.828405,36.1323 38.340378,36.638 38.852034,37.144 39.2553,37.741 39.549865,38.4294 39.844114,39.1179 39.991548,39.8485 39.991548,40.6213 V 45.8772 C 39.991548,45.9887 39.900962,46.0793 39.789449,46.0793 H 38.02301 C 37.911497,46.0793 37.820911,45.9887 37.820911,45.8772 V 45.448 C 37.820911,45.2881 37.64317,45.1903 37.509475,45.2784 37.116835,45.5377 36.693886,45.7494 36.240327,45.9137 35.664325,46.1224 35.046157,46.2267 34.385804,46.2267 33.613014,46.2267 32.88613,46.0793 32.20486,45.7841 31.522966,45.4892 30.92978,45.0888 30.424058,44.5831 29.918337,44.0773 29.517874,43.4838 29.223001,42.8023 28.927503,42.121 28.780382,41.3938 28.780382,40.6213 28.780382,39.8485 28.92719,39.1179 29.221752,38.4294 29.516317,37.741 29.915834,37.144 30.42062,36.638 30.925405,36.1323 31.517968,35.7318 32.197991,35.4369 32.878325,35.1418 33.604264,34.9943 34.375184,34.9943"
         style="fill:#ffffff;stroke-width:0.07996599"
         inkscape:connector-curvature="0" />
      <path
         id="path1271-7"
         d="M 43.742457,35.1755 V 45.8981 C 43.742457,46.0099 43.651863,46.1002 43.540351,46.1002 H 41.773918 C 41.662396,46.1002 41.571812,46.0099 41.571812,45.8981 V 35.1755 C 41.571812,35.064 41.662396,34.9734 41.773918,34.9734 H 43.540351 C 43.651863,34.9734 43.742457,35.064 43.742457,35.1755 M 41.571812,33.633 V 31.8669 C 41.571812,31.7551 41.662396,31.6648 41.773918,31.6648 H 43.540351 C 43.651863,31.6648 43.742457,31.7551 43.742457,31.8669 V 33.633 C 43.742457,33.7445 43.651863,33.8351 43.540351,33.8351 H 41.773918 C 41.662396,33.8351 41.571812,33.7445 41.571812,33.633"
         style="fill:#ffffff;stroke-width:0.07996599"
         inkscape:connector-curvature="0" />
    </g>
  </g>
</svg>
