<?xml version="1.0" encoding="UTF-8" standalone="no"?>
<!-- Created with Inkscape (http://www.inkscape.org/) -->

<svg
   xmlns:dc="http://purl.org/dc/elements/1.1/"
   xmlns:cc="http://creativecommons.org/ns#"
   xmlns:rdf="http://www.w3.org/1999/02/22-rdf-syntax-ns#"
   xmlns:svg="http://www.w3.org/2000/svg"
   xmlns="http://www.w3.org/2000/svg"
   xmlns:xlink="http://www.w3.org/1999/xlink"
   xmlns:sodipodi="http://sodipodi.sourceforge.net/DTD/sodipodi-0.dtd"
   xmlns:inkscape="http://www.inkscape.org/namespaces/inkscape"
   width="1024.0428"
   height="1022.574"
   id="svg2"
   version="1.1"
   inkscape:version="0.48.1 "
   sodipodi:docname="Bonsai.svg">
  <defs
     id="defs4">
    <linearGradient
       id="linearGradient3817">
      <stop
         style="stop-color:#4c2710;stop-opacity:1;"
         offset="0"
         id="stop3819" />
      <stop
         style="stop-color:#2e170a;stop-opacity:1;"
         offset="1"
         id="stop3821" />
    </linearGradient>
    <linearGradient
       id="linearGradient3809">
      <stop
         style="stop-color:#000000;stop-opacity:1;"
         offset="0"
         id="stop3811" />
      <stop
         style="stop-color:#00b200;stop-opacity:1;"
         offset="1"
         id="stop3813" />
    </linearGradient>
    <linearGradient
       inkscape:collect="always"
       xlink:href="#linearGradient3809"
       id="linearGradient3815"
       x1="-628.78992"
       y1="1441.4624"
       x2="-1680.355"
       y2="-606.33649"
       gradientUnits="userSpaceOnUse" />
    <linearGradient
       inkscape:collect="always"
       xlink:href="#linearGradient3817"
       id="linearGradient3823"
       x1="-1231.092"
       y1="1110.484"
       x2="-1426.9924"
       y2="460.91336"
       gradientUnits="userSpaceOnUse" />
    <linearGradient
       inkscape:collect="always"
       xlink:href="#linearGradient3817"
       id="linearGradient3833"
       gradientUnits="userSpaceOnUse"
       x1="-1231.092"
       y1="1110.484"
       x2="-1426.9924"
       y2="460.91336" />
    <linearGradient
       inkscape:collect="always"
       xlink:href="#linearGradient3809"
       id="linearGradient3835"
       gradientUnits="userSpaceOnUse"
       x1="-628.78992"
       y1="1441.4624"
       x2="-1680.355"
       y2="-606.33649" />
    <linearGradient
       inkscape:collect="always"
       xlink:href="#linearGradient3809"
       id="linearGradient3838"
       gradientUnits="userSpaceOnUse"
       x1="-628.78992"
       y1="1441.4624"
       x2="-1680.355"
       y2="-606.33649" />
    <linearGradient
       inkscape:collect="always"
       xlink:href="#linearGradient3817"
       id="linearGradient3841"
       gradientUnits="userSpaceOnUse"
       x1="-1231.092"
       y1="1110.484"
       x2="-1426.9924"
       y2="460.91336" />
    <linearGradient
       inkscape:collect="always"
       xlink:href="#linearGradient3817"
       id="linearGradient3855"
       gradientUnits="userSpaceOnUse"
       x1="-1231.092"
       y1="1110.484"
       x2="-1426.9924"
       y2="460.91336" />
    <linearGradient
       inkscape:collect="always"
       xlink:href="#linearGradient3809"
       id="linearGradient3857"
       gradientUnits="userSpaceOnUse"
       x1="-628.78992"
       y1="1441.4624"
       x2="-1680.355"
       y2="-606.33649" />
    <linearGradient
       inkscape:collect="always"
       xlink:href="#linearGradient3809"
       id="linearGradient3860"
       gradientUnits="userSpaceOnUse"
       x1="-628.78992"
       y1="1441.4624"
       x2="-1680.355"
       y2="-606.33649" />
    <linearGradient
       inkscape:collect="always"
       xlink:href="#linearGradient3817"
       id="linearGradient3873"
       gradientUnits="userSpaceOnUse"
       x1="-1231.092"
       y1="1110.484"
       x2="-1426.9924"
       y2="460.91336" />
    <linearGradient
       inkscape:collect="always"
       xlink:href="#linearGradient3809"
       id="linearGradient3875"
       gradientUnits="userSpaceOnUse"
       x1="-628.78992"
       y1="1441.4624"
       x2="-1680.355"
       y2="-606.33649" />
    <linearGradient
       inkscape:collect="always"
       xlink:href="#linearGradient3809"
       id="linearGradient3878"
       gradientUnits="userSpaceOnUse"
       x1="-628.78992"
       y1="1441.4624"
       x2="-1680.355"
       y2="-606.33649" />
    <linearGradient
       inkscape:collect="always"
       xlink:href="#linearGradient3809"
       id="linearGradient3952"
       gradientUnits="userSpaceOnUse"
       x1="-628.78992"
       y1="1441.4624"
       x2="-1680.355"
       y2="-606.33649" />
    <linearGradient
       inkscape:collect="always"
       xlink:href="#linearGradient3817"
       id="linearGradient4039"
       gradientUnits="userSpaceOnUse"
       x1="-1231.092"
       y1="1110.484"
       x2="-1426.9924"
       y2="460.91336" />
    <linearGradient
       inkscape:collect="always"
       xlink:href="#linearGradient3809"
       id="linearGradient4041"
       gradientUnits="userSpaceOnUse"
       x1="-628.78992"
       y1="1441.4624"
       x2="-1680.355"
       y2="-606.33649" />
  </defs>
  <sodipodi:namedview
     id="base"
     pagecolor="#ffffff"
     bordercolor="#666666"
     borderopacity="1.0"
     inkscape:pageopacity="0.0"
     inkscape:pageshadow="2"
     inkscape:zoom="0.50558689"
     inkscape:cx="512.02142"
     inkscape:cy="511.28699"
     inkscape:document-units="px"
     inkscape:current-layer="layer1"
     showgrid="false"
     inkscape:window-width="1366"
     inkscape:window-height="706"
     inkscape:window-x="-8"
     inkscape:window-y="-8"
     inkscape:window-maximized="1"
     fit-margin-top="0"
     fit-margin-left="0"
     fit-margin-right="0"
     fit-margin-bottom="0"
     units="px" />
  <metadata
     id="metadata7">
    <rdf:RDF>
      <cc:Work
         rdf:about="">
        <dc:format>image/svg+xml</dc:format>
        <dc:type
           rdf:resource="http://purl.org/dc/dcmitype/StillImage" />
      </cc:Work>
    </rdf:RDF>
  </metadata>
  <g
     inkscape:label="Layer 1"
     inkscape:groupmode="layer"
     id="layer1"
     transform="translate(2257.7115,-551.47673)">
    <g
       id="g3956"
       transform="matrix(0.53819978,0,0,0.36911438,-1042.6078,992.11883)">
      <g
         style="stroke:#000000;stroke-width:30;stroke-miterlimit:4;stroke-opacity:1;stroke-dasharray:none"
         id="g3843">
        <path
           inkscape:connector-curvature="0"
           id="path3017"
           d="m -2056.5626,1558.6019 c 0.4653,-2.3264 -0.2478,-4.3001 -3.3418,-9.25 -2.1633,-3.4609 -6.2154,-10.8513 -9.0045,-16.4233 -2.7892,-5.5719 -7.4378,-13.82 -10.3303,-18.3292 -5.6772,-8.8501 -12.3897,-23.4827 -13.9013,-30.3031 -4.0005,-18.0503 2.9738,-48.3593 13.6103,-59.1482 5.186,-5.2604 17.7356,-11.8271 26.8261,-14.0372 17.0999,-4.1572 60.0821,-6.8689 88,-5.5518 30.9946,1.4622 66.3043,2.5003 85.0466,2.5003 14.5563,0 17.4366,-0.2558 19.7167,-1.7513 2.5634,-1.6812 2.8241,-1.671 6.5156,0.2531 3.6579,1.9066 5.3478,1.985 34.6555,1.6092 l 30.8101,-0.3951 2.4921,-2.6877 c 1.7113,-1.8455 3.1613,-2.5274 4.6278,-2.1762 6.6757,1.5987 10.2968,1.7497 16.0271,0.6685 7.9701,-1.5039 11.8171,-3.8066 15.132,-9.0578 3.0158,-4.7773 4.4529,-4.3226 6.3499,2.0091 1.8579,6.2013 6.5341,7.8432 10.4243,3.6603 3.1609,-3.3987 8.8088,-6.624 11.6071,-6.6284 1.4972,0 3.8251,-1.4967 6.1677,-3.9593 l 3.7628,-3.9555 1.0349,2.9687 c 1.933,5.5449 6.5659,4.7579 9.5972,-1.6302 1.6385,-3.4529 1.6372,-4.9566 -0.01,-11.6084 -0.5702,-2.3022 0.018,-3.3166 4.1658,-7.1794 4.7497,-4.4239 4.8095,-4.5547 3.6034,-7.89 -0.6745,-1.8654 -1.2264,-3.6342 -1.2264,-3.9307 0,-0.2965 2.4176,-0.7886 5.3724,-1.0936 9.3975,-0.9699 16.7014,-6.1794 20.1136,-14.346 1.6276,-3.8954 2.0165,-3.9913 6.6104,-1.6293 5.3386,2.7449 14.3837,2.3308 19.9169,-0.9119 2.469,-1.447 5.3458,-3.5775 6.3929,-4.7345 2.5409,-2.8076 5.7527,-2.6562 8.4069,0.3964 2.6179,3.0109 3.5585,3.0837 7.1157,0.5507 l 2.7375,-1.9493 3.6757,2.6153 3.6757,2.6153 2.2411,-2.0685 c 2.0877,-1.9268 6.6782,-4.7605 12.8298,-7.9196 1.4237,-0.7311 4.0627,-1.6241 5.8643,-1.9845 3.0322,-0.6064 3.2239,-0.4919 2.5788,1.5407 -0.8151,2.5681 0.9144,5.0999 3.4838,5.0999 2.2751,0 2.9761,-1.9339 3.0199,-8.3318 0.045,-6.5709 1.5102,-9.1477 8.0402,-14.1408 2.9633,-2.2659 6.3191,-5.9956 7.6726,-8.5274 2.048,-3.8312 2.3321,-5.4661 1.9115,-11 -0.2717,-3.575 -0.6438,-7.4 -0.8269,-8.5 -0.2736,-1.6441 0.2899,-2.048 3.1672,-2.2699 6.1484,-0.4742 8.1302,-1.2492 10.8722,-4.2513 1.4745,-1.6143 5.1439,-4.1825 8.1543,-5.707 4.5854,-2.3221 5.9197,-3.6527 8.2235,-8.2011 1.5125,-2.9861 2.7569,-6.8111 2.7653,-8.5 0.019,-3.7822 0.8982,-5.0707 3.4606,-5.0707 1.3271,0 2.274,-0.9851 2.8836,-3 0.4992,-1.65 1.2817,-3.9 1.7388,-5 0.4571,-1.1 0.9595,-3.3022 1.1164,-4.8938 0.2349,-2.3824 1.5222,-3.6651 7.2853,-7.2591 3.85,-2.4009 9.25,-5.5457 12,-6.9883 2.75,-1.4426 6.4239,-3.8659 8.1642,-5.385 3.1088,-2.7137 5.6188,-3.775 14.0858,-5.9561 3.127,-0.8055 4.25,-1.5975 4.25,-2.9972 0,-1.0464 -0.4421,-2.1757 -0.9823,-2.5096 -0.568,-0.351 0.1333,-2.293 1.6624,-4.6037 1.9255,-2.9095 3.0766,-3.7992 4.2323,-3.2709 3.0933,1.4137 7.0205,0.6213 10.2829,-2.0748 1.8176,-1.5021 6.0047,-4.3043 9.3047,-6.2271 5.4839,-3.1953 6.3111,-3.403 9.616,-2.4152 6.4555,1.9295 10.7061,1.3862 13.6904,-1.7497 1.4815,-1.5568 4.8265,-3.6172 7.4333,-4.5788 2.6068,-0.9615 4.9958,-2.1628 5.309,-2.6695 1.1098,-1.7957 4.1464,-0.8859 5.2694,1.5788 0.6264,1.375 1.7452,2.5 2.4862,2.5 1.7212,0 4.9934,-3.5735 7.1146,-7.7697 0.9091,-1.7984 3.4878,-4.5989 5.7304,-6.2235 2.2426,-1.6246 4.814,-4.2776 5.7141,-5.8957 0.9001,-1.6181 3.3924,-5.5676 5.5385,-8.7766 7.3392,-10.9746 8.092,-15.6025 4.4999,-27.6642 -1.7734,-5.9548 -1.9164,-7.5967 -0.9236,-10.6078 0.646,-1.9594 1.0277,-5.3625 0.8482,-7.5625 -0.2619,-3.2092 -0.7526,-4.0607 -2.4824,-4.3072 -5.3123,-0.757 -2.8112,-10.0933 4.1659,-15.5507 2.0095,-1.5718 4.4688,-4.7594 5.465,-7.0835 1.1598,-2.7058 4.5183,-6.6579 9.338,-10.9887 8.3403,-7.4942 12.9982,-15.4363 14.1917,-24.1984 1.0087,-7.4053 1.2562,-7.887 4.9619,-9.6541 6.3787,-3.0418 18.6641,-20.9927 20.4067,-29.8174 0.8311,-4.2086 1.8159,-7.847 8.2281,-30.4 8.6702,-30.4945 13.0266,-69.7006 9.5003,-85.5 -3.1075,-13.9232 -5.7807,-20.4307 -17.3879,-42.3292 -9.2532,-17.4574 -12.3859,-22.4864 -15.6421,-25.1105 -8.7698,-7.0674 -33.1214,-22.5929 -43.8142,-27.934 -10.0412,-5.0156 -12.878,-7.0918 -26.2574,-19.2172 -17.6579,-16.0027 -28.7928,-25.1453 -36.8131,-30.2264 -11.2663,-7.1374 -13.4502,-9.0568 -18.0196,-15.8375 -2.5371,-3.7649 -11.4234,-14.0452 -19.7474,-22.8452 -8.324,-8.8 -17.0617,-18.925 -19.4172,-22.5 -2.3554,-3.575 -5.191,-7.32 -6.3013,-8.3223 -1.1102,-1.0023 -2.5379,-3.076 -3.1726,-4.6082 -0.6347,-1.5323 -2.503,-3.7833 -4.1519,-5.0024 -2.4015,-1.7755 -2.7647,-2.4973 -1.8257,-3.6288 1.7504,-2.1091 0.3322,-6.0291 -3.0536,-8.44 -1.8508,-1.3179 -2.9976,-3.0193 -2.9976,-4.4473 0,-3.571 -4.7224,-15.2834 -8.2363,-20.4276 -1.737,-2.5429 -5.5106,-7.1036 -8.3858,-10.135 -7.9607,-8.3933 -13.133,-24.5277 -12.0333,-37.537 0.9894,-11.7045 -1.2949,-20.1137 -8.5283,-31.3953 -5.0266,-7.8397 -5.865,-9.7485 -4.9357,-11.2365 0.6157,-0.9858 1.1194,-2.4425 1.1194,-3.2371 0,-1.6141 -24.1117,-26.201 -33.6472,-34.3103 -6.1277,-5.2113 -25.8669,-15.181 -33.1532,-16.7449 -1.8151,-0.3896 -6.0901,-1.8707 -9.5,-3.2915 -5.3046,-2.2102 -8.0764,-2.6436 -19.1996,-3.002 -20.171,-0.6499 -60.6142,4.4081 -83,10.3804 -4.95,1.3206 -13.725,3.5606 -19.5,4.9778 -12.5954,3.091 -20.8954,6.2951 -22.3724,8.6366 -0.7969,1.2634 -0.7365,2.5907 0.2275,4.996 0.7221,1.8015 1.3876,3.9313 1.4789,4.7329 0.2705,2.375 -5.35,4.4721 -12.084,4.5086 -7.2914,0.04 -8.5605,1.9454 -1.9031,2.8579 5.9277,0.8124 13.5478,3.4834 17.0754,5.9851 1.6072,1.1398 5.3432,2.4009 8.3021,2.8025 6.6806,0.9066 8.2756,2.1838 8.2756,6.6269 0,2.3922 1.0681,4.9543 3.3882,8.1275 3.411,4.6651 7.4509,14.5319 10.4956,25.634 1.0648,3.8823 3.1615,7.9114 5.9409,11.4157 6.5575,8.268 7.2983,10.0781 11.2144,27.4049 2.7939,12.3612 2.3012,17.1855 -3.1704,31.0409 -5.7433,14.5436 -10.3622,20.1522 -22.3942,27.1932 -1.7332,1.0142 -1.7341,1.3066 -0.023,7.6282 3.7802,13.9651 0.484,27.9342 -8.7765,37.1947 -5.0346,5.0346 -8.8267,7.175 -20.8574,11.7728 l -8.3176,3.1788 -29.9052,0.2982 c -27.747,0.2766 -30.221,0.4467 -34.2832,2.3561 -4.357,2.0481 -16.4626,5.0017 -20.627,5.0328 -1.2016,0.01 -5.7846,-1.7643 -10.1846,-3.9407 -4.4,-2.1764 -11.375,-4.9384 -15.5,-6.1378 -13.2679,-3.8579 -24.3245,-8.3414 -30.1953,-12.2441 -4.693,-3.1199 -6.0817,-3.6159 -7.6995,-2.75 -3.3493,1.7925 -4.9856,1.2144 -9.3721,-3.3107 -2.4423,-2.5196 -5.9253,-4.8933 -8.2331,-5.611 -2.2,-0.6841 -5.8,-2.2441 -8,-3.4665 -2.2,-1.2224 -7.0213,-3.018 -10.714,-3.9903 -3.6926,-0.9723 -8.6907,-3.0214 -11.1068,-4.5536 -5.4037,-3.427 -6.2196,-3.6783 -16.1792,-4.9835 -19.4927,-2.5544 -22.2359,-3.3533 -26.775,-7.797 -4.1834,-4.0957 -10.0009,-7.2269 -13.4429,-7.2356 -0.9802,0 -6.0571,-2.0255 -11.2821,-4.4955 -7.1075,-3.3599 -10.7013,-4.4921 -14.2699,-4.4955 -6.099,-0.01 -15.4251,-3.7789 -22.45,-9.0828 -2.9879,-2.2559 -7.3906,-4.9677 -9.7836,-6.0263 -3.4764,-1.5377 -4.5896,-2.6756 -5.5374,-5.66 -0.6524,-2.0545 -3.7187,-8.5632 -6.8138,-14.4639 -4.0424,-7.7066 -6.3342,-11 -8.1364,-11.6922 -1.3799,-0.53 -8.1339,-1.6979 -15.0089,-2.5954 -10.4363,-1.3624 -34.5154,-6.097 -41.3431,-8.1292 -1.4796,-0.4404 -1.723,-1.1892 -1.2338,-3.7966 0.4533,-2.4164 -0.037,-4.4036 -1.9128,-7.7607 -2.4088,-4.3097 -2.456,-4.6999 -1.0511,-8.6817 1.8669,-5.2916 0.9475,-7.8335 -4.3518,-12.0306 -3.9345,-3.1162 -4.2571,-3.1915 -10.8798,-2.5389 -16.5172,1.6276 -31.4741,-6.9776 -38.4578,-22.1259 -1.8531,-4.0195 -2.2685,-6.6594 -2.2691,-14.4203 -6e-4,-8.2225 0.3608,-10.2713 2.6874,-15.2358 3.2268,-6.8851 10.5829,-14.5139 16.9746,-17.6039 2.5645,-1.2398 7.6987,-2.8146 11.4094,-3.4994 l 6.7466,-1.2452 1.6587,-6.0596 c 1.9959,-7.2912 5.6718,-13.7645 10.1875,-17.9399 5.4671,-5.0553 18.9833,-13.9485 24.2219,-15.9372 3.6575,-1.3885 5.7573,-3.067 8.3477,-6.6726 1.9035,-2.6495 4.4295,-5.023 5.6132,-5.2744 1.1837,-0.2513 7.3273,-0.6065 13.6523,-0.7892 9.5051,-0.2747 12.2324,-0.7159 15.7222,-2.5437 6.5199,-3.4148 10.9592,-7.8327 13.7069,-13.6408 2.2522,-4.7609 2.9544,-5.4175 6.8408,-6.3961 4.9705,-1.2515 12.7301,-6.4916 12.7301,-8.5966 0,-0.8089 -2.3913,-2.3166 -5.5463,-3.497 -9.5164,-3.5606 -12.8466,-5.7167 -16.1945,-10.4851 -3.4931,-4.9752 -10.5444,-10.0123 -16.2247,-11.5904 -1.944,-0.5401 -11.5228,-0.9845 -21.2862,-0.9875 l -17.7517,-0.01 -3.6797,-5.1219 c -2.0239,-2.8171 -5.7255,-6.6065 -8.2258,-8.4211 -2.666,-1.9347 -7.0378,-6.9504 -10.571,-12.128 -4.3437,-6.3654 -7.5366,-9.8397 -11.4428,-12.4511 -6.0658,-4.0552 -5.9269,-3.7309 -10.6549,-24.8779 -3.1573,-14.1215 -2.8031,-20.6844 1.6013,-29.6717 3.8628,-7.8823 11.9598,-15.4302 19.6322,-18.3008 3.1071,-1.1625 9.1448,-2.3832 13.4171,-2.7127 l 7.7679,-0.599 5.1181,-5.2659 c 7.6827,-7.9045 16.9987,-11.4499 30.0862,-11.4499 3.2707,0 8.5361,-0.8586 11.7008,-1.908 3.1647,-1.0493 6.969,-2.1773 8.4541,-2.5065 2.3036,-0.5107 2.9502,-1.4902 4.4038,-6.6708 1.9659,-7.0063 13.2292,-24.7861 19.0304,-30.0406 2.0488,-1.8558 6.2317,-5.7503 9.2954,-8.6545 3.0636,-2.9042 8.3896,-6.6194 11.8355,-8.2559 5.6237,-2.6709 6.5083,-3.5126 8.6387,-8.2196 3.5254,-7.7892 6.6094,-11.3463 16.8395,-19.4229 14.0599,-11.1001 20.3171,-12.8066 39.9228,-10.8874 7.5361,0.7377 9.8181,0.5517 17.5,-1.4265 l 8.8338,-2.2749 9.5,3.7901 c 6.0712,2.4222 12.0529,4.0405 16.5735,4.4837 3.8904,0.3815 9.0654,1.3932 11.5,2.2484 12.9505,4.5488 35.9585,5.5942 44.0779,2.0026 6.2181,-2.7506 11.514,-7.6934 14.6435,-13.6672 2.2422,-4.2802 2.6664,-6.3628 2.6664,-13.09 0,-6.7189 -0.423,-8.8007 -2.6414,-13 -5.7999,-10.979 -13.8236,-15.5102 -28.1276,-15.8846 -7.6259,-0.1995 -10.217,-0.7143 -15.1931,-3.0184 -4.7035,-2.1778 -7.629,-2.8123 -13.5452,-2.9374 -9.4138,-0.1991 -13.5252,-2.3375 -12.4931,-6.498 1.7854,-7.197 1.766,-7.9698 -0.2269,-9.0363 -1.1863,-0.635 -2.2157,-2.5551 -2.5941,-4.839 -0.3449,-2.0825 -2.0926,-6.2613 -3.8836,-9.2863 -1.791,-3.025 -3.9387,-8.425 -4.7726,-12 l -1.5163,-6.5 -4.8036,-0.5 -4.8037,-0.5 3.7419,-4.3598 c 3.2478,-3.7843 3.5804,-4.6184 2.5189,-6.3182 -0.7944,-1.272 -0.9861,-3.5385 -0.5469,-6.4672 0.6082,-4.0559 0.9031,-4.4519 2.9352,-3.9418 2.2117,0.5551 2.2672,0.3615 2.6533,-9.2519 0.3459,-8.6117 0.7942,-10.6309 3.6465,-16.4248 5.4468,-11.064 20.4274,-22.3047 34.5751,-25.9435 3.7863,-0.9738 7.5684,-2.3381 8.4046,-3.0317 0.9613,-0.7974 4.6566,-1.2611 10.0497,-1.2611 l 8.5293,0 1.2384,-6.6705 c 0.6811,-3.6687 1.7233,-7.5766 2.3161,-8.6842 1.8976,-3.5456 1.1921,-5.2934 -4.248,-10.5243 -6.6195,-6.3651 -16.427,-24.7514 -14.192,-26.6063 1.0152,-0.8425 1.0957,-1.9592 0.3389,-4.7002 -0.5572,-2.0183 -0.7819,-9.7835 -0.5122,-17.7048 0.7447,-21.8733 4.5617,-29.1437 21.1257,-40.2384 4.436,-2.9712 10.8369,-7.5327 14.2243,-10.1367 8.4293,-6.4799 19.7104,-12.7393 26.4642,-14.6838 3.891,-1.1202 10.1476,-1.6644 20.3121,-1.7667 16.5056,-0.166 16.5648,-0.1935 16.5648,-7.6953 0,-3.2087 -0.5158,-4.3806 -2.5,-5.6808 -1.375,-0.9009 -2.5,-2.4706 -2.5,-3.4882 0,-4.6221 13.892,-15.0847 25.1675,-18.9547 2.5672,-0.881 6.2127,-2.7805 8.1011,-4.2209 2.0031,-1.5278 4.6434,-2.5845 6.3373,-2.5363 3.9704,0.1128 7.4105,-1.0776 10.4488,-3.6159 1.4051,-1.1738 6.0067,-2.948 10.2257,-3.9427 l 7.671,-1.8084 4.6344,3.3295 c 4.2562,3.0579 5.3395,3.3569 13.2743,3.6645 7.8889,0.3058 21.4156,-2.0332 25.1671,-4.3517 0.535,-0.3307 0.9728,-3.972 0.9728,-8.0919 0,-4.7021 0.5583,-8.5703 1.4998,-10.391 0.8249,-1.5952 2.0063,-5.2853 2.6254,-8.2003 0.619,-2.915 1.9851,-7.1412 3.0358,-9.3917 2.3616,-5.058 11.2685,-15.921 19.6528,-23.9686 6.2224,-5.9725 6.2876,-6.0908 4.5,-8.16353 -2.0198,-2.34202 -22.4017,-10.56402 -26.3138,-10.61496 -1.375,-0.0179 -3.1279,0.1635 -3.8953,0.40312 -1.4778,0.46146 -3.7604,-2.38312 -12.5525,-15.64302 -9.1059,-13.7332 -10.3049,-21.05774 -6.5348,-39.92131 2.3234,-11.62574 3.2517,-14.22032 7.5131,-21 5.6627,-9.00451 10.4695,-17.28315 10.4695,-18.0269 0,-0.40141 1.615,-2.97773 3.5888,-5.72515 4.4069,-6.13407 5.5348,-9.26026 8.7889,-24.35897 3.9689,-18.41557 4.2575,-21.97426 1.8852,-23.24386 -1.4735,-0.78859 -2.1249,-2.51157 -2.5887,-6.84723 -0.3409,-3.18642 -1.4195,-8.21345 -2.397,-11.17118 -1.6354,-4.94867 -2.2958,-5.68164 -8.2772,-9.18758 -12.9255,-7.57609 -23.6685,-15.62046 -33.6333,-25.18473 l -10.1584,-9.75 -28.1041,0 c -25.6258,0 -30.4526,0.43059 -27.2203,2.42823 1.8842,1.16449 5.4323,10.39612 6.5615,17.07177 l 1.1841,7 5.4428,0.59244 c 2.9936,0.32584 7.2394,1.16614 9.4353,1.86734 6.428,2.05266 18.5905,9.2206 22.8017,13.43814 l 3.892,3.89792 -0.7036,6.60208 c -0.899,8.43526 -1.4462,9.36798 -7.929,13.51501 -3.3309,2.13074 -7.6832,6.41653 -11.4467,11.2717 -3.3397,4.30857 -7.6431,8.6797 -9.5629,9.71363 -2.685,1.44596 -3.8673,3.0136 -5.1222,6.7916 -4.382,13.19308 -17.0698,23.19744 -31.0787,24.50561 -6.0811,0.56787 -7.0293,0.99366 -12.1064,5.43651 -7.3306,6.4148 -14.5856,9.14353 -24.2518,9.12144 -8.3954,-0.0192 -13.8673,-1.67641 -21.3146,-6.45526 -4.455,-2.8588 -5.5938,-3.13549 -12.5426,-3.04744 -4.2036,0.0533 -9.6678,0.57014 -12.1428,1.14862 -5.7486,1.3436 -13.3931,1.34403 -18.5,0.001 -2.2,-0.57854 -15.925,-1.21116 -30.5,-1.40582 -28.3424,-0.37853 -31.3578,-0.8384 -39.1289,-5.96749 -1.9959,-1.31733 -6.4599,-2.90852 -9.9201,-3.53597 -12.5671,-2.2788 -19.42,-7.37452 -29.951,-22.27105 -9.6332,-13.62658 -11.225,-22.45653 -7.1606,-39.72001 2.7452,-11.65991 3.6875,-14.15368 7.7456,-20.5 2.5073,-3.92088 3.3222,-6.47429 3.7761,-11.83099 0.5026,-5.93243 4.1782,-18.30394 8.7293,-29.38163 1.2408,-3.02025 1.1371,-3.4394 -1.7329,-7 -4.4188,-5.48221 -6.5885,-6.25597 -17.5889,-6.27264 -17.9437,-0.0272 -28.9402,-2.45796 -47.2686,-10.44878 -7.15,-3.11726 -14.632,-6.36316 -16.6267,-7.21311 -10.6587,-4.54184 -42.2832,-38.66069 -47.0262,-50.73551 -4.9354,-12.5647 -3.6916,-20.31626 6.7964,-42.35677 4.9247,-10.34902 13.9215,-16.86949 28.5674,-20.70435 3.6911,-0.96644 7.1614,-2.2999 7.7119,-2.96325 0.6914,-0.83305 0.1799,-3.19895 -1.6538,-7.64952 -2.4393,-5.92031 -2.639,-7.45608 -2.4588,-18.91585 0.1079,-6.85982 0.4244,-13.19144 0.7033,-14.07027 0.279,-0.87883 2.9179,-2.59708 5.8644,-3.81833 11.4439,-4.74322 18.4222,-14.04996 17.2365,-22.98784 -0.8328,-6.27815 0.9596,-15.54484 4.1442,-21.42523 5.2849,-9.75865 16.7981,-17.75773 27.7414,-19.27396 4.3795,-0.6068 5.773,-1.4526 11.2295,-6.8159 3.4263,-3.36773 6.7668,-7.47605 7.4233,-9.1296 1.2583,-3.16925 10.714,-17.34576 14.2605,-21.38022 2.2018,-2.50469 13.9449,-12.12872 16.718,-13.70122 0.8972,-0.50877 5.4829,-5.05228 10.1904,-10.0967 6.4941,-6.95893 8.8265,-10.21593 9.6675,-13.5 0.6096,-2.38058 2.3869,-8.37833 3.9495,-13.32833 4.0158,-12.72162 4.204,-14.52678 2.4684,-23.67622 -1.9888,-10.48378 -1.3765,-38.73465 1.0039,-46.32378 0.8626,-2.75 2.0613,-7.7 2.6639,-11 1.2435,-6.81015 5.3237,-19.07042 7.0314,-21.12806 0.6262,-0.75457 2.0058,-1.37194 3.0658,-1.37194 3.2327,0 7.8279,-2.91064 7.8279,-4.95829 0,-1.97483 0.9557,-2.43868 7.1859,-3.48768 2.0272,-0.34133 6.5118,-2.50768 9.9657,-4.81411 6.1166,-4.08448 6.6057,-4.22506 18.8141,-5.40758 9.997,-0.96831 14.4343,-1.93454 21.9204,-4.77321 7.8625,-2.98141 10.6625,-3.55913 17.25,-3.55913 6.5306,0 8.203,0.3391 9.8639,2 2.847,2.84699 4.5779,2.48409 5.9621,-1.25 0.6626,-1.7875 1.6383,-4.06516 2.1682,-5.06146 0.5299,-0.99631 1.8133,-4.37131 2.8521,-7.50004 5.0662,-15.2589 7.0649,-20.5261 8.9086,-23.477 2.2307,-3.5703 14.678,-15.8885 20.109,-19.9004 5.8475,-4.3195 17.8489,-8.8111 23.5432,-8.8111 2.9144,0 6.7604,-0.8028 9.019,-1.8826 2.1658,-1.0354 5.5128,-2.2017 7.4378,-2.5916 1.925,-0.39 6.425,-1.5169 10,-2.5042 12.778,-3.5289 24.7659,-5.3338 30.2597,-4.5557 12.3554,1.7498 98.1823,2.4529 102.3886,0.8388 1.9358,-0.7428 4.3517,-5.6254 4.3517,-8.7949 0,-1.4242 0.8451,-4.2591 1.878,-6.2996 1.0328,-2.0406 2.186,-5.2852 2.5625,-7.2102 1.4956,-7.6465 2.4886,-9 6.6029,-9 3.2272,0 4.3564,-0.6413 7.4828,-4.25 2.0251,-2.3375 4.3547,-5.825 5.1768,-7.75 6.1337,-14.3617 8.4897,-16.5053 20.1867,-18.3665 4.4544,-0.7088 8.4258,-1.6156 8.8253,-2.0152 0.3995,-0.3995 0.7396,-5.9896 0.7557,-12.4223 0.026,-10.3609 0.3096,-12.2667 2.4851,-16.696 3.7161,-7.566 12.3581,-15.7195 19.5516,-18.4465 10.193,-3.864 16.2312,-3.7817 29.4926,0.4022 6.325,1.9955 13.075,4.4374 15,5.4264 1.925,0.989 4.7104,2.0969 6.1897,2.462 1.8732,0.4622 3.5043,2.1603 5.3729,5.5935 2.2655,4.1626 3.5227,5.2706 8.078,7.1195 11.6064,4.7107 19.3964,13.2816 21.2666,23.3989 1.2309,6.6582 3.7694,11.2699 11.3087,20.544 6.5963,8.1142 15.2712,12.9864 23.1893,13.0244 2.8021,0.013 7.0016,0.4645 9.3321,1.0022 4.79,1.1053 21.7825,9.0302 25.3894,11.8411 1.3053,1.0172 3.8358,2.5997 5.6233,3.5166 1.7875,0.9169 3.25,2.3981 3.25,3.2917 0,0.8936 1.2205,4.1193 2.7123,7.1683 2.2053,4.5075 2.7886,7.2901 3.1209,14.8865 0.3929,8.9842 0.5133,9.397 3.1366,10.7536 1.5005,0.7759 4.9336,1.9485 7.6291,2.6058 5.198,1.2676 7.253,2.1956 19.8233,8.9524 9.5753,5.1469 25.9208,20.7905 29.2954,28.0373 2.9589,6.354 4.4379,15.48016 4.624,28.53222 0.1569,11.00973 0.1238,11.17963 -3.5963,18.43809 -2.8237,5.50944 -3.4436,7.52349 -2.5,8.12257 2.0383,1.29409 10.8765,0.9203 16.1636,-0.6836 6.6927,-2.03031 11.8756,-1.88912 14.7032,0.40053 2.1401,1.73293 3.6752,1.8454 18.5036,1.35559 15.4278,-0.50961 16.3095,-0.43473 19.2111,1.63134 5.9666,4.24863 10.9195,5.29459 26.6732,5.63296 8.25,0.1772 15.7572,0.36003 16.6826,0.40629 0.9254,0.0463 1.9956,1.07033 2.3782,2.27571 0.3826,1.20539 2.4609,4.4249 4.6185,7.15448 4.9317,6.23905 6.1219,9.11422 9.4542,22.83794 2.5997,10.70712 2.652,11.48391 1.5934,23.69302 -0.6019,6.94263 -0.848,14.69556 -0.5468,17.22873 0.6407,5.3898 -0.8965,13.45144 -3.5642,18.69181 -7.731,15.18689 -9.4941,18.20783 -12.4066,21.25853 -3.8863,4.0707 -16.6073,14.70466 -20.1943,16.88112 -1.3833,0.8393 -2.515,1.86947 -2.515,2.28926 0,0.4198 2.1375,1.74337 4.75,2.94129 2.9508,1.35302 7.9697,5.45121 13.25,10.81936 4.675,4.75274 10.5786,10.18174 13.1192,12.06444 4.3455,3.22024 10.1959,10.28865 17.5447,21.19712 2.0421,3.03133 3.8161,7.55196 4.9051,12.5 0.9383,4.26321 3.2396,12.4763 5.1141,18.2513 3.3114,10.20176 3.4033,10.92606 3.2337,25.5 -0.096,8.25 0.1573,16.2375 0.5628,17.75 0.5713,2.13124 0.3897,2.75 -0.8073,2.75 -0.8495,0 -3.4523,2.71966 -5.784,6.04369 -4.858,6.92559 -11.1862,11.89181 -18.3883,14.43069 -5.0909,1.79465 -13.5,9.49474 -13.5,12.36178 0,1.78806 6.8455,0.92166 15.8639,-2.00781 5.0042,-1.62553 8.1253,-1.97475 14.6082,-1.63448 11.6213,0.60996 16.4959,3.26389 29.5279,16.07623 9.8898,9.72312 18.1395,15.59453 31.5,22.4188 2.2,1.12373 7.2989,3.74076 11.331,5.81563 4.032,2.07487 9.432,5.86513 12,8.42278 2.5679,2.55766 8.3754,8.14167 12.9055,12.40892 l 8.2364,7.75863 25.8517,-0.29743 25.8517,-0.29743 5.5701,-5.09255 c 3.0636,-2.8009 7.299,-5.88748 9.4119,-6.85906 2.1129,-0.97158 5.1483,-2.39243 6.7453,-3.15745 4.1665,-1.99588 38.2651,-1.97403 43.0557,0.0276 5.9193,2.47325 21.8637,3.9321 33.9381,3.10521 17.9735,-1.23087 37.78,-1.43175 42.3907,-0.42994 18.9871,4.1256 31.9403,23.1331 28.4725,41.78052 -0.6009,3.23088 -2.0303,7.8154 -3.1765,10.18783 -2.6462,5.4769 -2.6189,6.13038 0.4591,11.00634 1.3988,2.21581 2.9627,5.13187 3.4753,6.48013 0.868,2.28312 1.4313,2.45554 8.2067,2.51191 4.0012,0.0333 17.3998,0.16724 29.7748,0.29765 34.1907,0.36032 46.6148,3.33009 56.7828,13.57292 2.5945,2.61352 5.9393,5.53983 7.4329,6.50291 2.6059,1.68027 2.8282,1.67248 5.5,-0.19278 1.5314,-1.06911 4.9741,-2.76685 7.6505,-3.77277 2.6764,-1.00591 8.4665,-4.23878 12.867,-7.18415 11.292,-7.55819 13.688,-8.38041 26.7668,-9.18548 9.4971,-0.58461 12.2171,-1.1244 15.6175,-3.09937 l 4.1176,-2.39148 6.0075,2.69601 c 5.6876,2.55245 6.8302,2.69601 21.4573,2.69601 13.853,0 16.2095,0.25838 22.8001,2.5 4.0427,1.375 8.509,2.50819 9.9252,2.5182 1.4161,0.01 4.575,1.37345 7.0198,3.02988 2.4447,1.65643 5.5947,3.23982 7,3.51865 7.6886,1.52557 7.424,1.17016 7.7698,10.43941 0.2814,7.54556 0.7591,9.38702 4.2792,16.49386 5.6319,11.37041 6.6648,16.71443 5.1953,26.87803 -0.6541,4.52417 -1.1893,9.499 -1.1893,11.05518 0,3.05641 -4.9888,18.38332 -8.2589,25.37359 -1.4257,3.04761 -3.5642,5.29796 -7.3143,7.69689 -2.9148,1.86455 -5.7957,4.31716 -6.4021,5.45024 -0.6065,1.13309 -4.2016,3.62079 -7.9892,5.52822 -3.7877,1.90743 -7.1992,3.97367 -7.5811,4.59164 -0.4022,0.65083 1.4745,3.02087 4.4603,5.63284 8.1389,7.11968 10.9419,14.1291 8.6696,21.67954 -1.2445,4.13508 -1.2166,4.84397 0.2614,6.64939 1.5952,1.94864 2.3116,1.99305 20.0483,1.24265 14.7648,-0.62467 18.5509,-1.07416 19.1897,-2.27821 0.4378,-0.825 1.9077,-4.05382 3.2665,-7.17515 1.3588,-3.12133 4.3109,-7.67165 6.5602,-10.11183 2.2493,-2.44017 4.0896,-4.90656 4.0896,-5.48085 0,-0.57429 2.1002,-1.75977 4.6671,-2.63441 2.5669,-0.87463 5.392,-2.24629 6.278,-3.04812 1.6897,-1.52914 13.7212,-8.43268 20.5549,-11.79413 2.2,-1.08217 5.35,-3.2318 7,-4.77695 1.65,-1.54515 4.8519,-3.29847 7.1154,-3.89626 2.2634,-0.59779 5.8128,-2.43586 7.8875,-4.0846 4.3302,-3.44124 4.9614,-3.53728 9.8429,-1.4977 2.8456,1.18897 8.5213,1.50318 27.3721,1.51531 13.0801,0.008 24.2992,0.34592 24.9313,0.75 0.632,0.40408 1.307,1.85548 1.5,3.22532 0.4571,3.24517 4.3669,5.07808 12.809,6.00478 15.0483,1.65189 26.3359,10.50802 31.6912,24.86459 0.952,2.552 3.36,7.34 5.3513,10.64 5.3473,8.86209 5.5848,9.30767 9.5911,18 2.028,4.4 5.224,12.6815 7.1023,18.40333 3.3469,10.19545 3.4052,10.66504 2.922,23.5 -0.6286,16.69867 -2.1949,29.4631 -4.277,34.85597 -1.804,4.6723 -8.8631,14.7407 -10.335,14.7407 -0.5122,0 -3.2329,2.7658 -6.0461,6.1461 -3.5235,4.234 -4.9558,6.7545 -4.6035,8.1014 0.3105,1.1873 -0.5843,3.4675 -2.2783,5.806 -1.5342,2.1179 -3.3759,5.9451 -4.0926,8.5049 -0.9369,3.3463 -2.9673,6.3807 -7.2255,10.7979 -3.2573,3.379 -7.7494,8.047 -9.9822,10.3732 -2.2329,2.3263 -6.1335,5.2157 -8.6679,6.4209 -2.5344,1.2053 -6.408,3.395 -8.608,4.866 -2.2,1.4711 -6.2011,3.5046 -8.8914,4.519 -4.897,1.8464 -11.3419,6.5611 -21.5611,15.7726 -2.9989,2.7031 -8.3989,6.3777 -12,8.1657 -15.6289,7.76 -22.3897,12.3536 -24.6693,16.7618 -2.0726,4.0079 -0.7278,5.2972 7.4695,7.1617 9.2251,2.0982 27.2224,10.7022 32.4051,15.492 2.3359,2.1589 5.5846,6.1536 7.2191,8.8771 1.6346,2.7235 4.3346,5.7646 6,6.758 9.1613,5.4643 13.5188,7.2891 18.7804,7.8646 11.4363,1.2508 19.4276,5.9539 27.6539,16.2752 l 5.222,6.5519 0.1859,10.642 c 0.2065,11.8226 -1.2307,17.2778 -6.5132,24.7215 l -2.895,4.0795 1.0242,8.9205 c 1.6207,14.1151 4.3604,22.7203 8.9766,28.1949 13.9749,16.5736 11.5147,40.5309 -5.4903,53.4651 -6.3124,4.8012 -12.0044,6.7601 -21.7299,7.4781 l -7.8134,0.5769 -3.3116,5.1027 c -1.8214,2.8066 -4.9919,6.6778 -7.0456,8.6028 -2.0537,1.925 -4.7485,5.075 -5.9886,7 -4.0329,6.2607 -14.4963,11.3403 -27.7773,13.485 l -3.75,0.6056 0,7.2732 c 0,12.883 -1.7981,16.7671 -16.6312,35.9256 -4.6432,5.9971 -8.2702,12.0017 -10.3961,17.2106 -3.3868,8.2987 -3.662,10.847 -2.9165,27 0.813,17.6141 -9.316,31.1037 -27.7684,36.9816 -4.5289,1.4427 -8.5677,3.162 -8.9751,3.8207 -0.4074,0.6587 -0.6097,4.3477 -0.4495,8.1977 0.3822,9.1914 -3.0386,26.2143 -6.5729,32.7079 -3.6655,6.7347 -12.0319,14.1776 -18.7714,16.6991 -3.0109,1.1266 -10.0969,2.5024 -15.7467,3.0573 -5.6497,0.555 -12.7472,1.6847 -15.7722,2.5105 -3.025,0.8258 -8.3572,1.5068 -11.8493,1.5133 -5.4823,0.01 -7.1208,0.4857 -12,3.4821 -3.1079,1.9087 -8.5408,4.2045 -12.0731,5.102 -3.5322,0.8975 -8.6506,3.1645 -11.374,5.0379 -4.7113,3.2408 -11.0016,5.5297 -18.7082,6.8074 -6.2566,1.0373 -14.1232,6.8262 -27.4622,20.2089 -12.9407,12.983 -13.2253,13.195 -26.0584,19.4132 -9.9756,4.8336 -14.1508,7.4774 -18.0624,11.4372 -8.9157,9.0255 -21.0618,12.9678 -32.6624,10.6012 -3.4375,-0.7013 -7.4831,-1.5062 -8.9903,-1.7886 -2.1035,-0.3942 -3.6035,0.2443 -6.4544,2.7474 -2.0427,1.7935 -6.2096,4.4315 -9.2597,5.8621 l -5.5456,2.6011 -49.0081,0.1362 c -32.3827,0.09 -50.3623,0.5121 -53,1.2444 -5.9944,1.6642 -17.2545,1.309 -23.156,-0.7305 -6.625,-2.2895 -13.2369,-7.3748 -17.4823,-13.4459 -3.1817,-4.5499 -3.9039,-5.3833 -7.3883,-8.5256 -0.8059,-0.7268 -1.4653,-2.4052 -1.4653,-3.7298 0,-1.3246 -0.7405,-4.2589 -1.6455,-6.5207 -1.8262,-4.5643 -1.7057,-4.5483 -11.9674,-1.5875 -4.1206,1.1889 -12.6595,1.4716 -44,1.4569 -27.1583,-0.013 -40.7872,0.3588 -45.1871,1.232 -11.4507,2.2726 -21.9547,0.1427 -30.8709,-6.2599 -4.4552,-3.1992 -16.1116,-18.92 -18.801,-25.3566 -1.7817,-4.2641 -3.934,-21.6504 -3.7836,-30.5632 0.062,-3.6804 1.0228,-7.8639 2.7555,-12 1.615,-3.8552 2.9868,-9.5781 3.4917,-14.5669 1.3943,-13.7773 4.6923,-19.0834 20.5378,-33.0428 3.2838,-2.8929 8.8312,-6.6276 12.3276,-8.2994 7.0388,-3.3653 6.7529,-2.3462 3.6309,-12.9407 -1.9026,-6.4563 -1.4575,-15.4413 1.0949,-22.1009 3.2379,-8.4486 20.2825,-28.4427 30.6477,-35.9512 6.3868,-4.6265 12.4278,-5.9018 29.0604,-6.1347 14.7003,-0.2058 17.9629,-0.9753 16.2037,-3.8218 -0.9576,-1.5494 -22.5316,-17.4267 -31.4947,-23.1784 -7.6959,-4.9385 -10.6106,-5.6977 -13.9257,-3.6273 -1.5889,0.9922 -2.4839,0.7392 -5.4865,-1.5509 -1.9733,-1.5051 -3.5878,-3.1694 -3.5878,-3.6983 0,-1.2448 -10.935,-6.0947 -12.1076,-5.37 -0.4908,0.3033 -0.8924,2.9951 -0.8924,5.9818 0,6.4376 -2.0665,12.2682 -7.9572,22.4517 -5.5615,9.6142 -11.678,15.5119 -19.9504,19.2367 -3.6258,1.6326 -7.2674,3.5639 -8.0924,4.2917 -1.2558,1.1077 -3.0468,0.8735 -11,-1.4389 -5.225,-1.5191 -10.9715,-3.5269 -12.7701,-4.4618 -3.8816,-2.0177 -10.0193,-7.9822 -16.2299,-15.7719 -3.4441,-4.3197 -6.039,-6.3643 -11.0587,-8.7132 -4.0593,-1.8996 -8.4416,-5.0175 -11.5,-8.1819 -2.7363,-2.8312 -7.2782,-6.1672 -10.1784,-7.4759 -2.8804,-1.2998 -6.7128,-3.4889 -8.5164,-4.8646 -2.0726,-1.5809 -5.605,-2.8758 -9.5992,-3.5191 -3.4759,-0.5598 -7.7435,-1.927 -9.4836,-3.0383 -1.74,-1.1113 -6.3137,-3.591 -10.1637,-5.5105 -8.8582,-4.4164 -13.5445,-8.2983 -17.6307,-14.6045 -1.7793,-2.7459 -3.6872,-4.8418 -4.2397,-4.6577 -0.5525,0.1842 -1.4306,1.6568 -1.9514,3.2724 -1.3934,4.3233 -2.3507,5.2205 -10.8222,10.1428 -4.2427,2.4652 -7.9669,5.1413 -8.2761,5.947 -1.5123,3.941 3.4927,17.4537 10.5253,28.4169 2.7873,4.3451 5.6384,10.0446 6.3359,12.6655 0.6975,2.6209 4.2031,10.6153 7.7903,17.7653 8.9204,17.7804 14.1819,30.3945 19.8129,47.5 6.3471,19.2813 7.3742,28.0352 6.6683,56.8343 -0.6132,25.017 -2.2868,38.1843 -6.1566,48.4385 -2.2983,6.0899 -2.556,8.1883 -2.556,20.8099 l 0,14.037 -4.8878,5.1902 c -2.6883,2.8545 -5.7258,6.8253 -6.75,8.824 -1.0242,1.9986 -3.7747,6.1419 -6.1122,9.2073 -3.1168,4.0874 -4.25,6.5006 -4.25,9.051 0,4.5747 -1.3039,7.8522 -6.0106,15.1078 -2.1407,3.3 -5.3422,9.5943 -7.1145,13.9874 -4.5386,11.2498 -6.2327,13.7739 -12.4776,18.5919 -6.1373,4.7348 -9.5638,9.9841 -11.3373,17.3682 -1.0378,4.321 -2.2792,5.9674 -9.802,13 -7.5623,7.0696 -9.149,9.1815 -12.9995,17.3025 -4.3807,9.2395 -4.39,9.25 -8.131,9.25 -2.0599,0 -4.6009,0.6257 -5.6468,1.3905 -1.6016,1.1711 -1.7227,1.7829 -0.7678,3.8788 1.0052,2.2062 0.6923,3.0762 -2.759,7.6694 -3.6731,4.8885 -5.9358,10.3417 -5.9483,14.3363 -0.012,3.682 -6.9135,15.484 -10.9032,18.6439 -5.8248,4.6133 -8.9378,11.7183 -9.6748,22.0811 -0.4542,6.3866 -0.221,9.5553 0.9376,12.7443 1.437,3.9551 1.4104,4.5344 -0.3896,8.5 -1.0624,2.3407 -1.9416,5.9527 -1.9536,8.0268 -0.023,3.9908 3.067,16.2013 6.0054,23.7289 0.9661,2.475 2.3081,7.875 2.9821,12 1.4644,8.9626 2.2011,10.5404 5.7874,12.395 1.9753,1.0215 3.0824,2.7045 3.9756,6.0441 1.0446,3.9056 2.8833,6.2158 11.776,14.7948 5.7959,5.5915 12.8811,11.8509 15.7448,13.9098 2.8637,2.0589 7.4567,5.8072 10.2067,8.3297 5.3383,4.8965 39.2005,29.5266 40.5941,29.5266 0.9772,0 17.4123,13.1536 34.4379,27.5619 15.6649,13.2567 42.7757,39.56 45.617,44.2582 1.224,2.0239 4.1425,6.1549 6.4855,9.1799 7.1152,9.1861 11.0098,19.9163 21.8951,60.3242 3.0854,11.4533 7.1857,24.5033 9.1118,29 1.9262,4.4967 4.3365,12.2262 5.3564,17.1767 1.0199,4.9505 3.0508,12.1505 4.513,16 10.0503,26.4588 10.5173,30.0431 5.4259,41.6434 -4.2197,9.6142 -5.5652,26.0366 -3.9202,47.8471 0.6434,8.5297 1.76,24.2836 2.4814,35.00859 0.827,12.2932 1.8851,20.9783 2.863,23.5 1.2404,3.1982 1.5601,8.7495 1.5952,27.6946 l 0.044,23.6946 3.566,7.8054 c 1.9614,4.293 4.2623,11.1804 5.1131,15.3054 0.8509,4.125 1.9971,8.4 2.5471,9.5 2.4689,4.9381 10.3067,15.7436 14.8779,20.5113 4.7094,4.9118 4.9461,5.406 3.953,8.2547 -1.3161,3.7753 -0.101,5.4994 4.1766,5.9262 2.7977,0.2792 3.3505,0.9592 5.9406,7.3078 1.5708,3.85 2.7993,7.9 2.7301,9 -0.069,1.1 -0.076,2.5726 -0.015,3.2723 0.1651,1.8979 8.0846,10.1759 12.2653,12.8205 4.6801,2.9606 12.8401,14.9898 12.8607,18.9589 0.025,4.7959 1.3686,6.1193 4.8707,4.7974 3.2219,-1.2161 5.8023,0.1337 19.114,9.9988 3.025,2.2418 5.6882,4.2063 5.9182,4.3655 0.23,0.1593 -0.1832,1.4133 -0.9182,2.7866 -1.8452,3.4478 -0.6368,4.1579 3.3874,1.9907 3.2742,-1.7633 3.652,-1.7654 10.256,-0.059 3.7711,0.9746 8.557,2.118 10.6353,2.5409 2.0783,0.4229 4.6658,1.5717 5.75,2.553 1.837,1.6625 2.0958,1.6713 3.8,0.129 2.8025,-2.5362 5.6712,-1.9886 8.9106,1.7008 2.4873,2.833 3.0409,4.4825 3.5526,10.5862 0.5703,6.8019 1.8103,10.058 3.8305,10.058 1.8272,0 4.8132,-4.0473 5.8634,-7.9473 1.216,-4.5159 1.6122,-4.723 4.7838,-2.5015 l 2.2146,1.5511 -2.0891,2.8258 c -1.1491,1.5541 -1.9278,3.6634 -1.7307,4.6873 0.6288,3.2646 3.2506,2.5064 5.8251,-1.6845 l 2.4895,-4.0527 5.0105,0.6369 c 2.7558,0.3503 6.2298,1.5027 7.72,2.5609 1.4902,1.0582 4.1902,1.9251 6,1.9265 4.0801,0 20.7084,4.394 25.066,6.6189 1.7735,0.9055 5.1642,3.4204 7.5349,5.5887 5.1117,4.6753 9.7324,6.7845 14.9075,6.8046 4.0955,0.016 4.572,0.2422 14.8718,7.0584 7.5715,5.0106 12.1663,6.9269 16.6092,6.9269 1.5952,0 4.1156,0.6251 5.6008,1.3891 5.0846,2.6157 18.5158,4.7748 23.1816,3.7264 5.1609,-1.1595 6.3402,-0.7748 11.6809,3.8108 4.22,3.6234 7.3043,5.322 24.3378,13.4037 7.8924,3.7446 10.8179,4.6041 17.2881,5.0791 6.5079,0.4778 9.1381,1.2574 16,4.7421 4.5166,2.2936 10.1066,5.6884 12.4223,7.544 6.2731,5.0267 9.763,6.1088 24.1137,7.4769 11.7719,1.1223 13.1152,1.4473 13.5831,3.2867 0.7856,3.0882 6.2131,8.5412 8.5012,8.5412 2.8906,0 4.4263,-3.5414 3.7321,-8.6063 -0.6283,-4.5839 0.055,-5.8215 2.4072,-4.3582 1.1915,0.7412 1.2278,1.2657 0.2023,2.9204 -1.9628,3.1671 -1.4919,5.4381 1.7769,8.5699 l 3.027,2.9 3.474,-1.8709 c 2.975,-1.6021 4.0293,-1.7045 7.3391,-0.7129 2.1258,0.6369 5.7253,1.158 7.999,1.158 3.4427,0 4.134,0.3286 4.134,1.9648 0,2.6448 2.9174,4.0352 8.4664,4.0352 2.5288,0 6.2709,0.7301 8.3157,1.6223 2.6041,1.1364 7.7622,1.7515 17.2179,2.0534 9.9177,0.3166 16.2314,1.1039 23.7934,2.967 9.2253,2.2728 10.8337,2.4104 15.5,1.3256 2.8636,-0.6657 7.3688,-2.3659 10.0114,-3.7781 4.54,-2.4262 5.1221,-2.5022 10.5602,-1.379 3.1655,0.6539 9.5533,1.1941 14.1952,1.2006 4.9743,0.01 11.7247,0.8194 16.4398,1.9786 6.8529,1.6848 9.2261,1.8284 16.5511,1.001 5.6963,-0.6434 9.7026,-0.6257 12,0.053 3.2114,0.9487 27.0093,4.9214 29.6222,4.945 0.6453,0.01 2.4453,1.069 4,2.3626 2.5167,2.094 3.8815,2.3609 12.4463,2.4338 9.3543,0.08 9.8645,0.2062 18.5,4.5916 6.0839,3.0895 11.5306,5.0031 17.2962,6.0766 4.6287,0.8619 10.6729,2.2373 13.4315,3.0565 6.2578,1.8584 12.3906,1.8543 15.6527,-0.01 3.3023,-1.8878 6.5592,-1.8452 16.5752,0.2164 7.103,1.4621 8.8749,1.5226 11.9566,0.4082 1.9899,-0.7195 3.9217,-1.0046 4.2931,-0.6335 0.3713,0.371 0.819,41.8123 0.995,92.0918 l 0.3198,91.4171 -843.5448,0 -843.5449,0 0.5915,-2.9575 z m 501.3585,-264.0425 c 0,-0.55 -0.45,-1 -1,-1 -0.55,0 -1,0.45 -1,1 0,0.55 0.45,1 1,1 0.55,0 1,-0.45 1,-1 z m -303.5442,-836.9539 c 3.9496,-4.1225 8.5055,-6.0461 14.3196,-6.0461 5.501,0 12.6494,-2.1694 15.425,-4.6813 0.9898,-0.8958 1.7996,-2.8568 1.7996,-4.3579 0,-3.7829 -7.4947,-18.3983 -11.419,-22.2684 -1.7805,-1.7558 -8.3771,-6.0833 -14.6591,-9.6166 -15.5415,-8.7413 -21.3861,-12.7902 -33.6127,-23.286 l -10.4583,-8.9779 -5.6755,2.0907 c -3.1215,1.1498 -8.9644,2.5443 -12.9842,3.0988 -4.0199,0.5544 -8.6699,1.7119 -10.3333,2.5721 -2.3786,1.23 -3.6794,1.3358 -6.0905,0.4953 -1.6862,-0.5879 -3.8818,-1.0688 -4.8791,-1.0688 -3.8985,0 -13.3385,-4.43 -18.6379,-8.7465 l -5.5673,-4.5346 -5.0916,1.7599 c -7.709,2.6648 -25.5659,11.2643 -29.2925,14.1067 -2.8669,2.1867 -3.299,3.1033 -3.299,6.9975 0,2.4647 -0.675,6.0967 -1.5,8.0712 -0.825,1.9745 -1.5,4.2056 -1.5,4.958 0,0.7523 2.925,2.6941 6.5,4.3151 6.1626,2.7943 6.5,3.1252 6.5,6.3751 0,4.2349 3.3113,8.6976 6.4535,8.6976 1.2696,0 5.2556,-1.1093 8.8578,-2.4652 3.6021,-1.3558 10.7432,-3.6344 15.869,-5.0634 5.1258,-1.4291 13.1279,-4.4822 17.7825,-6.7848 8.2377,-4.0753 8.7296,-4.1866 18.5,-4.1866 8.7063,0 10.7002,0.3315 15.0372,2.5 4.5378,2.2689 4.9779,2.79 4.7615,5.6371 -0.3006,3.9542 0.7344,4.7657 8.6386,6.7731 3.5201,0.8939 10.7201,3.5898 16,5.9908 5.28,2.401 11.5124,5.1614 13.8499,6.1341 2.3375,0.9728 4.25,2.4077 4.25,3.1887 0,0.781 -1.2,3.4677 -2.6667,5.9704 -3.39,5.7846 -3.677,15.3058 -0.4614,15.3058 0.4147,0 2.0274,-1.3292 3.5839,-2.9539 z m 353.7496,-11.1635 c 2.038,-1.0328 4.963,-3.5558 6.5,-5.6067 5.3208,-7.0996 20.8269,-21.9232 28.2946,-27.049 7.7343,-5.3088 10.6218,-8.0432 17.8211,-16.8765 4.6544,-5.7108 7.1789,-10.9448 7.1789,-14.884 0,-3.0425 1.336,-5.8152 4.802,-9.9664 4.1164,-4.9302 8.9557,-16.1047 9.6811,-22.3546 l 0.6743,-5.81 13.1242,-13.394 c 7.2183,-7.3667 14.0713,-15.2047 15.2289,-17.4177 1.3103,-2.5049 4.0728,-5.3065 7.3187,-7.4223 10.1213,-6.5974 17.1408,-21.901 15.8711,-34.6014 -0.4036,-4.037 0.059,-6.2842 2.3999,-11.6676 1.5949,-3.6672 2.8998,-7.5865 2.8998,-8.7095 0,-1.1231 1.1048,-3.0727 2.4551,-4.3324 1.9284,-1.7991 2.9809,-4.7802 4.9059,-13.8959 1.348,-6.383 3.4606,-13.583 4.6948,-16 6.2543,-12.2488 1.6773,-35.4948 -11.4977,-58.3946 -6.6547,-11.5666 -8.6583,-13.9768 -13.8189,-16.6232 l -3.7609,-1.9285 2.152,-2.9107 c 2.453,-3.3179 2.1715,-8.4018 -0.7086,-12.7975 -1.5604,-2.3815 -1.7371,-2.4278 -2.6995,-0.7082 -0.5664,1.0121 -1.0731,4.8762 -1.126,8.587 l -0.096,6.7469 -5,0.6859 c -2.75,0.3773 -6.6057,1.4999 -8.5682,2.4947 -3.7471,1.8994 -10.9318,9.1725 -10.9318,11.0662 0,0.6088 -2.7525,3.7586 -6.1166,6.9998 -4.3632,4.2036 -8.7826,7.164 -15.4165,10.327 -5.1149,2.4388 -12.1305,6.7151 -15.5901,9.5029 -10.5922,8.5353 -13.2575,9.1342 -42.1386,9.4696 l -24.8574,0.2886 -4.1904,3.9944 c -5.5142,5.2562 -9.1266,7.6077 -15.1888,9.8871 -8.9735,3.3741 -15.1486,7.3011 -18.0389,11.4718 -1.5433,2.227 -5.6538,5.9214 -9.1344,8.2097 l -6.3283,4.1607 -0.1786,5.7879 c -0.098,3.1833 -0.2107,6.7972 -0.25,8.0308 -0.06,1.8878 0.7204,2.4268 4.9286,3.404 2.75,0.6386 7.025,1.215 9.5,1.2808 6.3333,0.1686 13.9623,3.6428 25.1091,11.4349 10.7385,7.5066 14.7175,12.282 18.4117,22.0963 2.2639,6.0149 2.3851,7.1535 1.4575,13.6944 -0.5565,3.9238 -1.8819,9.101 -2.9453,11.5049 -3.2645,7.38 -12.0553,19.1894 -16.917,22.7262 -4.2641,3.102 -22.4179,10.4476 -29.7728,12.0471 -1.7362,0.3775 -5.7862,2.2724 -9,4.2108 -3.2138,1.9384 -9.9786,5.5248 -15.0331,7.9698 -9.1509,4.4267 -9.8627,4.6106 -44.7599,11.5647 -2.7224,0.5426 -6.5474,1.7889 -8.5,2.7696 -1.9526,0.9808 -5.1657,2.0759 -7.1403,2.4337 -4.4501,0.8064 -7.0399,3.5205 -10.1846,10.6735 -1.3428,3.0545 -3.8563,7.1649 -5.5854,9.1343 -6.6895,7.6189 -27.5039,20.68 -33.1399,20.7953 -1.8914,0.039 -14.2064,4.2533 -19.5,6.6735 -3.4667,1.5849 -8.2664,1.9387 -36,2.6536 -49.1641,1.2674 -45.2909,1.3899 -51.911,-1.6409 -6.6043,-3.0236 -9.7839,-3.3445 -11.5888,-1.1697 -1.023,1.2326 -0.644,2.4971 2.1276,7.0992 4.8674,8.0822 9.2337,11.6807 13.2224,10.8976 1.7324,-0.3401 11.2498,-2.356 21.1498,-4.4797 16.5376,-3.5476 29.4165,-5.254 60.5,-8.0161 6.325,-0.562 15.775,-1.9414 21,-3.0654 8.1864,-1.761 13.7567,-2.0825 40.2858,-2.3252 21.7474,-0.199 31.1276,-0.6235 31.95,-1.4459 0.7687,-0.7687 5.6754,-1.1642 14.444,-1.1642 15.255,0 19.2023,1.0812 26.211,7.1795 2.4149,2.1013 4.7945,3.8205 5.2878,3.8205 0.4934,0 0.7676,1.2077 0.6092,2.6837 -0.265,2.4711 0.307,2.9309 7.222,5.8053 4.1304,1.7169 10.6058,5.2414 14.3897,7.8323 8.8083,6.0312 10.9975,6.5938 14.1466,3.6354 l 2.4353,-2.2879 5.7593,1.7984 c 3.1676,0.989 7.4001,2.4608 9.4055,3.2706 8.8432,3.5709 15.2158,3.6127 22.0592,0.1448 z m 192.5446,-1044.85567 c 4.2922,-1.94831 5.5078,-4.33027 2.75,-5.38856 -0.825,-0.31658 -1.5,-1.23921 -1.5,-2.05028 0,-2.4288 4.1584,-4.58809 8.8358,-4.58809 2.415,0 8.0524,-0.86956 12.5275,-1.93235 4.4752,-1.06279 13.3117,-2.24385 19.6367,-2.62458 6.325,-0.38073 12.247,-1.08031 13.1599,-1.55462 0.9301,-0.4832 1.972,-2.73677 2.3698,-5.12541 1.0273,-6.16893 3.3258,-11.615 7.1315,-16.89702 1.8363,-2.54868 3.3388,-4.82106 3.3388,-5.04972 0,-0.22867 -4.1625,-0.40765 -9.25,-0.39775 -12.8793,0.0251 -19.0448,-2.48483 -27.6853,-11.27025 l -6.4353,-6.54325 -26.4168,-0.20044 c -32.1174,-0.2437 -30.2126,-1.05725 -30.2126,12.90426 0,10.40598 0.1604,10.7508 7.3331,15.76848 8.1916,5.73049 13.7411,15.05374 15.1547,25.46008 0.9435,6.94573 2.4608,11.46644 3.8398,11.44061 0.6448,-0.0121 3.0849,-0.89008 5.4224,-1.95111 z m -37.3085,-51.02693 c -0.094,-12.0173 -0.4075,-12.60027 -8.0566,-14.96282 -6.9741,-2.1541 -11.9149,-2.60666 -12.8012,-1.17255 -0.2939,0.47555 -0.8321,3.39778 -1.196,6.49385 -0.5853,4.97979 -0.3678,6.0732 1.8852,9.47769 2.9057,4.39083 10.8314,8.09891 16.7271,7.8259 l 3.5,-0.16207 -0.058,-7.5 z m -222.0309,-5.60407 c 0.8658,-0.33224 3.6225,-3.68518 6.126,-7.45099 4.8035,-7.22556 9.2581,-11.30824 16.1456,-14.79758 2.3001,-1.16533 4.4547,-2.55988 4.7879,-3.099 0.3332,-0.53911 -0.9843,-2.00804 -2.9278,-3.26429 -1.9435,-1.25624 -3.8175,-3.18407 -4.1645,-4.28407 -1.9883,-6.30324 -8.476,-12.419 -23.1214,-21.79596 -1.6711,-1.06996 -9.8713,6.6829 -16.439,15.54223 -5.198,7.01174 -10.8174,20.41831 -10.8174,25.80779 0,5.61526 5.7428,11.15375 13.5,13.01961 3.789,0.91139 14.8272,1.12174 16.9106,0.32226 z m 131.5075,-5.52096 c 8.0335,-1.37315 10.0819,-2.3661 10.0819,-4.8871 0,-2.21882 -3.12,-4.5295 -7.5,-5.55446 -4.3181,-1.01047 -6.2645,-3.07982 -7.0018,-7.44413 -0.3561,-2.10793 -1.2238,-4.05374 -1.9281,-4.32401 -1.3953,-0.53543 -16.0172,2.43978 -17.0391,3.46705 -0.3459,0.34778 1.5443,3.5036 4.2005,7.01294 2.6562,3.50934 5.4328,7.8373 6.1703,9.61768 1.5342,3.70398 2.6467,3.88448 13.0163,2.11203 z m -91.6906,1901.91673 c -1.4462,-3.8313 -0.3256,-5.4498 2.6651,-3.8492 2.3618,1.264 2.5799,2.3061 1.0722,5.1232 -1.4565,2.7216 -2.3433,2.4193 -3.7373,-1.274 z"
           style="fill:url(#linearGradient4039);fill-opacity:1;stroke:#000000;stroke-width:30;stroke-miterlimit:4;stroke-opacity:1;stroke-dasharray:none"
           sodipodi:nodetypes="csccssssscssccscssscscsscccscsscssscccccccssscscscsscssscssssscccsssscccsssscsccsssssssssssssssscccscsssssscsssssssccsccscscccssccsscsccssccccsscsccscsccsssscccsssscsccscssccsccscssccscsssssccssccscccsssscsccscssccssccsccccccscssscscsssccssscsscscccccccscssccssscsccssssccsscssscssscsscccssscssssssssccsssssssscsscssssssssscsscccssssssssssssssccsscscssscscsssssccscscccssccccsssssssscscsscscsscsssssssscssssssssscscccsssssscccssscsssssscsssscscssssscsscccscssssssscsscccsccssscsccssssccscssscccsscsscssssccscscsscssscsccsccssssssscsscsssscscssssscssscscsscsccscssscccscsssscscccscssssssscccsssscsscsccscsscccsssssscssssscssssscsccccssccccccssccscscscsscccccccsscsscssccssscsscsscscccsssscssssccssscscccscccsscccccssssscscscsscccccssccssssssscccssccscssscccssssscsssscscccsccssccccsscssscsssccccscscccscscccsccccsscscsssssscscsscccsccsssssscssssscsssscscssssscccsscsscsssssssssscscscscc" />
      </g>
      <path
         style="fill:url(#linearGradient4041);fill-opacity:1;stroke:#000000;stroke-width:30;stroke-miterlimit:4;stroke-opacity:1;stroke-dasharray:none"
         d="m -2056.4041,1560.3594 c 2.0193,-2.0193 1.3609,-5.1511 -2.3879,-11.3588 -1.9734,-3.2677 -5.965,-10.6662 -8.8702,-16.4412 -2.9052,-5.775 -7.8536,-14.7112 -10.9963,-19.8583 -12.7598,-20.8973 -15.977,-33.8236 -13.2344,-53.174 1.6655,-11.7502 6.0975,-24.4099 10.7701,-30.7636 6.8779,-9.3524 21.9804,-16.0666 41.9187,-18.6358 25.1605,-3.2422 38.8913,-3.8533 68.5,-3.0487 15.95,0.4334 34.4,0.8583 41,0.9443 6.6,0.086 23.5345,0.536 37.6322,0.9999 22.7599,0.749 26.2064,0.6557 30.7564,-0.8326 4.6401,-1.5177 5.4042,-1.5311 8.0899,-0.1423 3.5747,1.8485 8.11,1.9947 40.9102,1.3183 24.6936,-0.5092 25.4342,-0.5838 27.0495,-2.7252 1.5429,-2.0455 2.1908,-2.1537 9.1303,-1.5249 5.4942,0.4979 9.1834,0.2434 13.9505,-0.9623 7.6403,-1.9325 10.9318,-4.0579 12.981,-8.3822 1.7799,-3.756 3.0337,-3.6543 4.3148,0.3499 2.339,7.311 8.7179,9.7153 12.9283,4.8729 3.1232,-3.592 8.0233,-6.4354 11.0901,-6.4354 1.4664,0 4.1021,-1.3213 6.0536,-3.0347 3.2992,-2.8968 3.4857,-2.9424 4.1014,-1.0024 0.9333,2.9404 5.1119,3.709 7.6545,1.408 4.6421,-4.2011 5.6278,-8.9795 3.334,-16.1628 -0.607,-1.9008 0.094,-3.0499 4.1066,-6.7341 4.8213,-4.4264 4.8346,-4.4563 3.7665,-8.4581 l -1.0719,-4.0159 3.2353,0 c 4.0687,0 10.7124,-2.3124 14.6028,-5.0826 1.6412,-1.1686 4.3358,-4.5202 5.9881,-7.4479 l 3.0043,-5.3232 4.1958,1.9049 c 7.9495,3.609 17.2089,1.94 25.0972,-4.5239 5.1177,-4.1936 6.1881,-4.3189 8.7773,-1.0273 2.2006,2.7976 5.9333,3.2749 7.8213,1 1.6714,-2.0139 3.2355,-1.8892 6.2729,0.5 3.287,2.5856 4.5623,2.5202 7.6724,-0.393 3.2262,-3.022 13.7352,-8.607 16.1955,-8.607 1.1853,0 1.8592,0.7166 1.8592,1.9769 0,1.0874 1.1365,2.7217 2.5256,3.6318 2.3651,1.5497 2.6512,1.5413 4.5,-0.1319 1.5308,-1.3854 1.9744,-3.0817 1.9744,-7.5507 0,-7.0316 1.9546,-10.78 7.1936,-13.7951 8.1208,-4.6738 13.1057,-15.9139 10.9154,-24.6124 -1.6099,-6.3934 -1.5448,-6.5186 3.3881,-6.5186 3.738,0 5.1534,-0.5929 8.3851,-3.5125 2.1384,-1.9319 6.291,-4.7966 9.2281,-6.3659 6.0632,-3.2397 9.0858,-7.6028 10.9955,-15.8716 0.9116,-3.9474 1.6605,-5.25 3.0182,-5.25 2.1341,0 3.876,-2.8651 3.876,-6.3752 0,-1.3787 0.45,-2.7849 1,-3.1248 0.55,-0.3399 1,-2.1776 1,-4.0838 0,-2.7918 0.4942,-3.6536 2.5419,-4.4321 1.398,-0.5315 5.1357,-2.7279 8.306,-4.8808 3.1703,-2.1529 7.3139,-4.5666 9.2081,-5.3638 1.8942,-0.7973 5.3991,-3.0898 7.7886,-5.0945 2.3895,-2.0048 5.0896,-3.6597 6,-3.6776 0.9105,-0.018 4.1304,-0.9006 7.1554,-1.9614 5.0765,-1.7801 6.6074,-1.8454 19.881,-0.8483 18.7759,1.4105 27.9858,0.074 63.362,-9.193 3.7087,-0.9716 8.6587,-2.8601 11,-4.1969 2.3414,-1.3367 5.832,-3.0537 7.757,-3.8155 1.925,-0.7619 8.3236,-4.4885 14.2191,-8.2814 l 10.7191,-6.8961 10.2809,-0.2184 c 11.0007,-0.2337 15.7281,-1.678 22.6916,-6.933 l 3.4107,-2.5739 7.8978,8.4414 c 10.8629,11.6105 17.4594,14.9035 30.2721,15.1116 9.5343,0.155 11.7547,0.8576 20.0087,6.3315 5.8202,3.8598 8.7358,4.9307 16.7912,6.1672 3.9648,0.6087 10.4381,2.1849 14.3851,3.5027 12.824,4.2818 24.2737,2.7791 34.4725,-4.524 7.0303,-5.0343 12.3353,-12.7648 14.4333,-21.0326 1.7879,-7.0458 3.6571,-10.5414 6.1478,-11.4971 1.7893,-0.6867 14.6103,5.4824 23.2701,11.1967 3.025,1.9962 7.075,4.6531 9,5.9043 1.925,1.2512 6.0959,4.47 9.2687,7.1529 3.1728,2.6829 6.7728,5.3578 8,5.9443 10.3019,4.9235 19.7722,8.7227 28.2313,11.3256 9.3435,2.8751 10.919,3.0649 24,2.8915 39.5182,-0.5237 36.5257,-0.7193 41.2106,2.6931 3.8527,2.8063 4.0891,3.2273 2.7818,4.9542 -3.3695,4.4506 -0.2592,6.7814 4.514,3.3827 3.3594,-2.3922 3.1989,-2.4039 16.4936,1.2084 4.4,1.1955 8.7104,2.7637 9.5787,3.4849 2.0869,1.7332 4.387,1.6599 5.9213,-0.1888 1.8498,-2.2289 3.2631,-1.8555 6.8038,1.7976 2.8624,2.9532 3.1977,3.9193 3.2109,9.25 0.025,9.9925 3.6752,13.9713 8.5857,9.358 1.3322,-1.2514 2.9011,-4.0545 3.4867,-6.2289 0.9534,-3.5408 1.2236,-3.7946 2.5875,-2.4307 1.3639,1.3639 1.3445,1.7953 -0.1861,4.1312 -1.0876,1.6599 -1.4802,3.5199 -1.0797,5.1155 0.9603,3.826 4.1332,3.193 7.0348,-1.4034 2.3648,-3.7461 2.6496,-3.8893 6.7626,-3.4017 2.3616,0.28 5.5892,1.4211 7.1724,2.5357 1.5832,1.1147 4.0582,1.9885 5.5,1.9417 4.224,-0.1369 20.2324,3.9289 25.1214,6.3803 2.475,1.241 6.4134,4.0838 8.752,6.3174 4.3293,4.1348 11.6861,7.1373 17.4881,7.1373 1.6673,0 4.4294,1.2258 6.5685,2.915 5.8567,4.625 17.0379,10.085 20.6523,10.085 1.8122,0 4.8395,0.6454 6.7273,1.4342 7.2125,3.0135 17.1426,4.7176 23.5982,4.0494 6.1836,-0.6399 6.3514,-0.5918 10.2641,2.9431 2.1878,1.9765 10.8339,6.9173 19.2136,10.9795 14.1293,6.8494 15.8533,7.4361 23.7359,8.0775 7.5204,0.6119 9.4796,1.2202 17,5.2783 4.675,2.5228 10.0125,5.8885 11.8611,7.4794 1.8486,1.5909 4.5486,3.3648 6,3.9419 4.0189,1.598 17.0204,3.7749 22.6771,3.797 4.7415,0.018 5.2609,0.286 8.8175,4.5408 2.0785,2.4867 4.8395,5.2159 6.1355,6.0651 2.1138,1.385 2.6595,1.3872 5.3001,0.022 2.5567,-1.3221 3.1911,-1.3348 4.8262,-0.097 2.4752,1.8741 5.419,1.8522 8.1501,-0.061 1.7758,-1.2439 2.9548,-1.3437 5.9725,-0.5056 2.0679,0.5743 5.2335,1.0467 7.0347,1.0497 2.5197,0 3.4819,0.5505 4.1733,2.3692 1.0833,2.8492 2.8823,3.6323 8.3837,3.6493 2.2925,0.01 7.0932,0.9615 10.6682,2.1208 5.1814,1.6804 8.9159,2.0973 18.409,2.0556 10.3683,-0.046 12.7616,0.2718 18.5,2.4537 9.3337,3.5489 18.1445,3.0821 27.3482,-1.4488 6.1793,-3.0421 6.9925,-3.204 10.8604,-2.1625 2.2995,0.6192 8.9513,1.2695 14.7817,1.4451 5.8304,0.1756 13.5257,1.0336 17.1007,1.9065 7.4166,1.8109 16.6332,2.0869 20.5073,0.6139 1.971,-0.7493 4.578,-0.5152 10.3151,0.9264 4.2227,1.0611 10.3776,2.2323 13.6776,2.6027 9.6729,1.0858 14.4339,2.365 17.6519,4.7428 2.6044,1.9244 4.2782,2.2318 12.1836,2.2377 8.7612,0.01 9.5526,0.1962 17.9835,4.3114 5.092,2.4854 11.9412,4.9019 16.2066,5.7181 4.0632,0.7774 10.8669,2.3247 15.1193,3.4386 9.6458,2.5264 10.9593,2.5211 15.7833,-0.064 4.1056,-2.2005 4.252,-2.1958 16.441,0.5225 5.9918,1.3362 8.0479,1.4223 11,0.4603 1.997,-0.6507 3.8946,-1.5877 4.217,-2.0822 0.7752,-1.189 1.9138,80.8242 1.9138,137.8531 l 0,45.3358 -843.7,0 c -656.2111,0 -843.4333,-0.2667 -842.5,-1.2 z m 501.6714,-264.1554 c 2.0916,-1.5295 1.4848,-4.6446 -0.9048,-4.6446 -1.7494,0 -3.9355,3.5941 -3.0538,5.0207 0.8172,1.3223 1.758,1.233 3.9586,-0.3761 z m 8.3404,-10.9061 c 0.2311,-1.2 -0.3074,-1.7385 -1.7385,-1.7385 -1.4311,0 -2.0733,0.6422 -2.0733,2.0733 0,2.5627 3.3098,2.272 3.8118,-0.3348 z m 15.8038,-44.2978 c -0.7903,-2.0596 0.034,-3.191 1.3594,-1.8657 0.518,0.518 0.5731,1.5382 0.1225,2.2672 -0.6437,1.0416 -0.9611,0.9556 -1.4819,-0.4015 z M -1884.2708,729.609 c -1.4116,-0.4282 -4.3366,-1.9152 -6.5,-3.3045 -2.1633,-1.3893 -7.9833,-3.7285 -12.9333,-5.1983 -16.6202,-4.935 -25.9614,-8.6746 -31.9207,-12.7788 -5.1874,-3.5727 -6.2547,-3.9515 -8.6183,-3.0594 -3.2548,1.2286 -5.2293,0.3485 -9.6221,-4.2888 -1.7387,-1.8354 -4.4387,-3.6354 -6,-4 -1.5614,-0.3646 -5.4278,-1.9521 -8.592,-3.5278 -3.1642,-1.5756 -7.8892,-3.3917 -10.5,-4.0357 -2.6108,-0.644 -8.1219,-2.9149 -12.2469,-5.0463 -5.6911,-2.9407 -9.4295,-4.1127 -15.5,-4.8592 -18.7906,-2.3108 -21.9336,-3.2562 -27.5188,-8.2778 -4.546,-4.0872 -12.1986,-7.673 -16.3754,-7.673 -0.5671,0 -4.7487,-1.8416 -9.2925,-4.0925 -6.015,-2.9797 -9.9678,-4.2424 -14.5373,-4.644 -7.4843,-0.6577 -14.7013,-3.6425 -21.9536,-9.0797 -2.9273,-2.1946 -6.9152,-4.6462 -8.862,-5.4481 -2.6537,-1.093 -3.8137,-2.3512 -4.6351,-5.0275 -1.8165,-5.9186 -12.2999,-24.6471 -14.6402,-26.1546 -1.2018,-0.7742 -7.5851,-2.1246 -14.1851,-3.001 -13.7628,-1.8276 -41.4147,-7.4705 -43.2052,-8.8169 -0.9373,-0.7048 -0.9389,-1.3327 -0.01,-2.8244 0.936,-1.4988 0.9248,-2.3001 -0.051,-3.6648 -3.9484,-5.5217 -4.6188,-8.0584 -3.2366,-12.2465 1.1565,-3.5041 1.1278,-4.5088 -0.2086,-7.3113 -0.8521,-1.7869 -3.2913,-4.4424 -5.4203,-5.9012 -3.5508,-2.4327 -4.6571,-2.645 -13.3711,-2.5649 -7.5589,0.069 -10.6649,-0.364 -15.2016,-2.1214 -7.9177,-3.0672 -14.9976,-9.7292 -19.0178,-17.8954 -2.9294,-5.9504 -3.2806,-7.5759 -3.2806,-15.1848 0,-7.1373 0.4321,-9.4426 2.6605,-14.1961 5.4763,-11.6822 14.7474,-18.6081 28.2034,-21.0694 l 6.8639,-1.2555 2.1721,-7.5384 c 3.0876,-10.7161 7.1059,-15.7521 19.0455,-23.8692 5.5301,-3.7596 12.3848,-7.8348 15.2328,-9.0562 3.6129,-1.5494 5.9679,-3.4141 7.7908,-6.1687 1.437,-2.1714 3.7486,-4.3799 5.137,-4.9078 1.3883,-0.5278 7.3324,-0.9696 13.2091,-0.9817 8.4701,-0.017 11.5871,-0.4313 15.037,-1.9968 6.8918,-3.1273 11.5762,-7.4313 14.9238,-13.7121 2.7779,-5.2118 3.5677,-5.9462 7.5361,-7.0076 5.0098,-1.3399 13.0131,-6.9951 13.5035,-9.5417 0.2142,-1.1123 -0.8043,-2.1764 -2.9954,-3.1295 -15.4267,-6.7101 -16.606,-7.4188 -19.6089,-11.7833 -1.6704,-2.4279 -4.7638,-5.6069 -6.8741,-7.0644 -7.7319,-5.34 -9.8445,-5.7426 -30.1365,-5.7426 l -18.8637,0 -3.314,-5.1143 c -1.8557,-2.8638 -5.3072,-6.3784 -7.8435,-7.9869 -3.2265,-2.0462 -6.2533,-5.5022 -10.5218,-12.0138 -4.2342,-6.4594 -7.3032,-9.9727 -10.4606,-11.975 -2.4576,-1.5586 -4.855,-2.9634 -5.3276,-3.1219 -1.1252,-0.3772 -4.4788,-12.5807 -6.9907,-25.4387 -1.6193,-8.2883 -1.8083,-11.2784 -0.9922,-15.6932 2.184,-11.8142 9.1786,-21.0947 19.8245,-26.3032 4.4347,-2.1697 7.6279,-2.9017 14.4754,-3.3184 l 8.7856,-0.5346 5.8647,-6.1637 c 5.0755,-5.3343 6.7929,-6.4508 12.764,-8.2977 3.7946,-1.1738 10.4993,-2.3775 14.8993,-2.675 4.4,-0.2976 10.7,-1.3613 14,-2.364 3.3,-1.0027 7.2214,-2.0923 8.7142,-2.4214 2.1802,-0.4806 2.9272,-1.4325 3.7968,-4.8383 1.8911,-7.4063 3.2067,-10.01 10.2267,-20.2399 8.2204,-11.9792 20.8166,-23.8439 30.4541,-28.6855 5.6864,-2.8567 6.8193,-3.8902 8.2031,-7.4832 2.8434,-7.3829 7.6825,-12.9407 17.9565,-20.623 13.7327,-10.2687 16.5346,-11.0969 34.5027,-10.1987 12.856,0.6427 14.9755,0.5024 21.9413,-1.4522 l 7.7107,-2.1636 9.747,3.8975 c 6.5355,2.6134 12.1153,4.114 16.9351,4.5544 3.9535,0.3612 8.4535,1.1574 10,1.7694 12.396,4.905 37.839,5.9976 46.3628,1.991 7.0744,-3.3254 11.5511,-7.6222 14.8782,-14.2802 7.4938,-14.9965 1.4743,-32.8969 -13.5336,-40.2456 -4.8866,-2.3927 -7.205,-2.8576 -15.5807,-3.1239 -8.5723,-0.2725 -10.613,-0.6991 -15.84,-3.3111 -5.0771,-2.5371 -6.8055,-2.9193 -11.2374,-2.4853 -3.1445,0.3079 -6.8359,-0.031 -9.2375,-0.8467 -4.3873,-1.4913 -4.7503,-2.7838 -2.3981,-8.5392 1.2225,-2.9912 1.1334,-3.4278 -1.224,-6 -1.3984,-1.5258 -3.0587,-4.5955 -3.6897,-6.8217 -0.6309,-2.2262 -2.4609,-6.0512 -4.0665,-8.5 -1.6056,-2.4488 -3.4636,-7.1524 -4.1289,-10.4524 -1.4591,-7.2379 -2.575,-8.8217 -5.6686,-8.0452 -2.8203,0.7078 -2.9017,-0.1596 -0.3242,-3.4548 2.163,-2.7651 2.5663,-6.0337 0.9447,-7.6554 -0.5875,-0.5875 -0.7577,-2.2412 -0.3839,-3.7305 0.5049,-2.0119 1.1234,-2.5317 2.4944,-2.0966 2.7804,0.8825 3.8197,-2.208 3.2266,-9.5955 -0.989,-12.322 4.394,-24.3583 14.2182,-31.7911 7.9123,-5.9862 17.5104,-10.9233 24.3282,-12.5137 3.4567,-0.8064 6.8455,-1.9314 7.5305,-2.4999 0.685,-0.5685 5.2696,-1.165 10.1881,-1.3255 l 8.9425,-0.2918 1.1125,-6.2317 c 0.6119,-3.4274 1.9098,-8.3194 2.8843,-10.8711 l 1.7719,-4.6394 -4.6423,-3.9681 c -5.0703,-4.334 -9.484,-10.3261 -11.6302,-15.7897 -0.7562,-1.925 -2.258,-4.7187 -3.3373,-6.2082 -1.6203,-2.2359 -1.7398,-2.9764 -0.6857,-4.2465 1.0145,-1.2225 1.0327,-2.5076 0.088,-6.2587 -1.4848,-5.8964 -0.3962,-29.9772 1.6177,-35.7866 2.7507,-7.9349 8.1281,-14.2413 17.225,-20.2007 4.7337,-3.1011 10.7265,-7.5274 13.3173,-9.8362 2.5909,-2.3088 6.4159,-4.9917 8.5,-5.962 2.0842,-0.9702 6.3642,-3.336 9.5112,-5.2573 7.9678,-4.8645 14.7705,-6.2098 31.493,-6.2282 15.933,-0.017 15.4415,0.2127 16.6663,-7.8054 0.6019,-3.9409 0.393,-4.5293 -2.5694,-7.235 l -3.2246,-2.9452 2.0493,-2.765 c 3.5821,-4.833 14.9902,-12.4866 22.2921,-14.9558 2.5143,-0.8502 5.8266,-2.4358 7.3607,-3.5235 1.534,-1.0877 5.7717,-2.6017 9.4172,-3.3644 3.8345,-0.8023 7.5821,-2.2832 8.8918,-3.5136 1.2452,-1.1697 5.4708,-2.9869 9.3903,-4.0381 l 7.1264,-1.9113 4.5514,3.2708 c 4.2699,3.0686 5.1479,3.2915 14.1926,3.6036 7.3919,0.255 11.4968,-0.1542 17.5952,-1.7542 4.3748,-1.1477 8.2697,-2.4224 8.6552,-2.8326 0.3856,-0.4103 0.9258,-4.3459 1.2004,-8.7459 0.6711,-10.752 5.4962,-26.2489 10.3812,-33.3418 2.0848,-3.027 8.0319,-9.7726 13.2156,-14.9902 9.1309,-9.1905 9.3809,-9.5628 8.0093,-11.93051 -0.9777,-1.68775 -3.8911,-3.35854 -9.4158,-5.39978 -4.4,-1.62571 -10.526,-3.99404 -13.6134,-5.26297 -3.9611,-1.62803 -6.1105,-2.02892 -7.3024,-1.36195 -2.1856,1.22315 -3.9338,-0.23406 -7.3576,-6.13307 -1.4619,-2.51885 -4.5814,-7.2105 -6.9322,-10.4259 -7.0758,-9.67846 -8.8797,-19.78561 -5.8804,-32.9483 0.7777,-3.41304 1.9124,-8.64431 2.5215,-11.62506 1.0909,-5.33819 10.2788,-22.35868 19.8131,-36.70358 4.4692,-6.7241 6.8657,-13.87296 9.6986,-28.93163 0.9256,-4.91989 2.0619,-10.9179 2.5251,-13.32893 0.7536,-3.92202 0.5887,-4.61863 -1.565,-6.61467 -1.6307,-1.51109 -2.4075,-3.32441 -2.4075,-5.6195 0,-5.62607 -3.6572,-16.77941 -6.1915,-18.8825 -1.2697,-1.05359 -4.9327,-3.33048 -8.1401,-5.05975 -9.3254,-5.02786 -20.4145,-13.42728 -31.0795,-23.54106 l -9.911,-9.39884 -27.339,-0.15 c -15.0364,-0.0825 -27.8952,-0.195 -28.5752,-0.25 -2.1091,-0.1706 -2.0091,3.24656 0.1851,6.32815 2.8041,3.93789 4.7262,9.62271 5.5893,16.53015 0.3917,3.13528 1.2184,5.83369 1.837,5.99645 0.6187,0.16277 4.4798,0.81645 8.5803,1.45263 6.0697,0.94172 9.4226,2.26778 18.0405,7.135 12.1593,6.86741 14.6764,9.82462 13.4297,15.77797 -0.4238,2.02381 -0.8054,4.98061 -0.8481,6.57066 -0.045,1.69233 -0.8489,3.35083 -1.938,4 -7.0268,4.18859 -10.9266,7.21293 -12.8327,9.95198 -3.9383,5.65909 -9.8543,12.10442 -13.4533,14.65701 -2.4081,1.70793 -4.2452,4.29908 -5.7984,8.17841 -1.2505,3.12312 -3.6883,7.46457 -5.4173,9.64767 -5.9113,7.46356 -17.6779,13.17392 -27.1458,13.17392 -2.7719,0 -4.5711,0.90583 -8.032,4.04368 -6.9164,6.27081 -14.1378,9.3725 -22.8499,9.8143 -8.8342,0.44799 -13.6344,-0.79711 -21.5043,-5.57794 -5.241,-3.18377 -6.6818,-3.58897 -13,-3.65591 -3.9082,-0.0414 -10.8604,0.56413 -15.4493,1.34565 -7.4322,1.26575 -9.2889,1.24253 -17,-0.21255 -6.3492,-1.19809 -14.9802,-1.65947 -32.3817,-1.73097 -25.4801,-0.10469 -28.4279,-0.56466 -36.1074,-5.63403 -2.1798,-1.4389 -6.4898,-2.95789 -9.994,-3.52223 -12.3771,-1.99327 -18.3989,-6.30773 -28.8163,-20.6459 -10.5554,-14.52816 -11.8674,-22.12564 -7.2567,-42.02389 2.054,-8.86451 3.4568,-12.55544 6.5089,-17.12609 2.6678,-3.99497 3.8907,-6.92508 3.8907,-9.32199 0,-4.87061 4.2586,-21.07944 7.3898,-28.12656 1.4356,-3.23094 2.609,-6.83094 2.6075,-8 -10e-4,-1.16906 -1.689,-4.05762 -3.75,-6.41902 -3.2325,-3.70367 -4.4986,-4.40909 -9.2165,-5.1353 -3.008,-0.46302 -7.958,-0.63517 -11,-0.38256 -8.191,0.68021 -27.3023,-2.89974 -35.6028,-6.66915 -3.8104,-1.7304 -9.403,-4.21449 -12.428,-5.5202 -3.025,-1.3057 -7.975,-3.45543 -11,-4.77716 -5.5772,-2.43687 -16.897,-11.3579 -22.4542,-17.69591 -1.6752,-1.91055 -4.6717,-5.06055 -6.659,-7 -1.9872,-1.93945 -5.5872,-6.1704 -8,-9.40211 -2.4127,-3.23171 -5.442,-7.28171 -6.7318,-9 -5.3608,-7.14205 -7.8421,-17.45579 -6.2593,-26.01797 1.3146,-7.11111 8.1515,-22.96822 12.3023,-28.53313 4.2793,-5.73721 11.5995,-10.69049 18.6708,-12.6338 9.1955,-2.52712 14.2465,-4.57615 14.7934,-6.00127 0.2828,-0.73706 -0.6505,-4.25138 -2.074,-7.8096 -2.2989,-5.7464 -2.5865,-7.84758 -2.5729,-18.79895 0.01,-6.78119 0.3459,-12.82804 0.75,-13.43743 0.4041,-0.6094 2.8647,-2.04328 5.468,-3.1864 6.8309,-2.99944 11.4834,-6.86803 14.5663,-12.11209 2.3525,-4.00182 2.7711,-6.01045 3.2496,-15.59352 0.4849,-9.71185 0.8947,-11.63469 3.5,-16.41988 5.8929,-10.82381 14.7027,-17.16755 26.8005,-19.29854 5.5191,-0.97216 6.587,-1.60722 12.2845,-7.30467 3.432,-3.43197 6.9347,-7.90262 7.7837,-9.93476 3.1408,-7.51694 15.3333,-22.84607 22.3042,-28.04215 3.6894,-2.75 11.3071,-9.57589 16.9284,-15.16864 8.1546,-8.11328 10.4594,-11.04413 11.4024,-14.5 0.6501,-2.38225 2.4202,-8.38136 3.9336,-13.33136 4.0324,-13.18953 4.257,-15.45118 2.5254,-25.43151 -2.0834,-12.0077 -1.3621,-36.10106 1.4058,-46.96092 1.0664,-4.18417 2.6357,-10.58329 3.4873,-14.22028 0.8516,-3.63699 2.4114,-8.62606 3.4662,-11.08681 1.6952,-3.95471 2.5395,-4.69716 7.2733,-6.39552 4.0555,-1.45502 5.433,-2.46516 5.6748,-4.16154 0.215,-1.50808 1.1954,-2.41539 3,-2.77645 5.9119,-1.18281 9.9078,-2.87933 14.5526,-6.17839 4.6253,-3.28528 5.5362,-3.52291 18,-4.69592 7.2204,-0.67954 14.1846,-1.80525 15.4758,-2.50158 5.3667,-2.89407 13.99,-5.13055 21.8068,-5.65566 8.1328,-0.54634 8.3858,-0.495 10.8937,2.21104 2.9729,3.20784 5.0123,2.58602 7.364,-2.24524 0.7767,-1.59567 1.8569,-3.79106 2.4005,-4.87865 0.5436,-1.08759 1.5501,-4.01259 2.2366,-6.49997 2.4899,-9.0208 8.275,-23.019 11.1017,-26.8627 3.4899,-4.7455 17.6165,-17.7298 21.4419,-19.7079 6.0706,-3.1393 13.9681,-5.5256 18.5573,-5.6074 2.6674,-0.048 6.5231,-0.934 8.5683,-1.9698 2.0452,-1.0358 6.3202,-2.5006 9.5,-3.2549 3.1798,-0.7544 8.2565,-2.0491 11.2815,-2.877 12.5095,-3.424 24.4116,-4.9349 30.5826,-3.8823 6.5711,1.1208 45.3605,1.7916 78.4174,1.3562 l 21.5,-0.2833 2.75,-2.9825 c 1.7403,-1.8875 2.75,-4.0965 2.75,-6.0164 0,-1.6687 0.6708,-4.3312 1.4908,-5.9168 0.8199,-1.5855 2.2941,-5.9507 3.2759,-9.7003 l 1.7852,-6.8175 3.7365,-0.1063 c 2.1318,-0.061 4.6402,-0.9197 5.8405,-2 3.2666,-2.9403 7.8001,-9.941 9.4312,-14.5641 1.7363,-4.9212 5.6521,-10.3376 8.6232,-11.9277 1.1561,-0.6188 5.1964,-1.5135 8.9783,-1.9884 11.0037,-1.3817 10.9878,-1.3626 10.2228,-12.2455 -1.088,-15.4784 3.6958,-26.1587 15.1722,-33.8733 11.0196,-7.4075 20.819,-8.0599 37.5282,-2.4986 5.8216,1.9376 12.3399,4.4636 14.4852,5.6134 2.1452,1.1498 4.4023,2.0905 5.0157,2.0905 0.6134,0 2.4783,2.1925 4.144,4.8721 2.5414,4.0882 4.2382,5.4539 10.5458,8.4877 11.1343,5.3554 18.6926,14.6024 18.7189,22.9011 0.01,2.8082 3.6933,9.8898 7.7585,14.9121 2.0609,2.5461 4.9699,6.2064 6.4644,8.1338 3.5465,4.5737 13.7429,9.6932 19.3059,9.6932 7.3876,0 14.5222,1.889 23.3639,6.186 13.9027,6.7566 20.2687,11.2862 21.9021,15.5838 4.8026,12.6365 5.1469,14.0673 5.1781,21.5157 l 0.033,7.7856 4.25,1.8127 c 2.3375,0.9971 6.5847,2.3693 9.4381,3.0494 2.8535,0.6801 7.2873,2.5678 9.853,4.195 2.5657,1.6271 6.7561,3.9348 9.3119,5.1282 6.5982,3.0809 23.4835,19.6879 26.6978,26.2578 2.6682,5.4536 4.7495,18.98435 4.7874,31.12375 0.021,6.5961 -2.1526,13.62652 -5.9653,19.29767 -3.5004,5.20692 -1.9519,6.31098 8.0563,5.74371 4.439,-0.25159 10.6422,-1.0297 13.7851,-1.72912 5.5553,-1.2363 5.8226,-1.19662 9.6073,1.42616 3.5521,2.4616 4.2776,2.60916 8.2857,1.68518 2.416,-0.55696 9.1177,-1.02568 14.8927,-1.04159 10.1686,-0.028 10.7325,0.0889 17.8651,3.70378 l 7.3652,3.73271 16.8538,0.38646 c 16.1667,0.3707 16.8814,0.47352 17.5275,2.52177 0.3705,1.17443 2.1823,3.90131 4.0262,6.05975 4.7565,5.56769 6.8393,10.4754 9.9539,23.45445 2.6708,11.12986 2.7022,11.61735 1.4347,22.27534 -0.7127,5.99305 -1.0122,13.30934 -0.6656,16.25841 0.9376,7.97786 -0.8018,14.91665 -6.6273,26.43742 -6.3038,12.46678 -14.8562,21.65679 -28.5155,30.64148 -2.3551,1.54912 -4.1222,3.29594 -3.9269,3.88182 0.1953,0.58589 2.9338,2.37826 6.0855,3.98305 3.1518,1.60478 7.6189,4.96133 9.9269,7.459 7.2196,7.81265 12.0562,12.32837 16.1225,15.05286 3.7739,2.52854 15.6464,17.50343 18.9647,23.92033 0.88,1.70177 2.4832,6.88205 3.5627,11.51172 1.0795,4.62967 3.3296,12.53154 5.0001,17.5597 2.9623,8.91635 3.0313,9.56191 2.7919,26.14073 -0.135,9.34924 -0.5661,16.99876 -0.9581,16.99894 -0.392,1.7e-4 -2.5568,2.71569 -4.8105,6.03448 -4.775,7.03153 -11.1715,12.01933 -19.1685,14.94702 -5.5515,2.03242 -9.5253,5.7175 -12.7067,11.78366 -0.9833,1.87483 -0.9148,2.3696 0.3976,2.87322 2.3623,0.90651 10.3431,-0.38133 17.0623,-2.75332 4.6455,-1.63992 7.5758,-2.00338 13.4583,-1.66926 11.2071,0.63656 16.5178,3.48657 28.5036,15.29679 11.2181,11.05372 17.2727,15.26539 35.9766,25.02589 15.5435,8.11128 15.0873,7.77517 29.2306,21.53541 l 11.2307,10.92643 25.5852,0 c 17.203,0 26.3007,-0.37338 27.7693,-1.13969 1.2014,-0.62683 4.3234,-3.12138 6.9379,-5.54344 2.6145,-2.42206 7.5645,-5.65947 11,-7.19425 6.1775,-2.75972 6.456,-2.78881 25.2464,-2.63674 15.3104,0.1239 20.068,0.50414 24.5,1.95812 6.0775,1.99382 24.7597,2.49595 52,1.39761 21.5016,-0.86694 29.0736,1.14648 38.0428,10.11562 11.1452,11.14525 13.5957,27.32579 6.3188,41.72343 l -2.6185,5.18067 2.9991,4.87417 c 1.6495,2.68079 3.3128,5.86247 3.6962,7.07039 0.3834,1.20793 1.4541,2.56861 2.3793,3.02374 0.9253,0.45513 13.6073,0.7453 28.1823,0.64482 17.8716,-0.12321 28.7792,0.23158 33.5,1.08964 3.85,0.69978 9.2308,1.57571 11.9574,1.9465 7.413,1.0081 12.9742,4.07253 21.1531,11.65614 4.0534,3.7583 8.0922,6.83327 8.9752,6.83327 0.8831,0 2.8368,-0.87671 4.3416,-1.94825 1.5049,-1.07154 5.1016,-2.88065 7.9928,-4.02024 2.8911,-1.13959 9.2529,-4.72259 14.1372,-7.96223 9.9538,-6.60202 14.7941,-8.06424 26.7419,-8.07842 6.049,-0.007 8.7524,-0.51838 12.6034,-2.38328 l 4.9027,-2.37412 5.0973,2.3735 c 4.6778,2.1781 6.3861,2.37431 20.7516,2.38327 14.04,0.009 16.4117,0.26685 23,2.5028 4.0402,1.37116 8.6308,2.49616 10.2014,2.5 1.5865,0.004 4.1897,1.12943 5.8572,2.53256 1.6508,1.38907 5.6533,3.26285 8.8943,4.16395 5.6981,1.5842 8.1602,4.31046 3.8929,4.31046 -1.3333,0 -2,0.66667 -2,2 0,1.28343 0.6667,2 1.8607,2 1.4899,0 1.98,1.00725 2.4593,5.05415 0.3449,2.91167 2.2601,8.31645 4.518,12.75 4.464,8.76513 6.6625,17.71534 5.6615,23.04806 -0.3766,2.00628 -1.0335,7.10545 -1.4597,11.33148 -1.0679,10.58762 -7.4005,28.20572 -11.479,31.9357 -10.1706,9.30158 -13.7907,12.08963 -19.5915,15.08837 -8.19,4.23387 -8.5958,6.00913 -2.5324,11.07748 2.4817,2.07446 5.6937,5.78776 7.1377,8.25178 2.6716,4.55874 2.8139,7.059 0.9099,15.98549 -0.8174,3.83212 2.1433,6.81995 6.7887,6.8508 7.4547,0.0495 32.5198,-1.35666 33.9475,-1.90449 0.8524,-0.32713 2.5246,-3.14165 3.7158,-6.25449 1.1912,-3.11285 3.3456,-7.247 4.7875,-9.18702 3.8036,-5.11759 11.0891,-12.02731 12.6813,-12.02731 0.7537,0 3.6599,-1.575 6.4584,-3.5 2.7984,-1.925 5.3784,-3.5 5.7333,-3.5 1.2382,0 18.923,-10.37747 21.403,-12.55932 1.375,-1.20968 4.3,-2.75282 6.5,-3.42918 2.2,-0.67637 5.6731,-2.54028 7.718,-4.14204 l 3.718,-2.91227 6.0005,2.0214 c 5.317,1.79119 8.5665,2.02141 28.532,2.02141 21.2339,0 22.5315,0.10625 22.5315,1.84501 0,3.87013 4.3069,5.98893 14.6286,7.19659 9.3727,1.09661 15.6395,4.14422 22.4432,10.91419 4.268,4.24689 6.2076,7.21123 8.2893,12.66836 1.4947,3.91828 4.3354,9.76828 6.3127,13 7.1936,11.75703 12.0687,22.479 16.3103,35.87196 l 3.1659,9.99612 -1.1144,17.32519 c -1.7425,27.08918 -3.3362,32.44518 -12.3863,41.62518 -10.0844,10.2292 -12.6493,13.5899 -12.6493,16.5738 0,1.5921 -1.1243,4.5515 -2.4984,6.5764 -1.3741,2.0248 -2.9726,5.4426 -3.5522,7.595 -1.2555,4.6626 -15.6801,20.7888 -22.2272,24.8491 -11.2392,6.9704 -16.6663,9.95 -21.3968,11.7475 -5.0037,1.9012 -9.548,5.2733 -21.2351,15.7576 -3.4019,3.0518 -10.2231,7.3581 -17.28,10.9092 -12.5034,6.2918 -19.2777,11.5787 -20.3596,15.8893 -0.9757,3.8875 0.7602,5.3197 8.6129,7.1058 7.6271,1.7347 24.1438,9.1607 30.4957,13.711 2.2327,1.5993 5.9784,5.8267 8.3238,9.394 5.4951,8.3582 15.7095,14.8049 25.1495,15.8729 12.0945,1.3683 20.0175,5.8941 27.6241,15.7795 5.0769,6.5977 5.714,9.0355 5.5661,21.2963 -0.085,7.0676 -1.9712,12.8205 -6.234,19.0163 -3.0507,4.434 -3.0831,4.6121 -2.4135,13.2391 0.3733,4.8095 1.2664,10.1899 1.9847,11.9563 0.7183,1.7665 1.618,5.2923 1.9993,7.8352 0.5049,3.3668 1.7916,5.8912 4.7343,9.2882 6.7594,7.803 9.2064,14.2314 9.2064,24.1859 0,7.6089 -0.3512,9.2344 -3.2806,15.1848 -6.1238,12.4393 -17.3154,19.6137 -31.7194,20.3338 -3.85,0.1925 -7.3029,0.3748 -7.6732,0.4052 -0.3703,0.03 -2.7362,3.1584 -5.2576,6.9511 -2.5214,3.7928 -5.2216,7.1405 -6.0004,7.4393 -0.7788,0.2989 -3.2442,3.0181 -5.4785,6.0426 -3.2474,4.3958 -5.52,6.2147 -11.3264,9.0652 -3.9952,1.9613 -9.5139,3.8429 -12.2639,4.1812 -2.75,0.3383 -5.9713,1.2197 -7.1585,1.9586 -1.9316,1.2022 -2.102,1.9669 -1.6207,7.2751 0.9382,10.3464 -2.042,17.6033 -12.7893,31.1421 -9.9146,12.4899 -10.3192,13.1428 -14.5632,23.5 -2.7191,6.636 -2.8683,7.78 -2.8683,22 0,17.2605 -1.0511,20.8031 -8.6034,28.9963 -5.1793,5.6189 -10.415,8.7436 -18.3966,10.9795 -10.0703,2.8209 -10.4369,3.2591 -9.8267,11.748 0.6045,8.4107 -2.406,25.1019 -5.8484,32.4254 -2.8208,6.0008 -9.632,12.6201 -16.3869,15.925 -4.1206,2.0159 -8.0139,2.9382 -15.1877,3.5977 -5.3057,0.4877 -13.12,1.7735 -17.3651,2.8574 -4.2451,1.0839 -10.5006,1.9707 -13.9011,1.9707 -5.3002,0 -6.9892,0.4946 -11.8334,3.4651 -3.1079,1.9059 -8.2097,4.1238 -11.3374,4.9288 -3.1277,0.805 -8.6268,3.2369 -12.2202,5.4042 -4.0709,2.4553 -9.6846,4.7106 -14.8939,5.9835 -11.379,2.7807 -18.366,7.5337 -31.8839,21.6893 -10.988,11.5064 -11.1979,11.6619 -24.6987,18.2974 -10.4186,5.1205 -14.7909,7.8844 -18.6166,11.7679 -10.3496,10.506 -23.0584,13.4875 -37.6766,8.839 l -4.6765,-1.4872 -5.8235,4.4209 c -10.9928,8.3451 -8.4625,8.0205 -64.3234,8.2515 -33.171,0.1372 -50.6524,0.5733 -52.9934,1.3222 -13.0515,4.1748 -30.0192,-2.0238 -38.2306,-13.9664 -3.861,-5.6153 -4.6296,-6.541 -7.2281,-8.7056 -0.8513,-0.7092 -1.5479,-2.2692 -1.5479,-3.4666 0,-3.1585 -3.0022,-10.5309 -4.5266,-11.1158 -0.7172,-0.2752 -3.7046,0.4377 -6.6387,1.5842 -5.0663,1.9797 -7.423,2.0953 -46.8347,2.2975 -29.1717,0.1496 -43.1151,0.5877 -46.9368,1.4744 -6.6793,1.5499 -15.6288,0.7438 -21.7358,-1.9576 -7.5062,-3.3204 -12.3167,-7.9595 -19.4038,-18.7126 -8.1114,-12.3071 -9.1165,-16.1251 -9.2968,-35.3141 -0.1162,-12.3706 0.07,-13.8765 2.2262,-18 1.5644,-2.9917 2.629,-7.3086 3.1765,-12.8794 1.2587,-12.8089 4.7142,-18.9546 16.6384,-29.5914 5.8014,-5.175 12.0785,-9.7378 15.9167,-11.5696 3.4856,-1.6635 6.5634,-3.39 6.8394,-3.8367 0.2761,-0.4467 -0.4447,-3.2445 -1.6017,-6.2175 -2.6053,-6.6944 -2.8137,-18.3636 -0.4423,-24.7758 2.4558,-6.6406 9.9846,-16.5899 20.5717,-27.1855 13.5423,-13.5531 15.1509,-14.2016 36.9427,-14.8926 14.5215,-0.4604 17.5619,-0.8181 18.4091,-2.1656 0.5581,-0.8877 0.7519,-2.2991 0.4306,-3.1364 -1.3181,-3.4349 -39.0562,-29.7495 -42.6642,-29.7495 -0.8937,0 -2.5736,0.6645 -3.7331,1.4767 -1.9618,1.374 -2.4376,1.1867 -6.8484,-2.6958 -4.9843,-4.3874 -14.0506,-9.1695 -15.5855,-8.2209 -0.4966,0.3069 -0.9029,3.2158 -0.9029,6.4641 0,7.5615 -2.0388,13.4692 -8.159,23.6421 -6.1473,10.2178 -10.6525,14.3124 -21.3276,19.3842 l -8.4316,4.0058 -8.4498,-2.3797 c -11.8609,-3.3404 -16.524,-6.4275 -25.3065,-16.7537 -6.3428,-7.4576 -8.7251,-9.4886 -14.1884,-12.096 -3.7461,-1.7878 -8.5486,-5.1693 -11.183,-7.8739 -2.5395,-2.6072 -6.6056,-5.743 -9.0357,-6.9684 -2.4301,-1.2253 -6.8934,-3.7017 -9.9184,-5.5031 -3.2246,-1.9202 -7.5326,-3.526 -10.4131,-3.8815 -2.7023,-0.3335 -6.3023,-1.504 -8,-2.6011 -1.6978,-1.0971 -6.3214,-3.5466 -10.2747,-5.4432 -8.3818,-4.0213 -14.3851,-9.1175 -17.9936,-15.275 -3.1853,-5.4352 -6.2335,-5.5957 -7.7156,-0.4062 -1.0374,3.6326 -5.6717,7.5604 -13.836,11.7268 -3.1786,1.6221 -4.9401,3.2403 -5.3636,4.9275 -0.7049,2.8087 0.799,10.0312 3.2758,15.7315 1.7202,3.9593 1.3823,5.3611 -1.0661,4.4216 -0.8588,-0.3296 -1.7599,-2.5704 -2.1609,-5.3736 -0.8831,-6.1729 -3.7278,-10.8258 -8.4358,-13.7979 -2.8977,-1.8292 -3.9917,-3.355 -4.8502,-6.7647 -1.444,-5.7344 -4.5349,-9.5544 -9.5876,-11.8493 -5.5896,-2.5386 -9.1372,-2.3581 -15.3408,0.7807 l -5.291,2.677 -3.7234,-3.6281 c -4.6507,-4.5316 -19.2944,-13.3987 -24.3964,-14.7725 -11.5775,-3.1175 -23.216,8.699 -20.0749,20.3819 1.4334,5.3315 -0.8176,9.8966 -5.2594,10.666 -2.0644,0.3576 -4.1745,2.1844 -7.3525,6.3656 -2.4515,3.2253 -6.5498,7.3675 -9.1073,9.2049 -3.1486,2.2621 -5.4205,4.9856 -7.036,8.4348 -2.22,4.7397 -2.3078,5.5502 -1.2625,11.6526 0.6593,3.8485 0.7704,7.4433 0.2691,8.6997 -0.47,1.1776 -1.4214,5.5942 -2.1144,9.8146 -1.2567,7.6535 -1.269,7.6752 -4.7496,8.3282 -6.5893,1.2361 -11.1782,3.7353 -15.1559,8.2542 -2.191,2.4891 -3.9836,5.0857 -3.9836,5.7702 0,1.9429 -12.2088,12.881 -16.5771,14.8517 -9.663,4.3593 -16.1766,8.1156 -20.1737,11.6341 -5.2688,4.6377 -11.9247,7.8737 -17.5413,8.5283 -2.3143,0.2697 -14.4289,0.6176 -26.9213,0.7731 l -22.7133,0.2828 -4.5876,4.6533 c -2.5231,2.5593 -6.9271,5.7343 -9.7866,7.0555 -19.1362,8.8417 -19.6184,9.1268 -22.604,13.3625 -3.0032,4.2608 -11.5534,11.2618 -13.8099,11.3078 -2.0334,0.041 -2.7852,3.1487 -2.7852,11.5107 l 0,7.986 5,1.168 c 2.75,0.6425 6.8968,1.2113 9.215,1.2641 6.682,0.1522 12.7201,2.7312 23.8528,10.1878 11.4293,7.6553 16.1139,12.8704 19.5427,21.7557 4.2653,11.0528 1.5802,23.5569 -7.8592,36.5987 -7.844,10.8376 -12.259,13.7224 -30.5744,19.9778 -8.599,2.9369 -17.3363,6.6216 -19.9257,8.4032 -2.5364,1.745 -4.9119,3.1728 -5.279,3.1728 -0.3672,0 -4.3361,1.7888 -8.8199,3.9751 -7.531,3.6721 -22.6471,7.5107 -43.1628,10.9607 -4.0755,0.6854 -13.1419,3.8979 -19.4895,6.9057 -2.649,1.2552 -4.2295,3.1536 -6.5,7.8073 -1.65,3.3819 -4.125,7.7736 -5.5,9.7594 -3.298,4.763 -22.2488,18.004 -28.5393,19.9404 -9.0932,2.7992 -19.897,6.3885 -25.7783,8.5643 -5.4547,2.0179 -7.4828,2.1443 -32.5,2.0256 -16.2416,-0.077 -29.1352,0.32 -32.9506,1.0147 -7.2854,1.3266 -14.5277,0.3281 -21.5449,-2.9703 -5.175,-2.4326 -10.4646,-2.3143 -12.0828,0.27 -1.3216,2.1107 1.6977,8.4032 7.0102,14.6096 3.9769,4.6461 4.0695,5.2159 1.256,7.7325 -1.1714,1.0478 -3.202,3.5925 -4.5125,5.655 -2.1614,3.4015 -2.7907,3.75 -6.7703,3.75 -4.3811,0 -4.3875,-0.01 -4.3875,-3.6461 0,-4.2533 -7.7704,-20.6726 -11.3694,-24.0243 -1.2818,-1.1938 -7.7306,-5.2066 -14.3306,-8.9173 -16.5643,-9.3131 -22.41,-13.3458 -34.1667,-23.5705 -5.5917,-4.863 -10.8243,-8.8418 -11.6279,-8.8418 -0.8036,0 -3.1531,0.7069 -5.2209,1.5709 -2.0679,0.864 -7.3878,2.2088 -11.822,2.9884 -4.4342,0.7797 -9.5697,1.915 -11.4122,2.5231 -2.462,0.8125 -5.0903,0.8025 -9.9163,-0.038 -8.2016,-1.4283 -13.9988,-4.1171 -19.7038,-9.1388 -2.4404,-2.1481 -5.3688,-3.9057 -6.5076,-3.9057 -4.3682,0 -28.3089,10.7297 -34.7745,15.5851 -2.5985,1.9514 -3.2265,3.2051 -3.5769,7.1409 -0.2338,2.6257 -1.0514,6.9303 -1.8167,9.5657 -1.711,5.8914 -0.933,7.3909 4.9731,9.5863 4.5333,1.6851 5.5858,2.8541 6.4911,7.2095 0.2958,1.4232 1.4803,3.7857 2.6321,5.25 2.7883,3.5447 6.6196,3.4711 16.9151,-0.3249 4.4562,-1.6431 11.7909,-3.9292 16.2993,-5.0803 4.5083,-1.1511 10.9055,-3.5961 14.2159,-5.4333 8.3399,-4.6285 16.7263,-6.1397 25.4358,-4.5832 3.7162,0.6641 8.1948,2.082 9.9524,3.1509 2.7833,1.6926 3.0521,2.2116 2.0835,4.0215 -1.6621,3.1056 1.009,5.4079 8.4395,7.2743 3.4518,0.8671 10.2881,3.4303 15.1918,5.696 4.9037,2.2657 11.2784,5.0117 14.1659,6.1023 2.8875,1.0906 5.25,2.1299 5.25,2.3095 0,0.1796 -1.3893,2.9598 -3.0873,6.1782 -2.8166,5.3383 -3.0534,6.5092 -2.7006,13.3515 0.4456,8.644 3.5644,16.1228 8.1072,19.4408 2.4147,1.7637 4.6035,2.1068 15.25,2.3908 11.9784,0.3194 12.4313,0.4104 12.446,2.5 0.021,2.9744 0.7918,3.861 5.9847,6.8843 7.2809,4.2389 17.1444,16.1062 20.6326,24.8239 1.035,2.5866 2.3397,4.1124 3.7296,4.3613 11.8773,2.1274 14.7324,2.9831 19.1225,5.7308 2.9103,1.8215 6.9041,3.3469 9.5153,3.6343 5.7411,0.632 7,1.6848 7,5.8539 0,2.2701 1.1591,4.9886 3.5398,8.3024 3.2843,4.5716 11.4249,25.3652 11.4496,29.2458 0.01,0.9176 2.0116,4.0126 4.4573,6.8778 6.7918,7.9568 8.0878,11.4255 12.593,33.7039 1.4102,6.9737 0.1734,13.2747 -5.1228,26.0972 -4.7342,11.4622 -9.5436,17.7234 -16.7658,21.8273 -7.01,3.9832 -7.2145,4.4481 -5.0358,11.4481 3.6572,11.7507 1.8681,23.3958 -4.9882,32.4673 -5.457,7.2202 -10.6039,10.5975 -22.6893,14.8885 l -10.9378,3.8836 -29,0.099 c -27.6662,0.095 -29.207,0.1999 -33.5,2.2834 -4.0898,1.985 -17.4278,5.3789 -20.3154,5.1693 -0.6515,-0.047 -2.3396,-0.4362 -3.7513,-0.8644 z m 573.1048,-1327.2996 c 4.8954,-2.46861 6.2093,-5.36468 3.3744,-7.43765 -2.851,-2.0847 -0.5916,-3.26535 8.1612,-4.26467 4.3595,-0.49772 9.2491,-1.40837 10.8659,-2.02366 1.6168,-0.61529 9.6088,-1.68694 17.7601,-2.38145 8.1513,-0.69451 15.2592,-1.70151 15.7955,-2.23779 0.5363,-0.53628 1.4155,-3.29716 1.9537,-6.13529 1.3198,-6.95919 3.0738,-10.87407 7.4055,-16.52814 2.0051,-2.61726 3.6456,-5.26683 3.6456,-5.88793 0,-0.79331 -2.1569,-0.94126 -7.25,-0.4973 -14.3012,1.24663 -25.0206,-3.38676 -34.771,-15.02961 l -2.5211,-3.01032 -26.7289,-0.19328 c -16.7644,-0.12122 -27.4447,0.18978 -28.6489,0.83423 -3.0387,1.62628 -4.3568,7.23921 -3.6043,15.34847 0.9286,10.00561 0.9362,10.02081 7.0548,14.08335 9.1928,6.10363 13.6586,13.51742 15.962,26.49868 0.7429,4.1868 1.6592,8.39986 2.0361,9.36236 0.928,2.36983 4.1548,2.20017 9.5094,-0.5 z m -38.2381,-42.95 c 1.2926,-1.29264 1.6028,-11.72872 0.5398,-18.16338 -0.7303,-4.42018 -2.731,-5.59656 -13.9398,-8.19604 -8.0647,-1.87032 -8.7482,-1.43117 -10.3363,6.64102 -1.1755,5.97483 -1.1518,6.10596 1.9776,10.98271 1.7419,2.71463 3.2678,4.93569 3.3907,4.93569 0.123,0 3.3386,1.10817 7.1458,2.46261 7.9173,2.81661 9.5486,3.01102 11.2222,1.33739 z m -220.0996,-14.02006 c 0.6603,-0.5184 2.5375,-3.31169 4.1717,-6.20731 3.5743,-6.33334 10.5503,-12.69673 17.2271,-15.71424 2.6954,-1.2182 4.9008,-2.87881 4.9008,-3.69026 0,-0.81144 -1.6875,-3.13318 -3.75,-5.15942 -2.0625,-2.02624 -5.325,-6.05287 -7.25,-8.94808 -2.1465,-3.22829 -5.627,-6.63987 -9,-8.8217 -3.025,-1.95673 -6.772,-4.61096 -8.3267,-5.89831 -1.5547,-1.28734 -3.6237,-2.34062 -4.5978,-2.34062 -4.2347,0 -20.6699,20.79998 -24.2219,30.65469 -4.6427,12.88065 -3.0763,20.1504 5.2579,24.40219 6.5915,3.36275 22.165,4.41141 25.5889,1.72306 z m 130.6739,-4.86696 c 13.3249,-2.25157 14.4484,-8.8737 2.1138,-12.45946 -5.4696,-1.59006 -5.7212,-1.88527 -6.9931,-8.20446 -0.8466,-4.20637 -3.3994,-4.84684 -11.2305,-2.8176 -3.3293,0.8627 -6.9107,1.56854 -7.9588,1.56854 -4.4566,0 -4.3421,2.16644 0.3914,7.40411 2.5329,2.80274 5.4946,7.12089 6.5815,9.59589 2.8537,6.49825 3.6471,7.23133 7.1573,6.6137 1.6852,-0.29652 6.1575,-1.06185 9.9384,-1.70072 z m 20.1882,-2.61834 c 1.1457,-1.14572 1.3224,-1.833 0.5384,-2.09433 -1.8733,-0.62443 -4.1009,0.60772 -4.1009,2.26831 0,2.01316 1.446,1.94255 3.5625,-0.17398 z M -1571.7592,522.4702 c -0.7166,-1.1594 4.5184,-9.0652 6.4232,-9.7002 0.6992,-0.233 1.1319,0.9647 1.1319,3.1335 0,2.6016 -0.6823,4.0474 -2.6349,5.5833 -2.9842,2.3474 -3.957,2.5419 -4.9202,0.9834 z m -226.4449,-9.8434 c 0,-0.5129 1.0125,-1.2402 2.25,-1.6161 1.2375,-0.3759 3.7778,-1.8289 5.6452,-3.229 3.262,-2.4457 3.4484,-2.4729 4.75,-0.6928 2.0169,2.7583 1.654,4.4063 -1.2103,5.4953 -3.2667,1.2419 -11.4349,1.2724 -11.4349,0.043 z m 8.1083,-77.1257 c -1.3154,-1.0954 -2.1379,-2.2454 -1.8278,-2.5555 0.8113,-0.8114 8.8995,-2.5395 9.4252,-2.0138 0.7956,0.7955 -2.7261,6.6284 -3.9814,6.5943 -0.6734,-0.018 -2.3006,-0.9295 -3.616,-2.025 z"
         id="path3015"
         inkscape:connector-curvature="0"
         sodipodi:nodetypes="csscsssssscsscccssssccsccscscscsssssssscsscsssccssssssccccscccscsscscsccssccssssssccscsscccscsscccscsssccssscssccccccscccccssssscssscscccscsscscccsccssssccccccscccccscsssssccscscccssccssscscssscccssssccsscssscccssscsccscssssssscsccsssssscsscscccccccscsscsccsccccssccsccscsccccsccscssssssscccscssccscsscsscccssscccsccsssssssssssscsscssssssscccssscscsscsssscsscsssssscssscsssscsccsccssccscccccscsssscscscssssccccscssccsssssscsccssssssccssssscsscsssssscscssssssscsscsssssccscccccscsssssccscsssssscssscsssscsssssssscssscsccssscccsscssccsssscccsssssscsssscccsscsscsssccsscscscsscsssscsscssssssscscssscsscsccsccccscccscccscsssssscccscsssccscssccsccssssscsscsssscscccsscsscsssccccsssccscccssscccsssccsccsscscsscssscsssccccccsssssscsssccsccssssscsscssscscsssssssscsssssssssssssccsscsssscssccccc" />
    </g>
  </g>
</svg>
