<?xml version="1.0" encoding="UTF-8"?>
<svg width="30" height="30" version="1.1" xmlns="http://www.w3.org/2000/svg">
 <path d="m15.262 7.0869c-0.2283 0.01-0.45306 0.096-0.62501 0.2467l-4.2353 3.6596h-3.8981c-0.52306 0-1.0007 0.472-1.0033 0.9951v5.0248c-0.00169 0.5258 0.47752 1.005 1.0033 1.0033h3.8405l4.2929 3.7172c0.57605 0.4964 1.6523 0 1.653-0.7566v-12.887c0.0019-0.5341-0.49405-1.0182-1.028-1.0033z" color="#000000"/>
 <path d="m19.242 11.136c0.61796 0.9741 0.98242 2.1373 0.98242 3.379 0 1.2228-0.35621 2.3677-0.95703 3.332-0.69427 1.173-2.4427 0.083-1.6953-1.0567 0.41447-0.6651 0.6543-1.438 0.6543-2.2753 0-0.852-0.24612-1.6375-0.67188-2.3086-0.4384-0.6717 0.05352-1.5601 0.85547-1.545 0.34004 0.01 0.65354 0.1851 0.83203 0.4746z" color="#000000"/>
 <path d="m21.92 7.5284c1.5368 1.9288 2.459 4.3789 2.459 7.0352 0 2.638-0.91023 5.0731-2.4297 6.9961-0.82559 1.0456-2.394-0.1927-1.5684-1.2383 1.2527-1.5854 2-3.5784 2-5.7578 0-2.195-0.75645-4.2008-2.0234-5.791-0.53829-0.656-0.06534-1.642 0.7832-1.6328 0.30552 0 0.59262 0.1467 0.7793 0.3886z" color="#000000"/>
</svg>
