<?xml version="1.0" encoding="UTF-8"?>
<svg width="30" height="30" version="1.1" xmlns="http://www.w3.org/2000/svg">
 <path d="m8.5404 18.526c-0.38564-0.38564-0.11384-1.1526 0.2108-1.4773 0.3181-0.3181 1.1345-0.39392 1.5885-0.012753l2.1904 1.7693 0.29084-9.1411c0-0.35829 0.60377-0.92427 1.2316-0.92427 0.74617 0 1.3151 0.57622 1.3151 0.95549l0.19096 5.3479 4.5059 1.703c0.18583 0.063736 0.43094 0.24909 0.43068 0.47598l0.0029 3.8276-1.3849 2.3297v1.138h-5.881v-1.138z" fill-rule="evenodd" stroke-linejoin="round" stroke-width="2.0213"/>
 <path d="m10.482 12.156c-1.4184-2.2682 0.091037-5.5872 2.7329-6.0086 2.6015-0.62394 5.2683 1.8624 4.8283 4.5011l-0.066273 0.37741" fill="none" stroke="currentColor" stroke-width="2"/>
</svg>
