<?xml version="1.0" encoding="UTF-8"?>
<svg width="30" height="30" version="1.1" xmlns="http://www.w3.org/2000/svg">
 <path d="m14.975 11.105c1.0023-0.49956 1.998-0.92647 2.9473-1.2637-0.60126-3.253-1.7277-5.2658-2.9492-5.2695-1.2216 0.00417-2.3481 2.0177-2.9492 5.2715m10.574 3.4298c1.2935-1.4664 1.8069-2.7358 1.3636-3.5118-0.61336-1.0568-2.9202-1.0262-6.0391 0.080078 0.18388 0.99038 0.31321 2.0666 0.38281 3.1855 0.93357 0.61886 1.8006 1.2682 2.5664 1.9219m-2.5664 1.9258c-0.06906 1.1179-0.19773 2.1934-0.38086 3.1836 3.1162 1.1052 5.4218 1.1365 6.0371 0.08203 0.60916-1.0596-0.57122-3.0428-3.0898-5.1914v1e-6m-8.337 7.2001c0.62993 2.0021 1.5065 3.1762 2.4385 3.1807 1.2223-2e-3 2.3497-2.0159 2.9512-5.2715-0.94995-0.33605-1.947-0.76233-2.9512-1.2617-1.0023 0.49956-1.998 0.92647-2.9473 1.2637m-0.38281-3.1855c-0.93357-0.61886-1.8006-1.2682-2.5664-1.9219-2.5154 2.1462-3.6955 4.1274-3.0898 5.1875 0.61336 1.0568 2.9202 1.0262 6.0391-0.08008v4.9e-5m-2.0079-10.808c-2.0791-0.47152-3.557-0.30372-4.0312 0.50888-0.60916 1.0596 0.57122 3.0428 3.0898 5.1914 0.76471-0.65414 1.6311-1.3041 2.5645-1.9238 0.0696-1.1189 0.19894-2.1952 0.38281-3.1855m2.9512 1.2617c-0.56919 0.28217-1.1374 0.58623-1.6973 0.9082-0.55923 0.32375-1.1072 0.66377-1.6367 1.0156h-4.7e-5m2e-3 3.8457c0.52899 0.3512 1.0763 0.69056 1.6348 1.0137 0.55914 0.3219 1.1267 0.62595 1.6953 0.9082m3.332-1.9219c0.0397-0.63412 0.05997-1.2782 0.06055-1.9238-5.78e-4 -0.64564-0.02085-1.2897-0.06055-1.9238" fill="none" stroke="currentColor" stroke-linejoin="round" stroke-width="1.8"/>
 <circle cx="14.916" cy="14.912" r="1.123"/>
</svg>
