<?xml version="1.0" encoding="UTF-8"?>
<svg width="30" height="30" version="1.1" xmlns="http://www.w3.org/2000/svg">
 <path d="m12.246 6.0137v0.0058593c-0.18794 7.002e-4 -0.35129 0.020875-0.47852 0.046875-0.89879 0.2863-0.87117 0.86794-1.8906 1.6191-1.0135 0.5788-1.5235 0.13438-2.2617 0.73438-0.73673 0.5956-0.22226 1.9626-0.53125 2.2285-0.30671 0.5316-1.2584 1.0063-1.4316 1.6777-0.14317 0.8587 0.38958 1.4709 0.36914 2.207 0.0614 0.6133-0.6102 0.96178-0.51367 1.459 0.28922 0.8121 0.84658 1.3001 1.1094 1.5254 0.046151 0.032 0.082828 0.080984 0.097656 0.083984 0.075857 0.1905 0.14373 0.38495 0.24023 0.56445-0.00548-0.026-0.0065097-0.052125-0.011719-0.078125 0.054861 0.2176 0.11171 0.43619 0.18945 0.65039 1.5503 3.3608 5.6813 5.9479 10.209 5.3789 2.1992-0.2694 5.4826-1.7854 6.8242-5.3789-0.94558 0.8485-2.6345 1.586-3.3887 1.6426 2.5527-1.2757 3.9298-3.4434 3.543-6.4062-0.52877 1.2588-1.2269 2.2267-2.0996 2.8906 1.8538-2.8897 1.5362-4.3839 0.16406-6.0254 0.98137 2.699-0.28758 5.6945-3.0527 7.8242 1.1203 0.1214 2.1845-0.14787 3.1699-0.95117-1.4888 1.6607-3.3523 2.4955-5.4883 2.7227 1.0199 0.867 2.0045 1.259 2.9453 1.0918-2.6144 0.7215-4.8042-0.07306-7.4688-2.7266-0.13948 0.7143 0.61496 1.8268 1.3926 2.5371-4.5095-1.955-4.9066-8.042 0.58594-9.5449 0.0033 0 0.006466 9e-4 0.009766 0 3.2713 1.9138 7.3868 1.7879 7.5723 0.55078 0.45807-1.4829-2.0857-4.5385-5.8887-5.3359-0.70028-0.1367-1.3698-0.19048-2.0078-0.17188 0.01278 0 0.024299 2.388e-4 0.037109-0.0097656-0.6074-0.6489-1.3815-0.8145-1.9453-0.8125zm4.9316 3.0332c0.54604 0 1.0449 0.49697 1.0449 1.043 0 0.5461-0.49888 1.043-1.0449 1.043-0.54604 0-1.043-0.49687-1.043-1.043 5.1e-5 -0.546 0.49693-1.0431 1.043-1.043z"/>
</svg>
