<?xml version="1.0" encoding="UTF-8"?>
<svg width="30" height="30" version="1.1" xmlns="http://www.w3.org/2000/svg">
 <g shape-rendering="auto">
  <path d="m10.824 9.4752-7.2627 5.5836 7.2627 5.5519-0.008789-2.286-4.2962-3.298 4.3049-3.2845z" color="#000000" color-rendering="auto" dominant-baseline="auto" image-rendering="auto" solid-color="#000000" style="font-feature-settings:normal;font-variant-alternates:normal;font-variant-caps:normal;font-variant-ligatures:normal;font-variant-numeric:normal;font-variant-position:normal;isolation:auto;mix-blend-mode:normal;shape-padding:0;text-decoration-color:#000000;text-decoration-line:none;text-decoration-style:solid;text-indent:0;text-orientation:mixed;text-transform:none;white-space:normal"/>
  <path d="m15.365 7.2336c-0.018527 0.10187-0.043755 0.2035-0.050781 0.3039-0.90345 5.1066-1.8173 10.212-2.7148 15.32-0.004337 0.028846 0.002377 0.05473 0 0.083118h2.0293c0.074762-0.40738 0.10807-0.83802 0.20898-1.226 0.84434-4.7736 1.6988-9.5445 2.5371-14.32 0.006831-0.054184 0.00386-0.10738 0.003906-0.16104z" color="#000000" color-rendering="auto" dominant-baseline="auto" image-rendering="auto" solid-color="#000000" style="font-feature-settings:normal;font-variant-alternates:normal;font-variant-caps:normal;font-variant-ligatures:normal;font-variant-numeric:normal;font-variant-position:normal;isolation:auto;mix-blend-mode:normal;shape-padding:0;text-decoration-color:#000000;text-decoration-line:none;text-decoration-style:solid;text-indent:0;text-orientation:mixed;text-transform:none;white-space:normal"/>
  <path d="m19.044 9.4746 7.2627 5.5836-7.2627 5.5519 0.008789-2.286 4.2962-3.298-4.3049-3.2845z" color="#000000" color-rendering="auto" dominant-baseline="auto" image-rendering="auto" solid-color="#000000" style="font-feature-settings:normal;font-variant-alternates:normal;font-variant-caps:normal;font-variant-ligatures:normal;font-variant-numeric:normal;font-variant-position:normal;isolation:auto;mix-blend-mode:normal;shape-padding:0;text-decoration-color:#000000;text-decoration-line:none;text-decoration-style:solid;text-indent:0;text-orientation:mixed;text-transform:none;white-space:normal"/>
 </g>
</svg>
